<?xml version="1.0" encoding="utf-8"?>
<!-- Generator: Adobe Illustrator 16.0.0, SVG Export Plug-In . SVG Version: 6.00 Build 0)  -->
<!DOCTYPE svg PUBLIC "-//W3C//DTD SVG 1.1//EN" "http://www.w3.org/Graphics/SVG/1.1/DTD/svg11.dtd">
<svg version="1.1" id="Layer_1" xmlns="http://www.w3.org/2000/svg" xmlns:xlink="http://www.w3.org/1999/xlink" x="0px" y="0px"
	 width="113.391px" height="113.391px" viewBox="0 0 113.391 113.391" enable-background="new 0 0 113.391 113.391"
	 xml:space="preserve">
<path opacity="0.15" fill-rule="evenodd" clip-rule="evenodd" enable-background="new    " d="M40.105,112.792
	c1.377-2.686,2.755-5.372,4.419-8.614c-4.795,0-8.988,0.021-13.182-0.005c-7.519-0.048-11.438-3.927-11.445-11.396
	c-0.021-19.687-0.019-39.372-0.001-59.058c0.007-7.529,3.855-11.41,11.377-11.42c19.686-0.027,39.37-0.03,59.056,0.002
	c7.473,0.012,11.159,3.707,11.166,11.115c0.02,19.815,0.02,39.629,0.001,59.444c-0.007,7.557-3.774,11.284-11.43,11.311
	c-9.135,0.032-18.275-0.166-27.403,0.107c-2.935,0.089-6.007,0.965-8.709,2.168c-4.545,2.025-8.846,4.602-13.25,6.945
	C40.505,113.192,40.305,112.991,40.105,112.792z M87.711,40.222c-17.944,0-35.422,0-53.07,0c0,2.512,0,4.835,0,7.027
	c17.944,0,35.519,0,53.07,0C87.711,44.796,87.711,42.643,87.711,40.222z M34.526,65.906c17.819,0,35.389,0,53.165,0
	c0-2.427,0-4.665,0-7.112c-17.772,0-35.342,0-53.165,0C34.526,61.235,34.526,63.475,34.526,65.906z M87.597,84.497
	c0-2.656,0-4.896,0-7.058c-17.859,0-35.419,0-52.992,0c0,2.556,0,4.786,0,7.058C52.424,84.497,69.907,84.497,87.597,84.497z"/>
<path fill-rule="evenodd" clip-rule="evenodd" fill="#FFFFFF" d="M36.102,107.791c1.377-2.686,2.755-5.372,4.419-8.614
	c-4.795,0-8.988,0.021-13.182-0.005c-7.519-0.048-11.438-3.927-11.445-11.396c-0.021-19.687-0.019-39.374-0.001-59.061
	c0.007-7.529,3.855-11.41,11.377-11.42c19.686-0.027,39.373-0.03,59.059,0.002c7.473,0.012,11.159,3.707,11.166,11.115
	c0.02,19.815,0.02,39.631,0.001,59.447c-0.007,7.557-3.774,11.284-11.43,11.311c-9.135,0.032-18.275-0.166-27.403,0.107
	c-2.935,0.089-6.008,0.965-8.711,2.168c-4.546,2.025-8.847,4.602-13.251,6.945C36.502,108.191,36.302,107.99,36.102,107.791z
	 M83.711,35.219c-17.944,0-35.425,0-53.073,0c0,2.512,0,4.835,0,7.027c17.945,0,35.522,0,53.073,0
	C83.711,39.792,83.711,37.64,83.711,35.219z M30.523,60.905c17.819,0,35.392,0,53.168,0c0-2.428,0-4.666,0-7.114
	c-17.772,0-35.345,0-53.168,0C30.523,56.232,30.523,58.473,30.523,60.905z M83.597,79.496c0-2.656,0-4.896,0-7.058
	c-17.859,0-35.422,0-52.995,0c0,2.556,0,4.786,0,7.058C48.421,79.496,65.907,79.496,83.597,79.496z"/>
</svg>
