<?xml version="1.0" encoding="utf-8"?>
<!-- Generator: Adobe Illustrator 16.0.0, SVG Export Plug-In . SVG Version: 6.00 Build 0)  -->
<!DOCTYPE svg PUBLIC "-//W3C//DTD SVG 1.1//EN" "http://www.w3.org/Graphics/SVG/1.1/DTD/svg11.dtd">
<svg version="1.1" id="Layer_1" xmlns="http://www.w3.org/2000/svg" xmlns:xlink="http://www.w3.org/1999/xlink" x="0px" y="0px"
	 width="200px" height="46px" viewBox="0 0 200 46" enable-background="new 0 0 200 46" xml:space="preserve">
<path opacity="0.3" d="M105.77,23.169c-1.453,0-2.498,0.476-3.562,0.96v10.962c1.019,0.099,1.599,0.099,2.565,0.099
	c3.483,0,3.961-1.598,3.961-3.821v-5.237C108.734,24.49,108.189,23.169,105.77,23.169 M82.62,22.569
	c-2.418,0-2.969,1.328-2.969,2.97v0.92h5.937v-0.92C85.588,23.896,85.036,22.569,82.62,22.569 M37.78,33.98
	c0,1.297,0.613,1.973,1.967,1.973c1.455,0,2.313-0.473,3.375-0.959v-2.6h-3.177C38.44,32.396,37.78,32.675,37.78,33.98
	 M128.285,23.169c-2.422,0-3.262,1.321-3.262,2.961v6c0,1.646,0.842,2.972,3.262,2.972c2.416,0,3.262-1.324,3.262-2.972v-6
	C131.547,24.49,130.701,23.169,128.285,23.169 M25.909,40.707h-7.12V23.496h-3.56v-5.933h3.56v-3.562
	c0-4.838,2.008-7.715,7.715-7.715h4.752v5.931h-2.969c-2.222,0-2.37,0.83-2.37,2.378l-0.008,2.968h5.381l-0.629,5.933h-4.752V40.707
	z M50.244,40.752H44.31l-0.257-1.501c-2.711,1.501-5.129,1.742-6.724,1.742c-4.354,0-6.67-2.904-6.67-6.919
	c0-4.738,2.703-6.428,7.539-6.428h4.922v-1.024c0-2.417-0.278-3.126-4.002-3.126H33.03l0.595-5.933h6.656
	c8.171,0,9.962,2.579,9.962,9.107L50.244,40.752L50.244,40.752z M70.425,23.932c-3.694-0.634-4.753-0.774-6.531-0.774
	c-3.191,0-4.156,0.707-4.156,3.411v5.119c0,2.707,0.965,3.414,4.156,3.414c1.776,0,2.837-0.141,6.531-0.776v5.782
	c-3.236,0.728-5.343,0.918-7.124,0.918c-7.645,0-10.684-4.015-10.684-9.815v-4.155c0-5.805,3.039-9.827,10.684-9.827
	c1.781,0,3.887,0.19,7.124,0.918V23.932z M92.707,31.209H79.651v0.479c0,2.707,0.965,3.416,4.155,3.416
	c2.87,0,4.62-0.143,8.306-0.776v5.78c-3.554,0.728-5.405,0.918-8.896,0.918c-7.646,0-10.686-4.015-10.686-9.815v-4.75
	c0-5.072,2.257-9.23,10.089-9.23c7.835,0,10.087,4.107,10.087,9.23L92.707,31.209L92.707,31.209z M115.854,31.318
	c0,5.607-1.604,9.697-11.322,9.697c-3.508,0-5.568-0.312-9.442-0.906V8.067l7.119-1.187v11.208c1.538-0.572,3.528-0.86,5.342-0.86
	c7.121,0,8.306,3.188,8.306,8.311L115.854,31.318L115.854,31.318z M138.673,31.443c0,4.836-2,9.525-10.362,9.525
	c-8.369,0-10.406-4.689-10.406-9.525v-4.67c0-4.836,2.035-9.528,10.406-9.528c8.364,0,10.362,4.69,10.362,9.528V31.443z
	 M161.473,31.443c0,4.836-2,9.525-10.361,9.525c-8.369,0-10.407-4.689-10.407-9.525v-4.67c0-4.836,2.037-9.528,10.407-9.528
	c8.361,0,10.361,4.69,10.361,9.528V31.443L161.473,31.443z M184.875,40.707h-7.717l-6.525-10.878v10.878h-7.119V8.067l7.119-1.187
	v21.013l6.525-10.332h7.717l-7.123,11.271L184.875,40.707z M151.086,23.169c-2.418,0-3.258,1.321-3.258,2.961v6
	c0,1.646,0.84,2.972,3.258,2.972c2.414,0,3.27-1.324,3.27-2.972v-6C154.355,24.49,153.5,23.169,151.086,23.169"/>
<g id="New_Symbol">
</g>
<path fill="#FFFFFF" d="M104.455,21.857c-1.452,0-2.496,0.476-3.561,0.96v10.962c1.019,0.098,1.6,0.098,2.564,0.098
	c3.486,0,3.964-1.595,3.964-3.82v-5.238C107.424,23.177,106.879,21.857,104.455,21.857 M81.308,21.259
	c-2.418,0-2.969,1.325-2.969,2.97v0.92h5.937v-0.92C84.276,22.586,83.724,21.259,81.308,21.259 M36.468,32.67
	c0,1.298,0.614,1.973,1.967,1.973c1.454,0,2.313-0.475,3.374-0.959v-2.6h-3.177C37.128,31.085,36.468,31.363,36.468,32.67
	 M126.975,21.857c-2.422,0-3.262,1.32-3.262,2.961v6c0,1.646,0.839,2.971,3.262,2.971c2.416,0,3.26-1.323,3.26-2.971v-6
	C130.232,23.177,129.391,21.857,126.975,21.857 M24.598,39.396h-7.12V22.184h-3.559v-5.933h3.56v-3.562
	c0-4.838,2.008-7.714,7.715-7.714h4.752v5.932h-2.969c-2.222,0-2.369,0.83-2.369,2.377l-0.009,2.968h5.381l-0.63,5.933h-4.751
	L24.598,39.396L24.598,39.396z M48.933,39.438h-5.934l-0.257-1.498c-2.71,1.498-5.129,1.742-6.724,1.742
	c-4.353,0-6.669-2.904-6.669-6.922c0-4.736,2.703-6.427,7.538-6.427h4.922v-1.022c0-2.418-0.277-3.128-4.001-3.128H31.72
	l0.596-5.933h6.655c8.17,0,9.962,2.579,9.962,9.106V39.438L48.933,39.438z M69.112,22.619c-3.694-0.632-4.753-0.772-6.53-0.772
	c-3.191,0-4.156,0.706-4.156,3.41v5.12c0,2.707,0.964,3.413,4.156,3.413c1.777,0,2.837-0.14,6.53-0.776v5.783
	c-3.235,0.727-5.343,0.917-7.123,0.917c-7.645,0-10.683-4.015-10.683-9.815v-4.155c0-5.804,3.039-9.826,10.683-9.826
	c1.781,0,3.887,0.192,7.123,0.918V22.619z M91.396,29.898H78.339v0.479c0,2.707,0.965,3.411,4.155,3.411
	c2.87,0,4.62-0.139,8.305-0.773v5.782c-3.554,0.726-5.406,0.917-8.895,0.917c-7.646,0-10.686-4.016-10.686-9.816v-4.75
	c0-5.073,2.257-9.23,10.089-9.23c7.835,0,10.087,4.109,10.087,9.23v4.75H91.396z M114.542,30.007c0,5.608-1.604,9.696-11.321,9.696
	c-3.509,0-5.569-0.311-9.443-0.905V6.756l7.119-1.187v11.207c1.537-0.571,3.529-0.861,5.342-0.861c7.121,0,8.306,3.189,8.306,8.312
	L114.542,30.007L114.542,30.007z M137.361,30.131c0,4.836-2,9.527-10.364,9.527c-8.367,0-10.405-4.691-10.405-9.527v-4.669
	c0-4.836,2.036-9.528,10.405-9.528c8.366,0,10.364,4.691,10.364,9.528V30.131L137.361,30.131z M160.162,30.131
	c0,4.836-2.002,9.527-10.363,9.527c-8.369,0-10.406-4.691-10.406-9.527v-4.669c0-4.836,2.037-9.528,10.406-9.528
	c8.361,0,10.363,4.691,10.363,9.528V30.131z M183.564,39.396h-7.719l-6.525-10.879v10.879h-7.119V6.756l7.119-1.187v21.012
	l6.525-10.33h7.719l-7.125,11.272L183.564,39.396z M149.773,21.857c-2.418,0-3.258,1.32-3.258,2.961v6
	c0,1.646,0.84,2.971,3.258,2.971c2.414,0,3.271-1.323,3.271-2.971v-6C153.044,23.177,152.188,21.857,149.773,21.857"/>
</svg>
