<?xml version="1.0" encoding="utf-8"?>
<!-- Generator: Adobe Illustrator 16.0.0, SVG Export Plug-In . SVG Version: 6.00 Build 0)  -->
<!DOCTYPE svg PUBLIC "-//W3C//DTD SVG 1.1//EN" "http://www.w3.org/Graphics/SVG/1.1/DTD/svg11.dtd">
<svg version="1.1" id="Layer_1" xmlns="http://www.w3.org/2000/svg" xmlns:xlink="http://www.w3.org/1999/xlink" x="0px" y="0px"
	 width="113.391px" height="113.391px" viewBox="0 0 113.391 113.391" enable-background="new 0 0 113.391 113.391"
	 xml:space="preserve">
<path opacity="0.15" d="M37.673,55.883h8.533v42.876h15.988V55.883h12.652l0.948-12.346H62.193v-9.638
	c0-3.315,2.972-4.505,6.291-4.505c3.314,0,6.869,1.027,6.869,1.027l2.133-12.642c0,0-4.528-1.534-15.293-1.534
	c-6.604,0-10.441,2.518-13.241,6.217c-2.657,3.486-2.747,9.123-2.747,12.781v8.291h-8.533L37.673,55.883L37.673,55.883z"/>
<path fill="#FFFFFF" d="M34.671,52.881h8.533v42.875h15.986V52.881h12.652l0.948-12.346H59.19v-9.638
	c0-3.315,2.972-4.505,6.291-4.505c3.314,0,6.869,1.027,6.869,1.027l2.133-12.642c0,0-4.528-1.534-15.293-1.534
	c-6.603,0-10.439,2.518-13.239,6.217c-2.657,3.486-2.747,9.123-2.747,12.781v8.291H34.67L34.671,52.881L34.671,52.881z"/>
</svg>
