<?xml version="1.0" encoding="utf-8"?>
<!-- Generator: Adobe Illustrator 16.0.0, SVG Export Plug-In . SVG Version: 6.00 Build 0)  -->
<!DOCTYPE svg PUBLIC "-//W3C//DTD SVG 1.1//EN" "http://www.w3.org/Graphics/SVG/1.1/DTD/svg11.dtd">
<svg version="1.1" id="Layer_1" xmlns="http://www.w3.org/2000/svg" xmlns:xlink="http://www.w3.org/1999/xlink" x="0px" y="0px"
	 width="200px" height="58.336px" viewBox="0 0 200 58.336" enable-background="new 0 0 200 58.336" xml:space="preserve">
<g id="New_Symbol_1_" opacity="0.3">
	<path d="M16.605,8.312c3.366-3.304,5.453-3.402,5.453-3.402s0.657-0.098,2.25,0.461c1.593,0.559,1.659,1.414,1.659,1.414v24.177
		c0.204,6.769-1.479,9.371-3.499,11.179c-1.148,0.931-2.071,1.054-2.184,1.054c-0.279,0-0.493-0.035-0.542-0.414
		c-0.049-0.379,0.295-1.361,0.295-1.361c1.018-2.582,0.936-7.053,0.936-7.053l0.099-26.053c0,0,0.082-0.477-0.328-0.329
		c-3.975,3.419-4.468,8.234-4.599,10.568c-0.066,3.502,1.453,5.311,1.453,5.311s0.394,0.344,0.344,0.838
		c0,0.666-0.616,0.615-0.616,0.615c-1.494-0.139-3.875-1.832-4.729-3.871c-0.708-1.506-0.689-3.131-0.689-3.131
		C11.958,16.267,13.238,11.617,16.605,8.312z M189.994,31.416c0,7.774-4.711,7.649-4.711,7.649
		c-4.481,0.159-5.629-4.575-5.911-9.392c-0.215-3.623,0-7.652,0-7.652s-0.031-0.187-0.156,0c-1.498,2.722-2.517,6.851-3.018,10.049
		c-0.361,2.317-0.398,4.26-0.398,4.26s0.062,0.435-0.309,0.684c-2.432,1.12-4.001-0.467-4.556-2.239
		c-0.739-1.679-1.171-11.787-1.171-12.316c0-0.528-0.432-0.125-0.432-0.125c-3.354,5.629-3.387,13.905-3.387,15.583
		c0,1.679-2.863,1.15-2.863,1.15c-2.432-0.188-2.338-1.367-2.338-1.367l-0.111-2.008c-0.846,1.561-2.416,3.583-4.83,3.428
		c-3.657-0.238-4.368-4.023-4.42-4.66c0,0-1.82,4.713-6.83,4.66c-3.401-0.053-4.77-3.569-4.77-3.569s-1.365,3.677-4.713,3.542
		c-3.348-0.133-6.104-3.996-5.893-9.005c0.215-5.012,0.99-7.516,0.99-7.516s0.269-0.507-0.188-0.533
		c-0.453-0.025-3.348,0.054-3.348,0.054s-1.633,6.554-8.543,14.709c0,0,0.055,2.549,0.054,5.382
		c-0.005,5.358-0.671,12.547-7.929,13.134c-6.277-0.425-5.924-5.265-5.924-5.265c-0.149-1.423,0.748-4.046,4.491-7.562
		c3.744-3.521,5.24-4.865,5.24-4.865l-0.149-2.248c-2.395,3.967-6.063,3.742-6.063,3.742s-2.831,0.576-5.216-3.64
		c-0.7,1.444-2.292,3.907-4.896,3.62c-3.659-0.4-4.384-4.053-4.438-4.695c0,0-1.828,4.75-6.857,4.695
		c-3.416-0.055-4.788-3.596-4.788-3.596c-0.396-0.715-0.7-1.807-0.86-2.449c-0.039,0.132-0.086,0.273-0.151,0.441
		c-0.775,1.982-2.693,5.438-5.636,5.482c-5.407,0-5.635-8.387-5.635-8.387c-1.563,3.72-4.626,8.484-10.327,8.453
		c-5.7-0.033-6.385-2.09-6.385-2.383c0-0.295-0.099-0.619,0.553-1.567c0.652-0.945,1.206-1.336,1.661-1.336
		c0.457,0,1.272,0.685,1.272,0.685s1.237,1.209,2.638,1.209c1.791-0.066,2.183-1.503,2.313-2.971
		c0.129-1.469-0.913-3.035-2.347-4.342c-1.433-1.306-2.541-2.285-2.541-2.285c-2.052,3.461-3.615,5.812-4.755,7.834
		c-2.769,4.503-5.517,5.199-6.581,5.061c-1.466-0.195-2.866-1.699-2.933-6.072c-0.064-4.374,0.328-11.849,0.328-12.242
		c0-0.393-0.358-0.195-0.358-0.195c-5.473,5.81-7.102,17.758-7.102,17.987c0,0.228-0.488,0.489-0.978,0.489
		c-0.488,0,0.164-0.035-1.791-0.101s-1.824-3.784-1.824-3.784l0.13-17.792c0.032-0.587,0.586-0.848,2.444-0.357
		c1.856,0.488,1.791,1.109,1.791,1.109l-0.065,10.314c4.789-14.133,8.405-11.914,10.587-10.837c2.183,1.077,1.89,2.644,1.89,2.644
		s-0.228,7.769-0.326,10.509c-0.098,2.741,0.293,3.82,0.912,3.917c1.531,0.359,6.972-10.152,6.972-10.152
		c-2.411-2.61-1.095-5.798,0.782-7.18c1.275-0.939,2.834-1.044,2.834-1.044s2.443-0.131,2.377,1.926
		c0.065,2.25-2.442,4.993-2.442,4.993c4.854,3.459,7.134,5.289,7.492,7.966c0.161,1.283-0.129,2.089-0.129,2.089
		c3.453-3.003,3.713-6.366,3.713-6.366L69.2,15.542l-5.113-0.066c0,0-0.391-0.031-0.456-0.979c0-1.795,0.944-2.547,0.944-2.547
		l4.886,0.066c0,0,0.164-5.058,0.196-5.875c0.162-1.174,0.912-1.337,3.062-0.783c2.149,0.555,2.149,1.045,2.149,1.045l-0.26,5.907
		c0,0,5.375,0.261,6.091,0.327c0.717,0.065,0.945,0.261,0.782,1.469c-0.163,1.207-0.88,1.501-0.88,1.501l-6.059,0.13l-0.422,13.024
		c0,2.021,0.098,6.789,1.986,6.755c2.639,0.131,4.203-5.776,4.203-5.776l0.029-0.049c-0.029-0.919-0.012-2.025,0.12-3.264
		c0.502-4.748,2.616-10.309,7.477-10.309c0,0,2.959-0.107,4.52,2.846l0.053-1.074c0,0-0.107-1.288,1.938-0.965
		c2.044,0.323,2.742,1.128,2.688,1.771c0,0-0.375,8.269-0.159,13.156c0.272,2.839,0.761,4.516,2.204,4.402
		c1.246-0.184,2.13-1.883,2.665-3.334c-1.808-15.036,6.42-16.858,6.42-16.858s3.644-0.267,5.304,2.771l0.054-1.013
		c0,0-0.16-1.333,1.77-0.96c0,0,0.804,0.106,1.658,0.427c0.856,0.32,1.127,0.533,1.127,1.332s-0.162,14.848-0.162,14.848
		s4.285-5.757,5.356-11.353c0,0-1.5-1.119-1.391-2.718c0.104-1.599,0.909-3.516,3.267-3.516c2.356,0,2.465,2.077,2.086,3.516
		c0,0,1.984-0.267,3.699-0.692c1.712-0.426,4.018-0.693,4.178,1.972c0.106,0.959-0.322,1.705-0.322,1.705s-1.34,5.914-1.125,8.313
		c0.215,2.396,0.856,6.021,2.731,5.594c1.875-0.424,2.517-3.09,2.517-3.09s-0.752-3.083-0.375-6.661
		c0.498-4.711,2.605-10.23,7.445-10.23c0,0,2.946-0.106,4.5,2.823l0.055-1.065c0,0-0.107-1.278,1.928-0.96
		c2.037,0.321,2.734,1.12,2.679,1.759c0,0-0.374,8.207-0.157,13.057c0.271,2.816,0.758,4.482,2.193,4.367
		c1.389-0.039,2.557-2.383,3.279-4.293l-0.008-0.709l0.045-13.855c0.115-0.793,0.83-0.84,0.83-0.84l1.664,0.256
		c2.332,0.351,2.008,1.236,2.008,1.236v7.835c1.732-5.316,2.563-7.346,3.348-8.699c0.673-1.152,2.865-0.396,2.865-0.396
		s2.378,0.629,2.423,2.823c-0.07,3.615,0.438,9.507,0.438,9.507c0.01,0.094,0.088,0.123,0.135,0.08
		c0.035-0.031,0.037-0.129,0.037-0.129c0.475-3.792,2.629-10.011,3.492-11.628c0.861-1.617,3.355-0.467,3.355-0.467
		c2.986,1.026,2.586,2.799,2.586,2.799c-0.893,15.209,0.986,16.205,2.094,16.299s1.694-1.338,1.939-2.021
		c0.244-0.682,0.556-2.176,0.738-2.768c0.186-0.592,0.771-0.621,0.771-0.621S189.994,30.855,189.994,31.416z M89.122,19.771
		c-1.049,0.041-3.511,0.727-3.953,7.57c-0.443,6.848,1.371,8.619,2.904,8.822c1.533,0.199,4.236-2.254,4.396-9.548
		C92.633,19.329,89.122,19.771,89.122,19.771z M110.585,19.802c-1.064,0.042-3.742,0.974-4.35,7.601
		c-0.45,6.938,1.393,8.732,2.949,8.938c1.558,0.2,4.301-2.285,4.463-9.67C113.812,19.284,110.585,19.802,110.585,19.802z
		 M114.177,41.066c-6.062,5.242-6.588,8.984-6.588,8.984s-0.6,3.07,2.321,3.221c3.509,0.354,4.097-3.908,4.193-7.638
		C114.149,43.871,114.177,41.066,114.177,41.066z M147.427,20.015c-1.049,0.041-3.51,0.726-3.955,7.571
		c-0.443,6.846,1.373,8.618,2.906,8.819c1.531,0.201,4.234-2.256,4.396-9.546C150.937,19.571,147.427,20.015,147.427,20.015z"/>
</g>
<g id="New_Symbol">
	<path fill="#FFFFFF" d="M15.457,6.476c3.366-3.303,5.453-3.402,5.453-3.402s0.656-0.099,2.25,0.461
		c1.593,0.558,1.659,1.414,1.659,1.414v24.179c0.205,6.766-1.478,9.368-3.499,11.176c-1.148,0.934-2.07,1.052-2.184,1.052
		c-0.279,0-0.493-0.032-0.542-0.409c-0.049-0.38,0.295-1.363,0.295-1.363c1.018-2.582,0.936-7.053,0.936-7.053l0.1-26.054
		c0,0,0.081-0.477-0.329-0.329c-3.975,3.419-4.468,8.235-4.599,10.568c-0.066,3.502,1.453,5.31,1.453,5.31s0.394,0.344,0.344,0.838
		c0,0.666-0.616,0.616-0.616,0.616c-1.495-0.139-3.875-1.833-4.73-3.871c-0.707-1.506-0.688-3.131-0.688-3.131
		C10.809,14.431,12.089,9.781,15.457,6.476z M188.845,29.579c0,7.777-4.711,7.651-4.711,7.651c-4.483,0.16-5.629-4.576-5.912-9.394
		c-0.215-3.622,0-7.651,0-7.651s-0.03-0.188-0.154,0c-1.5,2.722-2.518,6.851-3.02,10.047c-0.361,2.32-0.397,4.262-0.397,4.262
		s0.062,0.437-0.31,0.685c-2.433,1.12-4-0.468-4.557-2.239c-0.738-1.68-1.171-11.788-1.171-12.318c0-0.529-0.431-0.125-0.431-0.125
		c-3.354,5.629-3.387,13.906-3.387,15.583c0,1.679-2.861,1.151-2.861,1.151c-2.434-0.188-2.34-1.368-2.34-1.368l-0.11-2.009
		c-0.847,1.562-2.416,3.583-4.833,3.427c-3.654-0.234-4.366-4.022-4.418-4.66c0,0-1.82,4.715-6.83,4.66
		c-3.4-0.052-4.77-3.568-4.77-3.568s-1.364,3.678-4.713,3.543c-3.347-0.131-6.104-3.995-5.893-9.007
		c0.215-5.01,0.991-7.514,0.991-7.514s0.269-0.507-0.187-0.534c-0.455-0.026-3.349,0.054-3.349,0.054s-1.636,6.554-8.545,14.709
		c0,0,0.056,2.549,0.054,5.381c-0.004,5.361-0.67,12.549-7.927,13.134c-6.279-0.424-5.927-5.264-5.927-5.264
		c-0.148-1.421,0.75-4.044,4.492-7.563c3.744-3.517,5.24-4.863,5.24-4.863l-0.148-2.248c-2.396,3.969-6.063,3.742-6.063,3.742
		s-2.832,0.574-5.215-3.639c-0.702,1.443-2.293,3.907-4.896,3.622c-3.658-0.403-4.385-4.054-4.438-4.698c0,0-1.83,4.752-6.858,4.698
		c-3.416-0.054-4.789-3.597-4.789-3.597c-0.396-0.717-0.702-1.809-0.86-2.449c-0.04,0.131-0.087,0.271-0.152,0.439
		c-0.775,1.983-2.693,5.438-5.637,5.484c-5.407,0-5.635-8.387-5.635-8.387c-1.563,3.719-4.626,8.485-10.327,8.454
		c-5.7-0.032-6.385-2.09-6.385-2.385s-0.098-0.619,0.553-1.565c0.652-0.947,1.206-1.337,1.662-1.337
		c0.456,0,1.271,0.684,1.271,0.684s1.238,1.211,2.638,1.211c1.791-0.066,2.183-1.505,2.312-2.972c0.13-1.47-0.912-3.035-2.346-4.342
		c-1.433-1.307-2.54-2.285-2.54-2.285c-2.052,3.461-3.617,5.811-4.756,7.834c-2.769,4.504-5.517,5.2-6.58,5.06
		c-1.467-0.195-2.867-1.699-2.933-6.072c-0.064-4.374,0.327-11.848,0.327-12.241s-0.358-0.195-0.358-0.195
		c-5.472,5.809-7.101,17.757-7.101,17.986c0,0.228-0.488,0.489-0.977,0.489c-0.488,0,0.163-0.033-1.792-0.099
		c-1.955-0.067-1.824-3.786-1.824-3.786l0.129-17.791c0.033-0.587,0.586-0.848,2.444-0.358c1.856,0.489,1.791,1.109,1.791,1.109
		l-0.065,10.314c4.788-14.133,8.405-11.914,10.587-10.837c2.183,1.077,1.89,2.644,1.89,2.644s-0.228,7.769-0.325,10.512
		c-0.099,2.741,0.292,3.818,0.911,3.917c1.531,0.357,6.972-10.152,6.972-10.152c-2.411-2.611-1.095-5.798,0.781-7.181
		c1.275-0.938,2.834-1.044,2.834-1.044s2.444-0.131,2.378,1.926c0.065,2.251-2.443,4.994-2.443,4.994
		c4.854,3.459,7.133,5.287,7.492,7.965c0.161,1.283-0.129,2.089-0.129,2.089c3.453-3.003,3.713-6.366,3.713-6.366l0.064-11.228
		l-5.113-0.066c0,0-0.391-0.032-0.457-0.978c0-1.796,0.944-2.547,0.944-2.547l4.886,0.065c0,0,0.164-5.058,0.196-5.875
		c0.163-1.174,0.912-1.337,3.062-0.782c2.149,0.555,2.149,1.044,2.149,1.044l-0.26,5.907c0,0,5.377,0.261,6.092,0.327
		c0.717,0.065,0.946,0.261,0.783,1.469c-0.164,1.207-0.88,1.501-0.88,1.501l-6.058,0.131l-0.422,13.023
		c0,2.024,0.098,6.79,1.986,6.757c2.639,0.13,4.202-5.778,4.202-5.778l0.029-0.047c-0.03-0.921-0.011-2.025,0.12-3.264
		c0.5-4.748,2.616-10.309,7.476-10.309c0,0,2.959-0.107,4.519,2.845l0.055-1.073c0,0-0.107-1.289,1.938-0.966
		c2.043,0.322,2.742,1.127,2.688,1.771c0,0-0.376,8.269-0.16,13.155c0.273,2.84,0.76,4.518,2.205,4.402
		c1.245-0.182,2.128-1.883,2.665-3.332c-1.809-15.037,6.421-16.859,6.421-16.859s3.642-0.267,5.302,2.771l0.053-1.012
		c0,0-0.16-1.333,1.771-0.959c0,0,0.804,0.106,1.659,0.426s1.125,0.533,1.125,1.332s-0.162,14.848-0.162,14.848
		s4.285-5.757,5.357-11.352c0,0-1.5-1.119-1.393-2.718c0.105-1.599,0.91-3.516,3.27-3.516c2.354,0,2.463,2.077,2.086,3.516
		c0,0,1.982-0.267,3.699-0.692c1.711-0.426,4.017-0.693,4.176,1.972c0.106,0.959-0.321,1.705-0.321,1.705s-1.339,5.914-1.125,8.313
		c0.214,2.397,0.858,6.02,2.731,5.594c1.875-0.426,2.518-3.09,2.518-3.09s-0.753-3.083-0.375-6.663
		c0.498-4.709,2.605-10.23,7.445-10.23c0,0,2.945-0.106,4.5,2.824l0.054-1.065c0,0-0.106-1.278,1.929-0.959
		c2.036,0.321,2.733,1.119,2.68,1.759c0,0-0.375,8.207-0.158,13.054c0.271,2.821,0.757,4.485,2.193,4.372
		c1.389-0.041,2.555-2.385,3.279-4.296l-0.009-0.708l0.045-13.856c0.114-0.793,0.832-0.84,0.832-0.84l1.661,0.256
		c2.332,0.351,2.009,1.236,2.009,1.236v7.836c1.733-5.317,2.563-7.346,3.349-8.699c0.672-1.153,2.863-0.396,2.863-0.396
		s2.378,0.629,2.424,2.822c-0.07,3.615,0.439,9.506,0.439,9.506c0.009,0.094,0.088,0.123,0.134,0.08
		c0.036-0.031,0.039-0.128,0.039-0.128c0.474-3.791,2.628-10.011,3.491-11.628c0.859-1.618,3.354-0.467,3.354-0.467
		c2.987,1.025,2.587,2.798,2.587,2.798c-0.895,15.21,0.985,16.206,2.094,16.3c1.106,0.093,1.692-1.338,1.938-2.022
		c0.246-0.684,0.558-2.177,0.739-2.766c0.186-0.592,0.77-0.623,0.77-0.623S188.845,29.019,188.845,29.579z M87.971,17.935
		c-1.047,0.041-3.51,0.726-3.952,7.569c-0.443,6.848,1.372,8.62,2.905,8.821s4.235-2.254,4.396-9.546
		C91.484,17.493,87.971,17.935,87.971,17.935z M109.435,17.966c-1.064,0.041-3.743,0.973-4.35,7.6
		c-0.449,6.938,1.395,8.734,2.95,8.938c1.558,0.201,4.3-2.283,4.464-9.669C112.663,17.448,109.435,17.966,109.435,17.966z
		 M113.027,39.231c-6.062,5.24-6.588,8.981-6.588,8.981s-0.599,3.07,2.321,3.222c3.509,0.356,4.098-3.907,4.193-7.636
		C112.999,42.035,113.027,39.231,113.027,39.231z M146.276,18.179c-1.049,0.041-3.51,0.726-3.953,7.571
		c-0.443,6.846,1.371,8.618,2.904,8.819s4.234-2.256,4.396-9.544C149.786,17.737,146.276,18.179,146.276,18.179z"/>
</g>
</svg>
