<?xml version="1.0" encoding="utf-8"?>
<!-- Generator: Adobe Illustrator 16.0.0, SVG Export Plug-In . SVG Version: 6.00 Build 0)  -->
<!DOCTYPE svg PUBLIC "-//W3C//DTD SVG 1.1//EN" "http://www.w3.org/Graphics/SVG/1.1/DTD/svg11.dtd">
<svg version="1.1" id="Layer_1" xmlns="http://www.w3.org/2000/svg" xmlns:xlink="http://www.w3.org/1999/xlink" x="0px" y="0px"
	 width="113.391px" height="113.391px" viewBox="0 0 113.391 113.391" enable-background="new 0 0 113.391 113.391"
	 xml:space="preserve">
<path id="Layer_1_2_" opacity="0.15" d="M64.189,61.312l25.724,22.854H28.466l25.725-22.854l5.002,4.019L64.189,61.312z
	 M59.191,56.223L32.597,34.862H85.78L59.191,56.223z M67.693,58.495l23.186-18.62v39.211L67.693,58.495z M97.977,91.265V27.763
	H19.849v63.502H97.977L97.977,91.265z M50.679,58.495L26.946,79.578V39.43L50.679,58.495z"/>
<path id="Layer_1_1_" fill="#FFFFFF" d="M60.185,57.308l25.724,22.854H24.464l25.725-22.854l5.001,4.019L60.185,57.308z
	 M55.188,52.221L28.595,30.86h53.181L55.188,52.221z M63.689,54.492l23.186-18.619v39.209L63.689,54.492z M93.973,87.261v-63.5
	H15.847v63.5H93.973L93.973,87.261z M46.677,54.492L22.944,75.574V35.428L46.677,54.492z"/>
</svg>
