<?xml version="1.0" encoding="utf-8"?>
<!-- Generator: Adobe Illustrator 16.0.0, SVG Export Plug-In . SVG Version: 6.00 Build 0)  -->
<!DOCTYPE svg PUBLIC "-//W3C//DTD SVG 1.1//EN" "http://www.w3.org/Graphics/SVG/1.1/DTD/svg11.dtd">
<svg version="1.1" id="Layer_1" xmlns="http://www.w3.org/2000/svg" xmlns:xlink="http://www.w3.org/1999/xlink" x="0px" y="0px"
	 width="200px" height="46px" viewBox="0 0 200 46" enable-background="new 0 0 200 46" xml:space="preserve">
<g id="New_Symbol_1_" opacity="0.3">
	<g>
		<g>
			<path d="M181.462,32.212c-2.823,0-5.114,2.243-5.114,5.01c0,2.765,2.289,5.005,5.114,5.005c2.827,0,5.116-2.242,5.116-5.005
				C186.577,34.455,184.289,32.212,181.462,32.212z M153.451,35.062l0.008-29.376h-3.088c0,0-5.135,1.857-8.833,2.251v5.548h2.334
				c0.752,0,1.065,0.321,1.077,1.022v20.554c0,0.725-0.426,1.12-1.114,1.166c-0.59,0.038-1.912,0.124-1.912,0.124v5.55h14.556v-5.55
				c0,0-1.322-0.086-1.912-0.124C153.877,36.183,153.451,35.787,153.451,35.062z M182.871,20.482
				c-0.286-6.19-8.666-6.477-13.051-2.293l-0.801-2.396h-10.131v5.672l2.125-0.003c0.75,0,1.031,0.319,1.041,1.021v12.58
				c0,0.725-0.428,1.121-1.117,1.168c-0.59,0.037-1.776,0.122-1.776,0.122v5.55h14.267v-5.55c0,0-1.18-0.085-1.771-0.122
				c-0.689-0.046-1.115-0.441-1.115-1.168l-0.002-8.527c0-1.601,0.365-4.27,3.188-4.951c0.349,2.669,2.926,3.468,4.185,3.468
				C181.086,25.049,182.871,22.671,182.871,20.482z M129.121,15.444c-2.16,0.095-4.438,0.921-6.094,2.361V5.686h-3.061
				c0,0-4.999,1.776-8.869,2.251l-0.129,5.548l2.45,0.004c0.75,0,1.074,0.319,1.084,1.021v27.393l6.991-0.007l1-2.25
				c0.215,0.121,3.424,3.138,8.547,2.534c6.451-0.761,9.838-5.868,9.838-13.618C140.879,24.5,139.634,14.985,129.121,15.444z
				 M127.828,35.846c-1.188,0.087-3.389-0.111-4.803-2.595v-3.636l0.002-0.004h-0.002c0,0,0-2.643,0-4.203
				c0-1.817,1.681-3.414,4.277-3.51c2.629-0.097,4.959,1.7,4.959,6.772C132.264,35.515,129.262,35.738,127.828,35.846z
				 M108.984,35.083c0,0,0-6.445,0-7.921c0-2.821-0.033-5.74-1.901-8.121c-1.71-2.18-4.548-3.778-8.858-3.57
				c-2.863,0.138-5.916,1.469-7.603,3.747l-0.267,0.335l-0.162-0.193c-1.733-2.504-4.5-4.098-8.811-3.889
				c-2.863,0.138-5.917,1.469-7.604,3.747l-0.252-3.401H62.965v5.674l2.431,0.035c0.751,0,1.07,0.322,1.079,1.022l0.001,11.104
				v1.431c0,0.726-0.426,1.12-1.115,1.166c-0.591,0.04-1.785,0.126-1.785,0.126v5.55l14.285,0.003v-5.553
				c0,0-1.125-0.08-1.784-0.127c-0.688-0.045-1.114-0.438-1.114-1.165c0,0,0.012-7.087,0.012-8.507c0-1.418,1.172-4.326,4.897-4.326
				c3.003,0,3.62,1.83,3.62,3.963c0,2.13,0.002,8.869,0.002,8.869c0,0.727-0.426,1.121-1.113,1.168
				c-0.59,0.039-1.783,0.125-1.783,0.125v5.549h14.27v-5.551c0,0-1.125-0.079-1.785-0.125c-0.688-0.047-1.107-0.439-1.107-1.166
				h-0.022c0,0,0.013-7.088,0.013-8.506s1.047-4.328,4.771-4.328c3.002,0,3.756,1.832,3.756,3.964v7.44l-0.002,1.432
				c0,0.725-0.426,1.119-1.115,1.166c-0.591,0.041-1.785,0.126-1.785,0.126v5.548h14.287v-5.551c0,0-1.126-0.079-1.784-0.123
				C109.402,36.203,108.984,35.81,108.984,35.083z M58.325,35.137V15.818H46.454v5.672h2.288c0.752,0,1.068,0.32,1.078,1.022
				l-0.011,8.812c0,0.863-0.624,4.108-4.948,4.188c-2.948,0.058-3.569-1.683-3.569-3.961V15.818h-8.739v16.187
				c0,4.095,1.87,10.536,10.597,10.302c2.865-0.078,6.147-1.52,7.853-3.633l0.071,3.254h9.741v-5.55c0,0-0.787-0.062-1.376-0.099
				C58.748,36.234,58.325,35.865,58.325,35.137z M25.964,35.781c-2.9,0.076-3.461-1.994-3.486-3.498V21.859h6.76v-6.041h-6.732
				V6.839c0,0-5.222,0-5.308,0c-0.087,0-0.24,0.075-0.261,0.267c-0.312,2.764-1.635,7.618-7.13,9.556v5.197h4.183v10.975
				c0,3.966,2.474,9.604,10.366,9.47c2.663-0.044,5.621-1.135,6.276-2.076l-1.744-5.06C28.214,35.482,26.927,35.756,25.964,35.781z"
				/>
		</g>
	</g>
</g>
<g id="New_Symbol">
	<g>
		<g>
			<path fill="#FFFFFF" d="M180.463,30.214c-2.824,0-5.115,2.241-5.115,5.009c0,2.764,2.289,5.006,5.115,5.006
				c2.827,0,5.116-2.242,5.116-5.006C185.578,32.457,183.29,30.214,180.463,30.214z M152.451,33.064l0.009-29.375h-3.089
				c0,0-5.133,1.857-8.832,2.252v5.548h2.334c0.752,0,1.066,0.321,1.077,1.022v20.554c0,0.725-0.427,1.119-1.114,1.166
				c-0.59,0.037-1.912,0.125-1.912,0.125v5.549h14.555v-5.549c0,0-1.321-0.088-1.912-0.125
				C152.878,34.185,152.451,33.789,152.451,33.064z M181.871,18.484c-0.285-6.19-8.666-6.476-13.049-2.293l-0.801-2.396h-10.131
				v5.673l2.125-0.003c0.75,0,1.03,0.32,1.039,1.021v12.58c0,0.725-0.427,1.119-1.115,1.166c-0.592,0.037-1.776,0.123-1.776,0.123
				v5.549h14.267v-5.549c0,0-1.18-0.086-1.771-0.123c-0.69-0.045-1.116-0.44-1.116-1.166l-0.002-8.529
				c0-1.601,0.366-4.269,3.188-4.949c0.349,2.668,2.926,3.467,4.185,3.467C180.087,23.051,181.871,20.673,181.871,18.484z
				 M128.122,13.447c-2.16,0.095-4.438,0.921-6.093,2.36V3.688h-3.062c0,0-4.999,1.776-8.869,2.252l-0.127,5.548l2.449,0.004
				c0.75,0,1.073,0.319,1.084,1.022v27.393l6.991-0.008l1-2.248c0.215,0.119,3.423,3.137,8.546,2.532
				c6.452-0.76,9.839-5.866,9.839-13.616C139.88,22.501,138.634,12.987,128.122,13.447z M126.828,33.847
				c-1.188,0.087-3.389-0.112-4.803-2.594v-3.636l0.004-0.004h-0.004c0,0,0-2.643,0-4.203c0-1.819,1.682-3.414,4.279-3.51
				c2.629-0.098,4.957,1.698,4.957,6.771C131.266,33.516,128.264,33.74,126.828,33.847z M107.984,33.084c0,0,0-6.445,0-7.92
				c0-2.821-0.032-5.739-1.899-8.12c-1.711-2.18-4.549-3.779-8.86-3.571c-2.863,0.139-5.916,1.469-7.602,3.747l-0.266,0.335
				l-0.162-0.193c-1.733-2.503-4.5-4.098-8.811-3.889c-2.863,0.139-5.917,1.469-7.603,3.747l-0.253-3.401H61.966v5.673l2.431,0.035
				c0.752,0,1.069,0.322,1.079,1.021l0.001,11.104v1.431c0,0.726-0.425,1.122-1.115,1.167c-0.591,0.039-1.784,0.125-1.784,0.125
				v5.55l14.283,0.004v-5.554c0,0-1.125-0.079-1.782-0.125c-0.688-0.047-1.114-0.44-1.114-1.167c0,0,0.012-7.087,0.012-8.507
				c0-1.416,1.174-4.325,4.897-4.325c3.003,0,3.62,1.832,3.62,3.962s0.002,8.869,0.002,8.869c0,0.727-0.426,1.121-1.113,1.169
				c-0.591,0.038-1.783,0.124-1.783,0.124v5.549h14.27v-5.55c0,0-1.126-0.079-1.785-0.125c-0.688-0.046-1.105-0.44-1.105-1.167
				h-0.023c0,0,0.014-7.088,0.014-8.506s1.045-4.326,4.771-4.326c3.001,0,3.756,1.832,3.756,3.962v7.44l-0.003,1.432
				c0,0.726-0.426,1.119-1.115,1.166c-0.589,0.041-1.783,0.127-1.783,0.127v5.547h14.285v-5.55c0,0-1.125-0.079-1.783-0.124
				C108.402,34.205,107.984,33.811,107.984,33.084z M57.326,33.139V13.821h-11.87v5.671h2.287c0.752,0,1.069,0.32,1.078,1.022
				l-0.012,8.812c0,0.865-0.624,4.108-4.948,4.189c-2.948,0.057-3.569-1.683-3.569-3.961V13.821h-8.739v16.185
				c0,4.096,1.87,10.537,10.597,10.302c2.865-0.077,6.147-1.519,7.853-3.633l0.071,3.255h9.741v-5.55c0,0-0.786-0.062-1.376-0.101
				C57.749,34.234,57.326,33.865,57.326,33.139z M24.965,33.783c-2.9,0.074-3.461-1.994-3.486-3.498V19.861h6.76v-6.041h-6.732
				V4.842c0,0-5.222,0-5.308,0c-0.087,0-0.24,0.074-0.261,0.266c-0.312,2.764-1.634,7.618-7.129,9.557v5.197h4.183v10.974
				c0,3.966,2.474,9.604,10.366,9.47c2.663-0.044,5.621-1.134,6.277-2.076l-1.744-5.06C27.216,33.484,25.928,33.758,24.965,33.783z"
				/>
		</g>
	</g>
</g>
</svg>
