<?xml version="1.0" encoding="utf-8"?>
<!-- Generator: Adobe Illustrator 16.0.0, SVG Export Plug-In . SVG Version: 6.00 Build 0)  -->
<!DOCTYPE svg PUBLIC "-//W3C//DTD SVG 1.1//EN" "http://www.w3.org/Graphics/SVG/1.1/DTD/svg11.dtd">
<svg version="1.1" id="Layer_1" xmlns="http://www.w3.org/2000/svg" xmlns:xlink="http://www.w3.org/1999/xlink" x="0px" y="0px"
	 width="113.391px" height="113.391px" viewBox="0 0 113.391 113.391" enable-background="new 0 0 113.391 113.391"
	 xml:space="preserve">
<path opacity="0.15" enable-background="new    " d="M53.189,18.263c-0.521,4.255-1.485,7.766-2.891,10.515
	c-1.396,2.768-3.251,5.128-5.562,7.089c-2.312,1.962-5.078,3.479-8.329,4.529V52.07h9.126v28.945c0,3.773,0.39,6.654,1.186,8.646
	c0.786,1.979,2.208,3.861,4.257,5.629c2.047,1.762,4.521,3.109,7.42,4.07c2.893,0.947,6.229,1.43,10.008,1.43
	c3.314,0,6.406-0.33,9.271-1.012c2.861-0.66,6.046-1.834,9.581-3.484V83.273c-4.145,2.711-8.294,4.076-12.474,4.076
	c-2.354,0-4.438-0.541-6.257-1.644c-1.395-0.812-2.33-1.896-2.832-3.263c-0.514-1.353-0.76-4.42-0.76-9.211V52.07h19.579V39.121
	H64.935V18.263H53.189z"/>
<path fill="#FFFFFF" d="M48.187,13.261c-0.521,4.255-1.485,7.766-2.891,10.515c-1.396,2.768-3.251,5.127-5.562,7.089
	s-5.079,3.479-8.33,4.529v11.674h9.126V76.01c0,3.773,0.391,6.654,1.187,8.646c0.786,1.979,2.208,3.861,4.257,5.629
	c2.047,1.762,4.521,3.109,7.42,4.07c2.891,0.947,6.228,1.43,10.006,1.43c3.314,0,6.406-0.33,9.271-1.012
	c2.861-0.661,6.046-1.834,9.581-3.484V78.268c-4.145,2.711-8.294,4.076-12.475,4.076c-2.354,0-4.438-0.541-6.256-1.644
	c-1.395-0.812-2.33-1.896-2.832-3.263c-0.514-1.353-0.76-4.42-0.76-9.211v-21.16h19.579V34.117H59.93V13.261H48.187z"/>
</svg>
