<?xml version="1.0" encoding="utf-8"?>
<!-- Generator: Adobe Illustrator 16.0.0, SVG Export Plug-In . SVG Version: 6.00 Build 0)  -->
<!DOCTYPE svg PUBLIC "-//W3C//DTD SVG 1.1//EN" "http://www.w3.org/Graphics/SVG/1.1/DTD/svg11.dtd">
<svg version="1.1" id="Layer_1" xmlns="http://www.w3.org/2000/svg" xmlns:xlink="http://www.w3.org/1999/xlink" x="0px" y="0px"
	 width="200px" height="46px" viewBox="0 0 200 46" enable-background="new 0 0 200 46" xml:space="preserve">
<g id="New_Symbol_1_" opacity="0.3">
	<g>
		<g>
			<path d="M83.968,13.908c2.069,2.16,6.327,1.11,6.985-1.889c1.08-2.97-1.919-6.387-4.976-5.576
				C82.618,6.861,81.239,11.899,83.968,13.908z"/>
		</g>
		<g>
			<path d="M35.124,32.229c-3.417-0.27-6.866,0.029-10.314-0.27c-1.649-0.184-2.998-1.648-3.298-3.238
				c-0.208-1.648-0.119-3.328-0.179-5.008c4.587-0.061,9.175,0.211,13.732-0.148c2.219-0.361,3.928-2.94,3.269-5.127
				c-0.21-1.74-1.77-3.089-3.448-3.36c-4.469-0.209-8.966-0.029-13.434-0.06c-0.03-1.77-0.03-3.567-0.181-5.336
				c-0.328-2.249-2.906-3.806-5.066-3.178c-2.369,0.359-3.868,2.939-3.508,5.217c0,5.486-0.12,11.002,0.061,16.491
				c-0.031,5.367,3.838,10.436,8.964,11.994c3.388,1.05,6.986,0.568,10.463,0.63c1.889,0,4.288,0.058,5.367-1.86
				C39.562,36.756,38.092,32.678,35.124,32.229z"/>
		</g>
		<g>
			<path d="M104.658,31.6c-1.59-0.721-1.65-2.789-1.949-4.228c2.578-0.032,5.156,0.028,7.732-0.122
				c2.162,0.299,4.289-1.529,4.35-3.658c0.42-2.188-1.288-4.289-3.329-4.769c-3.026-0.358-6.055-0.209-9.083-0.238
				c-0.061-3.209,0.182-6.447-0.27-9.625c-0.99-2.669-4.947-3.479-6.896-1.379c-1.89,1.439-1.409,4.167-1.59,6.238
				c0.03,6.896-0.239,14.18,2.399,20.688c2.219,5.337,8.604,6.896,13.824,6.267c2.188,0.182,4.497-1.229,4.918-3.478
				c0.389-1.56-0.33-3.088-1.32-4.287C110.833,31.359,107.445,32.708,104.658,31.6z"/>
		</g>
		<g>
			<path d="M127.021,31.418c-1.379-0.839-1.258-2.729-1.467-4.105c2.938,0,5.873,0.119,8.813-0.119
				c1.948-0.242,2.998-2.131,3.237-3.87c0.209-2.099-1.379-4.079-3.359-4.497c-3.025-0.359-6.055-0.21-9.084-0.24
				c-0.029-3.029,0.122-6.087-0.209-9.146c-0.182-1.167-1.17-2.008-2.13-2.608c-1.619-0.929-3.718-0.3-5.128,0.75
				c-0.988,1.348-1.405,3.058-1.348,4.736c-0.359,4.318,0.061,8.633,0.33,12.954c0.51,3.957,0.928,8.246,3.447,11.543
				c3.479,4.078,9.417,4.588,14.361,3.748c2.729-0.748,4.107-4.285,2.367-6.688C134.459,30.789,130.109,33.038,127.021,31.418z"/>
		</g>
		<g>
			<path d="M77.401,16.906c-1.919-0.96-4.348,0.359-5.126,2.218c-0.991,3.119-0.271,6.478-0.571,9.688
				c0.479,2.367-2.158,4.195-4.317,3.744c-1.469-0.088-2.549-1.287-2.998-2.606c-0.78-3.958,1.079-8.605-1.379-12.174
				c-1.05-0.69-2.338-1.47-3.657-1.108c-1.77,0.359-3.239,1.948-3.449,3.747c-0.119,3.088,0.09,6.178-0.151,9.235
				c-0.239,1.47-1.468,2.787-2.997,2.908c-2.31,0.51-4.468-1.529-4.648-3.748c-0.179-3.238,0.18-6.479-0.24-9.686
				c-0.839-1.648-2.878-3.056-4.797-2.368c-2.099,0.271-3.208,2.638-3.059,4.557c-0.09,3.6-0.299,7.288,0.509,10.825
				c1.529,5.639,7.616,9.506,13.372,8.485c2.31-0.238,4.228-1.588,6.177-2.756c2.338,1.677,5.097,3.087,8.096,2.907
				c6.026,0.091,11.483-5.127,11.933-11.094c0.18-3.238,0.21-6.479-0.121-9.687C79.83,18.556,78.69,17.446,77.401,16.906z"/>
		</g>
		<g>
			<path d="M161.324,19.904c-4.198-3.387-10.195-3.776-15.203-2.157c-2.908,0.989-5.246,3.355-6.354,6.237
				c-1.979,4.856-0.449,11.096,3.985,14.094c3.718,3.087,8.937,3.266,13.463,2.098c2.58-0.511,5.277-1.891,6.356-4.437
				c0.75-1.472-0.358-3.601-2.068-3.749c-2.367-0.422-4.288,1.318-6.537,1.74c-2.578,0.447-5.996,0.237-7.285-2.433
				c4.559-0.18,9.146,0.091,13.7-0.18c1.409-0.062,3.091-0.629,3.537-2.101C165.553,25.602,163.992,22.063,161.324,19.904z
				 M147.771,25.48c1.619-3.297,7.166-3.357,8.846-0.09C153.68,25.512,150.711,25.542,147.771,25.48z"/>
		</g>
		<g>
			<path d="M184.5,16.816c-2.549-0.121-5.125-0.089-7.674,0.181c-5.219,0.481-9.773,5.126-10.195,10.345
				c-0.268,3.447-0.268,6.896,0.029,10.346c0.15,1.349,1.413,2.248,2.521,2.879c2.397,1.049,5.276-1.141,5.396-3.629
				c0.121-3-0.091-5.996,0.149-8.965c0.239-1.59,1.592-2.848,3.181-2.968c2.459-0.149,4.915-0.062,7.374-0.271
				c1.379-0.12,2.248-1.381,2.879-2.489C189.208,19.844,187.05,16.906,184.5,16.816z"/>
		</g>
		<g>
			<path d="M86.275,18.165c-1.678,0.209-3.388,1.408-3.597,3.207c-0.27,4.978-0.18,9.956-0.06,14.935
				c-0.36,2.608,2.368,5.006,4.916,4.35c1.979-0.271,3.539-2.1,3.659-4.049c0.15-4.948,0.239-9.926-0.12-14.875
				C90.805,19.543,88.495,17.747,86.275,18.165z"/>
		</g>
	</g>
</g>
<g id="New_Symbol">
	<g>
		<g>
			<path fill="#FFFFFF" d="M82.893,11.756c2.069,2.16,6.327,1.109,6.985-1.889c1.081-2.97-1.919-6.387-4.977-5.577
				C81.543,4.71,80.163,9.748,82.893,11.756z"/>
		</g>
		<g>
			<path fill="#FFFFFF" d="M34.048,30.075c-3.417-0.269-6.866,0.03-10.314-0.269c-1.649-0.183-2.998-1.648-3.298-3.238
				c-0.209-1.648-0.119-3.329-0.18-5.007c4.587-0.06,9.175,0.209,13.732-0.15c2.219-0.359,3.928-2.94,3.269-5.126
				c-0.21-1.738-1.77-3.088-3.449-3.359c-4.467-0.209-8.965-0.029-13.433-0.059c-0.03-1.77-0.03-3.567-0.179-5.336
				c-0.329-2.249-2.908-3.807-5.066-3.178c-2.369,0.359-3.868,2.939-3.508,5.217c0,5.487-0.12,11.004,0.061,16.491
				c-0.03,5.366,3.838,10.435,8.965,11.992c3.388,1.051,6.986,0.57,10.463,0.629c1.889,0,4.288,0.061,5.367-1.857
				C38.487,34.604,37.017,30.525,34.048,30.075z"/>
		</g>
		<g>
			<path fill="#FFFFFF" d="M103.582,29.445c-1.591-0.719-1.65-2.787-1.948-4.228c2.577-0.03,5.155,0.029,7.733-0.12
				c2.16,0.299,4.289-1.529,4.348-3.66c0.422-2.187-1.287-4.288-3.328-4.767c-3.027-0.358-6.056-0.208-9.084-0.239
				c-0.06-3.208,0.182-6.446-0.27-9.625c-0.99-2.668-4.946-3.477-6.895-1.379c-1.891,1.439-1.41,4.167-1.59,6.238
				c0.03,6.896-0.24,14.182,2.399,20.688c2.218,5.336,8.603,6.896,13.823,6.268c2.188,0.179,4.498-1.23,4.916-3.479
				c0.392-1.562-0.326-3.09-1.317-4.289C109.757,29.208,106.37,30.557,103.582,29.445z"/>
		</g>
		<g>
			<path fill="#FFFFFF" d="M125.945,29.268c-1.379-0.841-1.26-2.73-1.469-4.106c2.939,0,5.877,0.118,8.815-0.12
				c1.946-0.242,2.998-2.131,3.237-3.87c0.209-2.097-1.379-4.078-3.359-4.497c-3.027-0.358-6.055-0.208-9.083-0.24
				c-0.03-3.028,0.12-6.086-0.212-9.145c-0.18-1.168-1.167-2.008-2.127-2.608c-1.619-0.929-3.721-0.3-5.128,0.748
				c-0.988,1.35-1.408,3.059-1.349,4.738c-0.358,4.319,0.06,8.636,0.33,12.952c0.51,3.958,0.928,8.249,3.447,11.543
				c3.479,4.078,9.415,4.589,14.362,3.749c2.729-0.747,4.106-4.286,2.368-6.688C133.382,28.637,129.035,30.885,125.945,29.268z"/>
		</g>
		<g>
			<path fill="#FFFFFF" d="M76.325,14.754c-1.918-0.96-4.348,0.36-5.126,2.219c-0.991,3.117-0.271,6.475-0.571,9.685
				c0.479,2.367-2.158,4.197-4.317,3.746c-1.469-0.09-2.549-1.288-2.998-2.608c-0.779-3.956,1.079-8.603-1.379-12.171
				c-1.05-0.69-2.338-1.47-3.658-1.109c-1.769,0.359-3.238,1.948-3.448,3.748c-0.12,3.087,0.09,6.175-0.151,9.234
				c-0.239,1.469-1.468,2.787-2.997,2.908c-2.31,0.51-4.468-1.527-4.648-3.749c-0.179-3.238,0.181-6.476-0.24-9.684
				c-0.839-1.648-2.878-3.057-4.797-2.37c-2.099,0.271-3.208,2.639-3.058,4.558c-0.091,3.598-0.3,7.286,0.509,10.823
				c1.529,5.637,7.616,9.506,13.372,8.486c2.31-0.238,4.228-1.591,6.178-2.758c2.337,1.678,5.096,3.087,8.095,2.908
				c6.026,0.089,11.483-5.127,11.933-11.094c0.18-3.24,0.21-6.479-0.12-9.687C78.753,16.404,77.615,15.294,76.325,14.754z"/>
		</g>
		<g>
			<path fill="#FFFFFF" d="M160.248,17.753c-4.2-3.389-10.195-3.778-15.202-2.16c-2.907,0.99-5.248,3.357-6.356,6.237
				c-1.979,4.855-0.448,11.094,3.988,14.093c3.717,3.086,8.936,3.267,13.461,2.097c2.579-0.511,5.278-1.891,6.358-4.437
				c0.749-1.47-0.36-3.599-2.071-3.749c-2.365-0.419-4.287,1.32-6.533,1.74c-2.58,0.449-5.998,0.238-7.287-2.432
				c4.557-0.179,9.145,0.09,13.701-0.179c1.409-0.062,3.088-0.631,3.537-2.101C164.475,23.45,162.916,19.911,160.248,17.753z
				 M146.695,23.33c1.619-3.297,7.166-3.357,8.846-0.09C152.604,23.36,149.634,23.389,146.695,23.33z"/>
		</g>
		<g>
			<path fill="#FFFFFF" d="M183.423,14.666c-2.547-0.12-5.125-0.089-7.672,0.181c-5.219,0.48-9.774,5.128-10.194,10.344
				c-0.271,3.447-0.271,6.896,0.028,10.345c0.151,1.35,1.408,2.249,2.521,2.878c2.398,1.051,5.276-1.141,5.396-3.627
				c0.12-2.999-0.091-5.997,0.149-8.965c0.238-1.59,1.593-2.849,3.179-2.969c2.46-0.151,4.918-0.06,7.375-0.271
				c1.381-0.118,2.248-1.379,2.88-2.487C188.132,17.693,185.975,14.754,183.423,14.666z"/>
		</g>
		<g>
			<path fill="#FFFFFF" d="M85.2,16.015c-1.679,0.209-3.388,1.408-3.598,3.207c-0.269,4.976-0.179,9.952-0.059,14.932
				c-0.359,2.609,2.369,5.005,4.916,4.35c1.98-0.271,3.538-2.1,3.658-4.05c0.15-4.946,0.24-9.927-0.12-14.87
				C89.729,17.394,87.419,15.595,85.2,16.015z"/>
		</g>
	</g>
</g>
</svg>
