<?xml version="1.0" encoding="utf-8"?>
<!-- Generator: Adobe Illustrator 16.0.0, SVG Export Plug-In . SVG Version: 6.00 Build 0)  -->
<!DOCTYPE svg PUBLIC "-//W3C//DTD SVG 1.1//EN" "http://www.w3.org/Graphics/SVG/1.1/DTD/svg11.dtd">
<svg version="1.1" id="Layer_1" xmlns="http://www.w3.org/2000/svg" xmlns:xlink="http://www.w3.org/1999/xlink" x="0px" y="0px"
	 width="113.391px" height="113.391px" viewBox="0 0 113.391 113.391" enable-background="new 0 0 113.391 113.391"
	 xml:space="preserve">
<path opacity="0.15" d="M100.684,35.503c-3.019,1.34-6.271,2.246-9.674,2.652c3.479-2.086,6.151-5.385,7.403-9.317
	c-3.26,1.932-6.854,3.331-10.698,4.084c-3.062-3.273-7.449-5.316-12.3-5.316c-9.293,0-16.836,7.543-16.836,16.846
	c0,1.322,0.146,2.604,0.435,3.836c-14-0.703-26.407-7.404-34.727-17.604c-1.45,2.497-2.282,5.39-2.282,8.479
	c0,5.839,2.976,10.998,7.498,14.021c-2.765-0.084-5.36-0.85-7.636-2.104v0.207c0,8.167,5.806,14.981,13.521,16.524
	c-1.417,0.396-2.904,0.594-4.438,0.594c-1.088,0-2.146-0.104-3.173-0.301c2.146,6.688,8.365,11.562,15.74,11.692
	c-5.771,4.521-13.033,7.213-20.928,7.213c-1.354,0-2.701-0.073-4.021-0.231c7.456,4.774,16.313,7.565,25.827,7.565
	c30.992,0,47.926-25.668,47.926-47.938c0-0.731-0.009-1.462-0.042-2.179C95.571,41.852,98.434,38.881,100.684,35.503"/>
<path fill="#FFFFFF" d="M96.68,31.501c-3.019,1.34-6.271,2.246-9.674,2.652c3.479-2.086,6.151-5.385,7.403-9.317
	c-3.26,1.932-6.854,3.331-10.698,4.084c-3.062-3.273-7.449-5.316-12.3-5.316c-9.293,0-16.835,7.543-16.835,16.846
	c0,1.322,0.146,2.604,0.435,3.836c-13.999-0.703-26.406-7.404-34.726-17.604c-1.45,2.497-2.282,5.39-2.282,8.479
	c0,5.839,2.976,10.998,7.498,14.021c-2.765-0.084-5.36-0.85-7.636-2.104v0.207c0,8.166,5.806,14.979,13.521,16.522
	c-1.417,0.396-2.904,0.594-4.438,0.594c-1.088,0-2.146-0.104-3.173-0.301c2.146,6.688,8.365,11.562,15.74,11.692
	c-5.771,4.521-13.033,7.213-20.928,7.213c-1.354,0-2.701-0.073-4.021-0.231c7.456,4.774,16.313,7.565,25.827,7.565
	c30.99,0,47.924-25.668,47.924-47.937c0-0.731-0.009-1.462-0.042-2.179C91.567,37.85,94.43,34.879,96.68,31.501"/>
</svg>
