<?xml version="1.0" encoding="utf-8"?>
<!-- Generator: Adobe Illustrator 16.0.0, SVG Export Plug-In . SVG Version: 6.00 Build 0)  -->
<!DOCTYPE svg PUBLIC "-//W3C//DTD SVG 1.1//EN" "http://www.w3.org/Graphics/SVG/1.1/DTD/svg11.dtd">
<svg version="1.1" id="Layer_1" xmlns="http://www.w3.org/2000/svg" xmlns:xlink="http://www.w3.org/1999/xlink" x="0px" y="0px"
	 width="92px" height="100px" viewBox="0 0 92 100" enable-background="new 0 0 92 100" xml:space="preserve">
<path id="pdf-file-2-icon" fill="#FF8C2E" d="M52.396,12.695v19.271H71.69v55.339H14.307V12.695H52.396z M58.013,3.707H5.317v92.586
	h75.362V26.348L58.013,3.707z M20.555,52.833h5.151c4.192,0,7.593,3.338,7.593,7.426c0,4.089-3.4,7.427-7.593,7.427h-5.151V52.833z
	 M29.71,60.259c0-2.106-1.794-3.858-4.005-3.858h-1.564v7.719h1.564C27.917,64.118,29.71,62.365,29.71,60.259z M50.176,60.176
	c0,4.234-3.504,7.696-7.738,7.696c-4.254,0-7.718-3.462-7.718-7.696c0-4.275,3.464-7.738,7.718-7.738
	C46.671,52.438,50.176,55.898,50.176,60.176z M46.524,60.176c0-2.273-1.812-4.172-4.086-4.172c-2.272,0-4.108,1.896-4.108,4.172
	c0,2.252,1.835,4.108,4.108,4.108C44.711,64.284,46.524,62.428,46.524,60.176z M62.944,62.221l2.857,2.105
	c-1.855,2.482-4.047,3.566-6.466,3.566c-4.256,0-7.739-3.482-7.739-7.738s3.483-7.719,7.739-7.719c2.461,0,4.692,1.147,6.549,3.631
	l-2.899,2.127c-1.168-1.563-2.355-2.189-3.648-2.189c-2.314,0-4.15,1.855-4.15,4.15c0,2.314,1.836,4.15,4.15,4.15
	C60.63,64.307,61.776,63.764,62.944,62.221z"/>
</svg>
