<?xml version="1.0" encoding="utf-8"?>
<!-- Generator: Adobe Illustrator 16.0.0, SVG Export Plug-In . SVG Version: 6.00 Build 0)  -->
<!DOCTYPE svg PUBLIC "-//W3C//DTD SVG 1.1//EN" "http://www.w3.org/Graphics/SVG/1.1/DTD/svg11.dtd">
<svg version="1.1" id="Layer_1" xmlns="http://www.w3.org/2000/svg" xmlns:xlink="http://www.w3.org/1999/xlink" x="0px" y="0px"
	 width="400px" height="162px" viewBox="0 0 400 162" enable-background="new 0 0 400 162" xml:space="preserve">
<g>
	<g>
		<g>
			<rect x="53.518" y="4.503" fill="#FFFFFF" width="18.907" height="113.476"/>
		</g>
	</g>
	<g>
		<g>
			<polygon fill="#FFFFFF" points="92.922,4.503 72.425,63.942 92.698,117.979 110.707,117.979 90.448,63.942 110.935,4.503 			"/>
		</g>
	</g>
	<g>
		<g>
			<path fill="#FFFFFF" d="M164.445,4.503v67.092l18.912-67.092h12.006c0,0,2.088,0.561,4.506,3.452
				c1.631,1.941,2.096,4.502,2.096,4.502v105.519h-18.308V61.164l-19.215,56.812h-19.216V12.457c0,0,0.545-2.333,2.908-5.039
				c1.798-2.047,4.603-2.921,4.603-2.921L164.445,4.503L164.445,4.503z"/>
		</g>
	</g>
	<g>
		<g>
			<path fill="#FFFFFF" d="M251.151,93.323c0,0,2.135-0.174,6.128-3.596c4.27-3.661,5.517-7.172,5.517-7.172v-44.13
				c0,0-1.609-4.657-4.669-7.638c-3.021-2.944-6.976-4.67-6.976-4.67h-8.729v-7.434h19.368V4.503h-27.354h-27.361v14.18h19.363
				v7.434h-8.728c0,0-3.957,1.726-6.982,4.67c-3.055,2.981-4.668,7.638-4.668,7.638v44.13c0,0,1.251,3.511,5.521,7.172
				c3.988,3.422,6.132,3.596,6.132,3.596h7.821v8.293h-18.915v16.363h27.817h27.799v-16.363h-18.91v-8.293H251.151z M234.437,77.902
				h-9.501V42.02h9.501h9.492v35.882H234.437z"/>
		</g>
	</g>
	<g>
		<g>
			<rect x="266.514" y="4.503" fill="#FFFFFF" width="18.924" height="113.476"/>
		</g>
	</g>
	<g>
		<g>
			<polygon fill="#FFFFFF" points="305.931,4.503 285.438,63.942 305.7,117.979 323.715,117.979 303.454,63.942 323.935,4.503 			
				"/>
		</g>
	</g>
	<g>
		<g>
			<polygon fill="#FFFFFF" points="141.335,4.503 108.45,4.503 114.762,117.979 135.023,117.979 			"/>
		</g>
	</g>
	<g>
		<g>
			<rect x="108.45" y="135.084" fill="#FFFFFF" width="32.883" height="22.513"/>
		</g>
	</g>
	<g>
		<g>
			<polygon fill="#FFFFFF" points="325.954,117.752 350.282,117.752 345.611,33.819 330.624,33.819 			"/>
		</g>
	</g>
	<g>
		<g>
			<rect x="325.954" y="4.503" fill="#FFFFFF" width="24.323" height="16.651"/>
		</g>
	</g>
	<g>
		<g>
			<g>
				<path fill="#FFFFFF" d="M145.937,137.646h3.854v0.993h-2.638v1.847h2.457v0.999h-2.457v2.834h-1.217V137.646z"/>
			</g>
		</g>
		<g>
			<g>
				<path fill="#FFFFFF" d="M159.083,141.353h-2.519v1.967h2.816v0.997h-4.039v-6.676h3.882v0.998h-2.659v1.729h2.519V141.353
					L159.083,141.353z"/>
			</g>
		</g>
		<g>
			<g>
				<path fill="#FFFFFF" d="M164.789,142.989c0.396,0.228,0.992,0.428,1.615,0.428c0.783,0,1.219-0.366,1.219-0.916
					c0-0.505-0.337-0.799-1.189-1.105c-1.102-0.396-1.809-0.984-1.809-1.943c0-1.091,0.918-1.922,2.362-1.922
					c0.725,0,1.262,0.151,1.604,0.33l-0.3,0.982c-0.232-0.137-0.703-0.319-1.323-0.319c-0.773,0-1.11,0.415-1.11,0.805
					c0,0.512,0.382,0.755,1.27,1.1c1.164,0.438,1.73,1.022,1.73,1.983c0,1.063-0.812,1.997-2.538,1.997
					c-0.698,0-1.438-0.198-1.8-0.413L164.789,142.989z"/>
			</g>
		</g>
		<g>
			<g>
				<path fill="#FFFFFF" d="M175.606,138.664h-1.901v-1.019h5.044v1.019h-1.922v5.654h-1.221V138.664z"/>
			</g>
		</g>
		<g>
			<g>
				<path fill="#FFFFFF" d="M185.115,137.646v6.673h-1.213v-6.673H185.115z"/>
			</g>
		</g>
		<g>
			<g>
				<path fill="#FFFFFF" d="M192.408,144.318l-2.156-6.673h1.323l0.912,3.027c0.256,0.846,0.471,1.626,0.654,2.434h0.021
					c0.18-0.793,0.416-1.603,0.68-2.41l0.972-3.051h1.3l-2.305,6.68L192.408,144.318L192.408,144.318z"/>
			</g>
		</g>
		<g>
			<g>
				<path fill="#FFFFFF" d="M202.002,142.427l-0.58,1.892h-1.26l2.143-6.673h1.56l2.164,6.673h-1.304l-0.605-1.892H202.002z
					 M203.911,141.504l-0.524-1.645c-0.132-0.407-0.236-0.859-0.339-1.242h-0.02c-0.094,0.383-0.195,0.854-0.317,1.242l-0.518,1.645
					H203.911z"/>
			</g>
		</g>
		<g>
			<g>
				<path fill="#FFFFFF" d="M211.332,137.646h1.221v5.65h2.74v1.022h-3.961V137.646z"/>
			</g>
		</g>
		<g>
			<g>
				<path fill="#FFFFFF" d="M228.222,137.646v6.673h-1.219v-6.673H228.222z"/>
			</g>
		</g>
		<g>
			<g>
				<path fill="#FFFFFF" d="M233.991,144.318v-6.673h1.385l1.722,2.861c0.443,0.748,0.835,1.517,1.142,2.239h0.016
					c-0.075-0.889-0.106-1.756-0.106-2.774v-2.326h1.131v6.68h-1.261l-1.743-2.93c-0.422-0.735-0.865-1.56-1.197-2.318l-0.03,0.013
					c0.047,0.865,0.056,1.749,0.056,2.849v2.389L233.991,144.318L233.991,144.318z"/>
			</g>
		</g>
		<g>
			<g>
				<path fill="#FFFFFF" d="M246.332,138.664h-1.9v-1.019h5.036v1.019h-1.922v5.654h-1.214V138.664L246.332,138.664z"/>
			</g>
		</g>
		<g>
			<g>
				<path fill="#FFFFFF" d="M258.357,141.353h-2.519v1.967h2.816v0.997h-4.031v-6.676h3.883v0.998h-2.672v1.729h2.516
					L258.357,141.353L258.357,141.353z"/>
			</g>
		</g>
		<g>
			<g>
				<path fill="#FFFFFF" d="M264.098,137.73c0.455-0.076,1.138-0.137,1.841-0.137c0.967,0,1.619,0.151,2.062,0.529
					c0.366,0.311,0.575,0.775,0.575,1.338c0,0.867-0.584,1.444-1.206,1.675v0.033c0.473,0.18,0.765,0.648,0.925,1.287
					c0.217,0.838,0.394,1.603,0.523,1.864h-1.253c-0.098-0.195-0.26-0.743-0.451-1.572c-0.184-0.871-0.499-1.152-1.197-1.174h-0.614
					v2.746h-1.205V137.73L264.098,137.73z M265.303,140.684h0.729c0.817,0,1.338-0.431,1.338-1.1c0-0.732-0.521-1.073-1.319-1.073
					c-0.386,0-0.635,0.034-0.748,0.062V140.684z"/>
			</g>
		</g>
		<g>
			<g>
				<path fill="#FFFFFF" d="M274.107,144.318v-6.673h1.385l1.722,2.861c0.447,0.748,0.835,1.517,1.138,2.239h0.021
					c-0.076-0.889-0.117-1.756-0.117-2.774v-2.326h1.136v6.68h-1.253l-1.751-2.93c-0.424-0.735-0.867-1.56-1.197-2.318l-0.032,0.013
					c0.045,0.865,0.058,1.749,0.058,2.849v2.389L274.107,144.318L274.107,144.318z"/>
			</g>
		</g>
		<g>
			<g>
				<path fill="#FFFFFF" d="M286.512,142.427l-0.575,1.892h-1.255l2.137-6.673h1.551l2.174,6.673h-1.312l-0.607-1.892H286.512z
					 M288.425,141.504l-0.524-1.645c-0.13-0.407-0.238-0.859-0.336-1.242h-0.018c-0.104,0.383-0.202,0.854-0.317,1.242l-0.518,1.645
					H288.425z"/>
			</g>
		</g>
		<g>
			<g>
				<path fill="#FFFFFF" d="M300.425,144.122c-0.29,0.146-0.925,0.297-1.729,0.297c-2.124,0-3.406-1.323-3.406-3.364
					c0-2.197,1.517-3.521,3.568-3.521c0.799,0,1.375,0.162,1.626,0.303l-0.265,0.968c-0.319-0.135-0.763-0.26-1.312-0.26
					c-1.359,0-2.339,0.854-2.339,2.458c0,1.462,0.86,2.41,2.32,2.41c0.501,0,1.021-0.098,1.331-0.236L300.425,144.122z"/>
			</g>
		</g>
		<g>
			<g>
				<path fill="#FFFFFF" d="M307.049,137.646v6.673h-1.221v-6.673H307.049z"/>
			</g>
		</g>
		<g>
			<g>
				<path fill="#FFFFFF" d="M318.739,140.909c0,2.246-1.359,3.521-3.204,3.521c-1.879,0-3.068-1.44-3.068-3.403
					c0-2.052,1.283-3.5,3.175-3.5C317.587,137.534,318.739,139.009,318.739,140.909z M313.75,141.008
					c0,1.359,0.688,2.438,1.859,2.438c1.177,0,1.848-1.091,1.848-2.491c0-1.261-0.622-2.45-1.848-2.45
					C314.397,138.511,313.75,139.636,313.75,141.008z"/>
			</g>
		</g>
		<g>
			<g>
				<path fill="#FFFFFF" d="M324.16,144.318v-6.673h1.385l1.726,2.861c0.443,0.748,0.831,1.517,1.138,2.239h0.018
					c-0.075-0.889-0.108-1.756-0.108-2.774v-2.326h1.131v6.68h-1.253l-1.753-2.93c-0.42-0.735-0.867-1.56-1.195-2.318l-0.03,0.013
					c0.045,0.865,0.06,1.749,0.06,2.849v2.389L324.16,144.318L324.16,144.318z"/>
			</g>
		</g>
		<g>
			<g>
				<path fill="#FFFFFF" d="M336.561,142.427l-0.577,1.892h-1.26l2.142-6.673h1.556l2.173,6.673h-1.306l-0.607-1.892H336.561z
					 M338.47,141.504l-0.521-1.645c-0.128-0.407-0.236-0.859-0.336-1.242h-0.026c-0.098,0.383-0.191,0.854-0.314,1.242l-0.512,1.645
					H338.47z"/>
			</g>
		</g>
		<g>
			<g>
				<path fill="#FFFFFF" d="M345.891,137.646h1.221v5.65h2.755v1.022h-3.97L345.891,137.646L345.891,137.646z"/>
			</g>
		</g>
		<g>
			<g>
				<path fill="#FFFFFF" d="M145.937,149.619c0.533-0.08,1.217-0.134,1.941-0.134c1.251,0,2.111,0.258,2.721,0.773
					c0.652,0.524,1.044,1.316,1.044,2.454c0,1.193-0.404,2.084-1.044,2.655c-0.656,0.604-1.717,0.912-3.021,0.912
					c-0.714,0-1.246-0.039-1.641-0.09V149.619L145.937,149.619z M147.153,155.278c0.166,0.025,0.424,0.025,0.671,0.025
					c1.592,0.013,2.54-0.864,2.54-2.548c0.004-1.479-0.848-2.322-2.373-2.322c-0.388,0-0.672,0.038-0.836,0.066L147.153,155.278
					L147.153,155.278z"/>
			</g>
		</g>
		<g>
			<g>
				<path fill="#FFFFFF" d="M160.911,153.246h-2.519v1.956h2.812v1.008h-4.033v-6.676h3.884v0.997h-2.663v1.722h2.519V153.246z"/>
			</g>
		</g>
		<g>
			<g>
				<path fill="#FFFFFF" d="M184.562,156.007c-0.29,0.149-0.917,0.299-1.722,0.299c-2.122,0-3.407-1.321-3.407-3.358
					c0-2.198,1.523-3.523,3.564-3.523c0.802,0,1.377,0.166,1.624,0.294l-0.267,0.972c-0.317-0.137-0.754-0.256-1.306-0.256
					c-1.362,0-2.34,0.86-2.34,2.454c0,1.471,0.86,2.41,2.322,2.41c0.499,0,1.012-0.096,1.334-0.249L184.562,156.007z"/>
			</g>
		</g>
		<g>
			<g>
				<path fill="#FFFFFF" d="M191.294,149.534v6.68h-1.223v-6.68H191.294z"/>
			</g>
		</g>
		<g>
			<g>
				<path fill="#FFFFFF" d="M197.155,156.21v-6.676h1.383l1.721,2.861c0.449,0.744,0.839,1.511,1.144,2.235h0.017
					c-0.079-0.891-0.106-1.751-0.106-2.774v-2.322h1.129v6.68h-1.259l-1.742-2.938c-0.417-0.737-0.873-1.56-1.199-2.31l-0.027,0.009
					c0.047,0.865,0.06,1.747,0.06,2.843v2.396L197.155,156.21L197.155,156.21z"/>
			</g>
		</g>
		<g>
			<g>
				<path fill="#FFFFFF" d="M212.048,153.246h-2.508v1.956h2.811v1.008h-4.027v-6.676h3.88v0.997h-2.663v1.722h2.508V153.246
					L212.048,153.246z"/>
			</g>
		</g>
		<g>
			<g>
				<path fill="#FFFFFF" d="M232.134,149.534v3.885c0,1.31,0.545,1.919,1.369,1.919c0.876,0,1.404-0.609,1.404-1.919v-3.885h1.219
					v3.81c0,2.054-1.059,2.973-2.663,2.973c-1.547,0-2.548-0.863-2.548-2.96v-3.822H232.134z"/>
			</g>
		</g>
		<g>
			<g>
				<path fill="#FFFFFF" d="M241.989,156.21v-6.676h1.39l1.726,2.861c0.443,0.744,0.831,1.511,1.143,2.235h0.015
					c-0.075-0.891-0.104-1.751-0.104-2.774v-2.322h1.125v6.68h-1.262l-1.738-2.938c-0.426-0.737-0.874-1.56-1.199-2.31l-0.028,0.009
					c0.047,0.865,0.056,1.747,0.056,2.843v2.396L241.989,156.21L241.989,156.21z"/>
			</g>
		</g>
		<g>
			<g>
				<path fill="#FFFFFF" d="M254.373,149.534v6.68h-1.215v-6.68H254.373z"/>
			</g>
		</g>
		<g>
			<g>
				<path fill="#FFFFFF" d="M261.758,156.21l-2.154-6.676h1.327l0.917,3.03c0.251,0.839,0.477,1.623,0.653,2.433h0.016
					c0.179-0.795,0.417-1.6,0.682-2.409l0.967-3.049h1.309l-2.318,6.677L261.758,156.21L261.758,156.21z"/>
			</g>
		</g>
		<g>
			<g>
				<path fill="#FFFFFF" d="M274.401,153.246h-2.517v1.956h2.814v1.008h-4.035v-6.676h3.886v0.997h-2.672v1.722h2.511v0.993H274.401
					L274.401,153.246z"/>
			</g>
		</g>
		<g>
			<g>
				<path fill="#FFFFFF" d="M280.243,149.619c0.452-0.08,1.138-0.134,1.846-0.134c0.956,0,1.61,0.155,2.058,0.537
					c0.364,0.303,0.573,0.773,0.573,1.331c0,0.865-0.588,1.449-1.21,1.684v0.03c0.473,0.183,0.765,0.643,0.927,1.291
					c0.213,0.831,0.392,1.594,0.528,1.862h-1.26c-0.1-0.201-0.253-0.746-0.444-1.581c-0.186-0.867-0.503-1.15-1.198-1.168h-0.613
					v2.749h-1.206V149.619L280.243,149.619z M281.449,152.575h0.723c0.822,0,1.338-0.439,1.338-1.1c0-0.735-0.514-1.074-1.307-1.074
					c-0.383,0-0.63,0.032-0.761,0.062L281.449,152.575L281.449,152.575z"/>
			</g>
		</g>
		<g>
			<g>
				<path fill="#FFFFFF" d="M290.319,154.882c0.394,0.23,0.982,0.422,1.604,0.422c0.784,0,1.223-0.361,1.223-0.909
					c0-0.505-0.332-0.806-1.185-1.11c-1.1-0.396-1.803-0.982-1.803-1.943c0-1.091,0.91-1.924,2.358-1.924
					c0.721,0,1.258,0.16,1.604,0.333l-0.298,0.978c-0.239-0.132-0.703-0.317-1.33-0.317c-0.771,0-1.112,0.42-1.112,0.806
					c0,0.509,0.391,0.752,1.283,1.102c1.159,0.438,1.726,1.022,1.726,1.979c0,1.067-0.813,2.001-2.54,2.001
					c-0.703,0-1.436-0.196-1.805-0.413L290.319,154.882z"/>
			</g>
		</g>
		<g>
			<g>
				<path fill="#FFFFFF" d="M301.171,149.534v6.68h-1.213v-6.68H301.171z"/>
			</g>
		</g>
		<g>
			<g>
				<path fill="#FFFFFF" d="M308.314,150.549h-1.902v-1.015h5.041v1.015h-1.916v5.661h-1.223V150.549z"/>
			</g>
		</g>
		<g>
			<g>
				<path fill="#FFFFFF" d="M317.32,154.312l-0.57,1.898h-1.266l2.139-6.676h1.556l2.167,6.676h-1.3l-0.609-1.898H317.32z
					 M319.238,153.397l-0.526-1.651c-0.134-0.405-0.24-0.856-0.339-1.246h-0.019c-0.103,0.39-0.207,0.854-0.318,1.246l-0.52,1.651
					H319.238z"/>
			</g>
		</g>
		<g>
			<g>
				<path fill="#FFFFFF" d="M326.751,149.619c0.456-0.08,1.136-0.134,1.845-0.134c0.959,0,1.611,0.155,2.059,0.537
					c0.366,0.303,0.577,0.773,0.577,1.331c0,0.865-0.59,1.449-1.208,1.684v0.03c0.476,0.183,0.759,0.643,0.929,1.291
					c0.209,0.831,0.389,1.594,0.524,1.862h-1.251c-0.108-0.201-0.264-0.746-0.447-1.581c-0.191-0.867-0.509-1.15-1.203-1.168h-0.609
					v2.749h-1.215V149.619L326.751,149.619z M327.966,152.575h0.718c0.826,0,1.34-0.439,1.34-1.1c0-0.735-0.514-1.074-1.318-1.074
					c-0.38,0-0.625,0.032-0.742,0.062L327.966,152.575L327.966,152.575z"/>
			</g>
		</g>
		<g>
			<g>
				<path fill="#FFFFFF" d="M338.077,149.534v6.68h-1.219v-6.68H338.077z"/>
			</g>
		</g>
		<g>
			<g>
				<path fill="#FFFFFF" d="M349.866,152.803c0,2.237-1.359,3.516-3.198,3.516c-1.886,0-3.074-1.437-3.074-3.405
					c0-2.047,1.289-3.494,3.17-3.494C348.716,149.424,349.866,150.894,349.866,152.803z M344.883,152.9
					c0,1.352,0.682,2.438,1.854,2.438c1.181,0,1.837-1.095,1.837-2.501c0-1.251-0.614-2.441-1.837-2.441
					C345.526,150.401,344.883,151.528,344.883,152.9z"/>
			</g>
		</g>
	</g>
</g>
</svg>
