<?xml version="1.0" encoding="utf-8"?>
<!-- Generator: Adobe Illustrator 16.0.0, SVG Export Plug-In . SVG Version: 6.00 Build 0)  -->
<!DOCTYPE svg PUBLIC "-//W3C//DTD SVG 1.1//EN" "http://www.w3.org/Graphics/SVG/1.1/DTD/svg11.dtd">
<svg version="1.1" id="Layer_1" xmlns="http://www.w3.org/2000/svg" xmlns:xlink="http://www.w3.org/1999/xlink" x="0px" y="0px"
	 width="400px" height="253.176px" viewBox="0 0 400 253.176" enable-background="new 0 0 400 253.176" xml:space="preserve">
<g>
	<g>
		<g>
			<path fill="#C40F3D" stroke="#000000" stroke-width="5" stroke-miterlimit="10" d="M308.355,96.871"/>
		</g>
	</g>
	<g>
		<g>
			<g>
				<rect x="125.707" y="178.966" fill="#C40F3D" width="8.666" height="52.012"/>
			</g>
		</g>
		<g>
			<g>
				<polygon fill="#C40F3D" points="143.767,178.966 134.373,206.209 143.665,230.978 151.919,230.978 142.634,206.209 
					152.023,178.966 				"/>
			</g>
		</g>
		<g>
			<g>
				<path fill="#C40F3D" d="M176.55,178.966v30.751l8.668-30.751h5.503c0,0,0.957,0.258,2.065,1.582
					c0.748,0.891,0.961,2.062,0.961,2.062v48.363h-8.391v-26.039l-8.807,26.039h-8.808V182.61c0,0,0.25-1.068,1.333-2.308
					c0.825-0.938,2.11-1.339,2.11-1.339L176.55,178.966L176.55,178.966z"/>
			</g>
		</g>
		<g>
			<g>
				<path fill="#C40F3D" d="M216.291,219.676c0,0,0.979-0.079,2.809-1.647c1.957-1.678,2.528-3.287,2.528-3.287v-20.227
					c0,0-0.737-2.136-2.14-3.502c-1.385-1.35-3.197-2.141-3.197-2.141h-4.001v-3.407h8.877v-6.499H208.63h-12.541v6.499h8.875v3.407
					h-4c0,0-1.813,0.791-3.201,2.141c-1.399,1.366-2.139,3.502-2.139,3.502v20.227c0,0,0.573,1.609,2.53,3.287
					c1.828,1.568,2.811,1.647,2.811,1.647h3.585v3.802h-8.67v7.5h12.75h12.741v-7.5h-8.667v-3.802H216.291z M208.63,212.606h-4.354
					v-16.445h4.354h4.351v16.445H208.63z"/>
			</g>
		</g>
		<g>
			<g>
				<rect x="223.332" y="178.966" fill="#C40F3D" width="8.674" height="52.012"/>
			</g>
		</g>
		<g>
			<g>
				<polygon fill="#C40F3D" points="241.398,178.966 232.006,206.209 241.293,230.978 249.55,230.978 240.264,206.209 
					249.65,178.966 				"/>
			</g>
		</g>
		<g>
			<g>
				<polygon fill="#C40F3D" points="165.957,178.966 150.885,178.966 153.778,230.978 163.064,230.978 				"/>
			</g>
		</g>
		<g>
			<g>
				<rect x="150.885" y="238.815" fill="#C40F3D" width="15.071" height="10.32"/>
			</g>
		</g>
		<g>
			<g>
				<polygon fill="#C40F3D" points="250.576,230.872 261.727,230.872 259.586,192.401 252.717,192.401 				"/>
			</g>
		</g>
		<g>
			<g>
				<rect x="250.576" y="178.966" fill="#C40F3D" width="11.148" height="7.633"/>
			</g>
		</g>
		<g>
			<g>
				<g>
					<path fill="#C40F3D" d="M168.066,239.99h1.767v0.454h-1.209v0.848h1.126v0.458h-1.126v1.299h-0.558V239.99z"/>
				</g>
			</g>
			<g>
				<g>
					<path fill="#C40F3D" d="M174.092,241.688h-1.155v0.901h1.291v0.457h-1.851v-3.06h1.779v0.457h-1.219v0.793h1.155V241.688
						L174.092,241.688z"/>
				</g>
			</g>
			<g>
				<g>
					<path fill="#C40F3D" d="M176.707,242.438c0.181,0.104,0.455,0.197,0.74,0.197c0.36,0,0.559-0.169,0.559-0.421
						c0-0.231-0.154-0.366-0.545-0.507c-0.505-0.182-0.829-0.451-0.829-0.891c0-0.5,0.42-0.881,1.083-0.881
						c0.332,0,0.578,0.07,0.735,0.152l-0.137,0.45c-0.107-0.062-0.323-0.146-0.607-0.146c-0.354,0-0.509,0.19-0.509,0.369
						c0,0.234,0.175,0.346,0.583,0.504c0.532,0.2,0.792,0.469,0.792,0.909c0,0.487-0.372,0.915-1.163,0.915
						c-0.32,0-0.659-0.091-0.825-0.189L176.707,242.438z"/>
				</g>
			</g>
			<g>
				<g>
					<path fill="#C40F3D" d="M181.665,240.457h-0.871v-0.467h2.312v0.467h-0.881v2.592h-0.56V240.457z"/>
				</g>
			</g>
			<g>
				<g>
					<path fill="#C40F3D" d="M186.024,239.99v3.059h-0.556v-3.059H186.024z"/>
				</g>
			</g>
			<g>
				<g>
					<path fill="#C40F3D" d="M189.366,243.049l-0.988-3.059h0.607l0.418,1.388c0.116,0.389,0.215,0.745,0.299,1.115h0.01
						c0.082-0.363,0.19-0.734,0.312-1.104l0.445-1.398h0.596l-1.057,3.06L189.366,243.049L189.366,243.049z"/>
				</g>
			</g>
			<g>
				<g>
					<path fill="#C40F3D" d="M193.763,242.183l-0.265,0.866h-0.578l0.982-3.059h0.715l0.993,3.059h-0.598l-0.277-0.866H193.763z
						 M194.638,241.759l-0.239-0.754c-0.061-0.188-0.109-0.395-0.156-0.568h-0.009c-0.043,0.176-0.09,0.39-0.145,0.568l-0.237,0.754
						H194.638z"/>
				</g>
			</g>
			<g>
				<g>
					<path fill="#C40F3D" d="M198.04,239.99h0.561v2.59h1.255v0.469h-1.816V239.99L198.04,239.99z"/>
				</g>
			</g>
			<g>
				<g>
					<path fill="#C40F3D" d="M205.781,239.99v3.059h-0.559v-3.059H205.781z"/>
				</g>
			</g>
			<g>
				<g>
					<path fill="#C40F3D" d="M208.426,243.049v-3.059h0.635l0.789,1.312c0.203,0.344,0.383,0.695,0.523,1.026h0.007
						c-0.034-0.407-0.049-0.806-0.049-1.271v-1.066h0.519v3.06h-0.578l-0.799-1.343c-0.193-0.337-0.397-0.715-0.549-1.062
						l-0.014,0.006c0.021,0.397,0.025,0.802,0.025,1.306v1.095L208.426,243.049L208.426,243.049z"/>
				</g>
			</g>
			<g>
				<g>
					<path fill="#C40F3D" d="M214.082,240.457h-0.871v-0.467h2.309v0.467h-0.881v2.592h-0.557V240.457L214.082,240.457z"/>
				</g>
			</g>
			<g>
				<g>
					<path fill="#C40F3D" d="M219.594,241.688h-1.154v0.901h1.291v0.457h-1.848v-3.06h1.779v0.457h-1.225v0.793h1.154
						L219.594,241.688L219.594,241.688z"/>
				</g>
			</g>
			<g>
				<g>
					<path fill="#C40F3D" d="M222.225,240.028c0.209-0.034,0.521-0.062,0.844-0.062c0.443,0,0.742,0.069,0.945,0.242
						c0.168,0.142,0.264,0.356,0.264,0.614c0,0.398-0.268,0.662-0.553,0.767v0.015c0.217,0.082,0.35,0.297,0.424,0.59
						c0.099,0.384,0.18,0.734,0.24,0.854h-0.574c-0.045-0.09-0.119-0.341-0.207-0.721c-0.084-0.399-0.229-0.528-0.549-0.538h-0.281
						v1.259h-0.553V240.028L222.225,240.028z M222.777,241.383h0.334c0.375,0,0.613-0.196,0.613-0.504
						c0-0.336-0.238-0.491-0.604-0.491c-0.177,0-0.291,0.016-0.343,0.027V241.383z"/>
				</g>
			</g>
			<g>
				<g>
					<path fill="#C40F3D" d="M226.812,243.049v-3.059h0.635l0.789,1.312c0.205,0.344,0.383,0.695,0.522,1.026h0.009
						c-0.035-0.407-0.053-0.806-0.053-1.271v-1.066h0.521v3.06h-0.575l-0.802-1.343c-0.195-0.337-0.398-0.715-0.549-1.062
						l-0.015,0.006c0.021,0.397,0.026,0.802,0.026,1.306v1.095L226.812,243.049L226.812,243.049z"/>
				</g>
			</g>
			<g>
				<g>
					<path fill="#C40F3D" d="M232.498,242.183l-0.264,0.866h-0.575l0.979-3.059h0.711l0.996,3.059h-0.601l-0.278-0.866H232.498z
						 M233.375,241.759l-0.24-0.754c-0.06-0.188-0.109-0.395-0.154-0.568h-0.008c-0.048,0.176-0.093,0.39-0.146,0.568l-0.237,0.754
						H233.375z"/>
				</g>
			</g>
			<g>
				<g>
					<path fill="#C40F3D" d="M238.875,242.959c-0.133,0.065-0.424,0.136-0.792,0.136c-0.974,0-1.562-0.605-1.562-1.541
						c0-1.008,0.696-1.613,1.636-1.613c0.366,0,0.63,0.074,0.745,0.137l-0.121,0.445c-0.146-0.063-0.35-0.119-0.602-0.119
						c-0.623,0-1.072,0.39-1.072,1.127c0,0.67,0.395,1.103,1.064,1.103c0.229,0,0.467-0.045,0.611-0.11L238.875,242.959z"/>
				</g>
			</g>
			<g>
				<g>
					<path fill="#C40F3D" d="M241.911,239.99v3.059h-0.56v-3.059H241.911z"/>
				</g>
			</g>
			<g>
				<g>
					<path fill="#C40F3D" d="M247.27,241.485c0,1.029-0.623,1.613-1.469,1.613c-0.861,0-1.406-0.66-1.406-1.558
						c0-0.942,0.588-1.604,1.455-1.604C246.741,239.938,247.27,240.615,247.27,241.485z M244.982,241.531
						c0,0.622,0.316,1.116,0.853,1.116c0.539,0,0.847-0.5,0.847-1.14c0-0.579-0.285-1.122-0.847-1.122
						C245.279,240.388,244.982,240.901,244.982,241.531z"/>
				</g>
			</g>
			<g>
				<g>
					<path fill="#C40F3D" d="M249.754,243.049v-3.059h0.635l0.791,1.312c0.203,0.344,0.381,0.695,0.521,1.026h0.008
						c-0.034-0.407-0.05-0.806-0.05-1.271v-1.066h0.519v3.06h-0.574l-0.804-1.343c-0.192-0.337-0.397-0.715-0.548-1.062
						l-0.014,0.006c0.021,0.397,0.027,0.802,0.027,1.306v1.095L249.754,243.049L249.754,243.049z"/>
				</g>
			</g>
			<g>
				<g>
					<path fill="#C40F3D" d="M255.438,242.183l-0.265,0.866h-0.577l0.981-3.059h0.713l0.996,3.059h-0.599l-0.278-0.866H255.438z
						 M256.312,241.759l-0.238-0.754c-0.059-0.188-0.108-0.395-0.154-0.568h-0.012c-0.045,0.176-0.088,0.39-0.145,0.568
						l-0.234,0.754H256.312z"/>
				</g>
			</g>
			<g>
				<g>
					<path fill="#C40F3D" d="M259.714,239.99h0.56v2.59h1.262v0.469h-1.819L259.714,239.99L259.714,239.99z"/>
				</g>
			</g>
			<g>
				<g>
					<path fill="#C40F3D" d="M168.066,245.478c0.244-0.037,0.558-0.062,0.89-0.062c0.573,0,0.968,0.118,1.247,0.354
						c0.299,0.242,0.479,0.604,0.479,1.125c0,0.547-0.186,0.955-0.479,1.217c-0.301,0.277-0.787,0.418-1.384,0.418
						c-0.328,0-0.572-0.018-0.753-0.041V245.478L168.066,245.478z M168.624,248.072c0.076,0.012,0.195,0.012,0.308,0.012
						c0.729,0.006,1.163-0.396,1.163-1.168c0.002-0.679-0.388-1.063-1.087-1.063c-0.178,0-0.308,0.016-0.383,0.029L168.624,248.072
						L168.624,248.072z"/>
				</g>
			</g>
			<g>
				<g>
					<path fill="#C40F3D" d="M174.929,247.142h-1.154v0.896h1.29v0.462h-1.849v-3.061h1.78v0.457h-1.221v0.789h1.154V247.142z"/>
				</g>
			</g>
			<g>
				<g>
					<path fill="#C40F3D" d="M185.77,248.406c-0.133,0.067-0.42,0.137-0.79,0.137c-0.972,0-1.561-0.604-1.561-1.539
						c0-1.008,0.698-1.614,1.634-1.614c0.367,0,0.63,0.075,0.744,0.135l-0.122,0.445c-0.146-0.062-0.346-0.117-0.599-0.117
						c-0.624,0-1.072,0.393-1.072,1.125c0,0.674,0.395,1.104,1.064,1.104c0.229,0,0.464-0.044,0.611-0.114L185.77,248.406z"/>
				</g>
			</g>
			<g>
				<g>
					<path fill="#C40F3D" d="M188.855,245.438v3.061h-0.56v-3.061H188.855z"/>
				</g>
			</g>
			<g>
				<g>
					<path fill="#C40F3D" d="M191.542,248.499v-3.061h0.634l0.789,1.312c0.206,0.341,0.384,0.691,0.524,1.023h0.008
						c-0.036-0.407-0.049-0.803-0.049-1.271v-1.063h0.518v3.06h-0.578l-0.798-1.345c-0.192-0.338-0.4-0.715-0.55-1.059l-0.013,0.004
						c0.022,0.396,0.027,0.801,0.027,1.303v1.097L191.542,248.499L191.542,248.499z"/>
				</g>
			</g>
			<g>
				<g>
					<path fill="#C40F3D" d="M198.368,247.142h-1.149v0.896h1.288v0.462h-1.846v-3.061h1.779v0.457h-1.221v0.789h1.149V247.142
						L198.368,247.142z"/>
				</g>
			</g>
			<g>
				<g>
					<path fill="#C40F3D" d="M207.574,245.438v1.781c0,0.6,0.25,0.879,0.628,0.879c0.401,0,0.644-0.279,0.644-0.879v-1.781h0.559
						v1.746c0,0.941-0.486,1.362-1.221,1.362c-0.709,0-1.168-0.396-1.168-1.356v-1.752H207.574z"/>
				</g>
			</g>
			<g>
				<g>
					<path fill="#C40F3D" d="M212.092,248.499v-3.061h0.637l0.791,1.312c0.203,0.341,0.381,0.691,0.523,1.023h0.007
						c-0.034-0.407-0.048-0.803-0.048-1.271v-1.063h0.516v3.06h-0.578l-0.797-1.345c-0.195-0.338-0.401-0.715-0.55-1.059
						l-0.013,0.004c0.021,0.396,0.025,0.801,0.025,1.303v1.097L212.092,248.499L212.092,248.499z"/>
				</g>
			</g>
			<g>
				<g>
					<path fill="#C40F3D" d="M217.768,245.438v3.061h-0.557v-3.061H217.768z"/>
				</g>
			</g>
			<g>
				<g>
					<path fill="#C40F3D" d="M221.152,248.499l-0.987-3.061h0.608l0.42,1.39c0.115,0.385,0.219,0.744,0.3,1.114h0.007
						c0.082-0.363,0.191-0.732,0.312-1.104l0.444-1.396h0.599l-1.062,3.059L221.152,248.499L221.152,248.499z"/>
				</g>
			</g>
			<g>
				<g>
					<path fill="#C40F3D" d="M226.947,247.142h-1.153v0.896h1.29v0.462h-1.85v-3.061h1.781v0.457h-1.224v0.789h1.151v0.455h0.004
						V247.142z"/>
				</g>
			</g>
			<g>
				<g>
					<path fill="#C40F3D" d="M229.625,245.478c0.207-0.037,0.521-0.062,0.846-0.062c0.438,0,0.738,0.072,0.943,0.246
						c0.167,0.139,0.263,0.354,0.263,0.611c0,0.396-0.27,0.664-0.555,0.771v0.013c0.217,0.084,0.351,0.295,0.425,0.592
						c0.098,0.381,0.18,0.731,0.242,0.854h-0.577c-0.046-0.092-0.116-0.342-0.204-0.725c-0.085-0.397-0.23-0.527-0.549-0.535h-0.281
						v1.26h-0.553V245.478L229.625,245.478z M230.178,246.833h0.331c0.377,0,0.613-0.201,0.613-0.504
						c0-0.337-0.235-0.492-0.599-0.492c-0.176,0-0.289,0.016-0.348,0.028L230.178,246.833L230.178,246.833z"/>
				</g>
			</g>
			<g>
				<g>
					<path fill="#C40F3D" d="M234.243,247.892c0.181,0.104,0.45,0.192,0.735,0.192c0.36,0,0.561-0.166,0.561-0.417
						c0-0.23-0.152-0.369-0.543-0.509c-0.504-0.183-0.826-0.45-0.826-0.892c0-0.5,0.417-0.879,1.081-0.879
						c0.33,0,0.576,0.072,0.735,0.151l-0.137,0.45c-0.109-0.062-0.322-0.146-0.609-0.146c-0.354,0-0.51,0.192-0.51,0.369
						c0,0.234,0.179,0.344,0.588,0.505c0.531,0.201,0.791,0.468,0.791,0.907c0,0.49-0.373,0.917-1.164,0.917
						c-0.322,0-0.658-0.09-0.827-0.19L234.243,247.892z"/>
				</g>
			</g>
			<g>
				<g>
					<path fill="#C40F3D" d="M239.217,245.438v3.061h-0.556v-3.061H239.217z"/>
				</g>
			</g>
			<g>
				<g>
					<path fill="#C40F3D" d="M242.491,245.903h-0.872v-0.465h2.311v0.465h-0.878v2.596h-0.561V245.903z"/>
				</g>
			</g>
			<g>
				<g>
					<path fill="#C40F3D" d="M246.619,247.629l-0.262,0.87h-0.58l0.981-3.061h0.712l0.994,3.061h-0.596l-0.279-0.87H246.619z
						 M247.498,247.21l-0.241-0.757c-0.062-0.187-0.11-0.394-0.155-0.571h-0.009c-0.047,0.18-0.095,0.393-0.146,0.571l-0.238,0.757
						H247.498z"/>
				</g>
			</g>
			<g>
				<g>
					<path fill="#C40F3D" d="M250.941,245.478c0.209-0.037,0.521-0.062,0.846-0.062c0.439,0,0.738,0.072,0.943,0.246
						c0.168,0.139,0.265,0.354,0.265,0.611c0,0.396-0.271,0.664-0.554,0.771v0.013c0.218,0.084,0.348,0.295,0.426,0.592
						c0.096,0.381,0.178,0.731,0.24,0.854h-0.573c-0.05-0.092-0.121-0.342-0.205-0.725c-0.088-0.397-0.233-0.527-0.552-0.535h-0.279
						v1.26h-0.557V245.478L250.941,245.478z M251.498,246.833h0.329c0.379,0,0.614-0.201,0.614-0.504
						c0-0.337-0.235-0.492-0.604-0.492c-0.174,0-0.286,0.016-0.34,0.028L251.498,246.833L251.498,246.833z"/>
				</g>
			</g>
			<g>
				<g>
					<path fill="#C40F3D" d="M256.133,245.438v3.061h-0.559v-3.061H256.133z"/>
				</g>
			</g>
			<g>
				<g>
					<path fill="#C40F3D" d="M261.536,246.937c0,1.025-0.623,1.611-1.466,1.611c-0.864,0-1.409-0.658-1.409-1.561
						c0-0.938,0.591-1.6,1.453-1.6C261.009,245.39,261.536,246.062,261.536,246.937z M259.252,246.981
						c0,0.619,0.312,1.117,0.85,1.117c0.541,0,0.842-0.502,0.842-1.145c0-0.573-0.282-1.119-0.842-1.119
						C259.547,245.837,259.252,246.353,259.252,246.981z"/>
				</g>
			</g>
		</g>
	</g>
	<g>
		<path fill="#C40F3D" d="M115.232,130.697c-14.104,0-24.739-6.661-30.751-19.25c-4.863-10.175-5.586-21.793-5.586-27.812
			c0-8.066,4.537-20.347,13.357-28.854l-3.347-4.965c-11.6,8.76-19.1,22.662-19.1,38.32c0,26.506,21.488,47.995,47.993,47.995
			c9.026,0,17.467-2.496,24.68-6.828l-3.509-5.209C132.81,128.103,125.007,130.697,115.232,130.697z"/>
		<path fill="#C40F3D" d="M115.435,51.673h-0.194c-5.473,0.019-10.238,1.727-14.259,4.409l39.441,58.52
			c8.674-8.363,11.951-20.266,11.951-27.531C152.374,83.45,151.336,51.673,115.435,51.673z"/>
		<path fill="#C40F3D" d="M85.406,83.635c0,5.469,0.643,15.993,4.947,25.007c4.925,10.312,13.297,15.541,24.879,15.541
			c8.249,0,14.849-2.171,20.067-5.53L95.964,60.286C89.048,67.382,85.406,77.279,85.406,83.635z"/>
		<path fill="#C40F3D" d="M165.793,88.135c0-26.506-21.488-47.994-47.995-47.994c-8.516,0-16.505,2.228-23.44,6.115l2.972,4.411
			c4.987-3.34,10.955-5.482,17.891-5.503h0.214c34.296,0,43.448,26.343,43.448,41.907c0,8.735-4.031,23.169-14.76,33.025
			l3.692,5.476C158.772,116.777,165.793,103.279,165.793,88.135z"/>
		<path fill="#C40F3D" d="M146.228,134.868l5.397-3.641l-3.811-5.655c-1.691,1.358-3.472,2.608-5.337,3.729L146.228,134.868z"/>
		<path fill="#C40F3D" d="M91.55,42.088l-5.398,3.64l2.753,4.087c1.73-1.307,3.554-2.491,5.453-3.559L91.55,42.088z"/>
	</g>
	<g>
		<g>
			<rect x="174.421" y="50.232" fill="#C40F3D" width="6.511" height="62.926"/>
		</g>
	</g>
	<g>
		<path fill="#C40F3D" d="M234.658,40.143c-10.256,0-19.751,3.225-27.551,8.705l0.164,4.432c6.145-3.206,17.492-8.036,28.816-7.188
			c10.702,0.803,38.477,9.035,38.477,37.101c0,16.11-6.822,26.511-12.545,32.398c-7.371,7.583-17.381,12.141-27.455,12.5
			c-0.741,0.025-1.473,0.039-2.183,0.039c-16.694,0.002-24.286-7.312-32.86-21.366l5.341-3.257
			c8.974,14.714,15.562,18.829,29.478,18.333c21.265-0.757,33.972-20.245,33.972-38.648c0-10.048-4.217-18.028-12.533-23.719
			c-6.825-4.668-15.125-6.77-20.156-7.147c-14.264-1.085-29.423,8.751-29.573,8.85l-4.636,3.041l-0.379-10.318
			c-8.865,8.708-14.37,20.826-14.37,34.237c0,26.506,21.487,47.997,47.994,47.997c26.506,0,47.993-21.488,47.993-47.997
			C282.652,61.627,261.164,40.143,234.658,40.143z"/>
		<path fill="#C40F3D" d="M206.682,34.975l35.467-1.544l-0.271-6.248l-41.669,1.816l0.829,24.901
			c1.882-1.846,3.913-3.535,6.073-5.052L206.682,34.975z"/>
	</g>
	<path fill="#C40F3D" d="M394.137,190.622c-2.135-7.415-5.5-93.406-7.265-150.055c0.534-3.099,0.715-5.564-1.353-6.859
		c-0.774-0.484-1.692-0.624-2.562-0.421c-2.185,0.17-12.95,0.997-16.604,0.997c-2.516,0-9.104-0.569-11.647-1.019
		c-0.499-0.087-1.55-0.378-2.021-0.149c-0.311,0.149-1.651,1.361-1.651,1.361c-0.199,0.164-20.429,15.997-27.159,21.139
		c-7.79,5.947-30.25,24.432-30.25,26.635c0,1.578,5.509,5.561,9.195,8.048c-0.705,11.819-8.832,31.014-23.365,45.223
		c-8.871,8.672-23.635,18.92-43.904,18.449c-45.024-1.033-105.879-0.055-154.774,0.731c-28.972,0.467-56.614,0.911-67.158,0.603
		c2.464-2.968,6.522-7.404,10.488-11.738c25.99-28.404,50.787-57.446,43.881-73.108c-2.776-6.3-10.112-9.492-21.805-9.492
		c-0.012,0-0.026,0-0.038,0C30.61,60.977,23.668,72.842,23.381,73.35l5.657,3.223c0.051-0.092,5.313-9.089,17.113-9.096
		c0.013,0,0.025,0,0.034,0c6.111,0,13.808,0.977,15.85,5.607c5.767,13.091-26.986,48.883-42.728,66.089
		c-12.67,13.848-14.679,16.271-14.345,19.029c0.127,1.052,0.699,1.984,1.571,2.564c1.144,0.765,3.438,1.147,17.048,1.147
		c10.609,0,28.107-0.233,57.302-0.702c48.841-0.783,109.626-1.76,154.52-0.734c1.828,0.039,3.609-0.006,5.354-0.11
		c1.568-0.013,56.667-0.343,69.501-0.354c3.586,1.688,21.367,10.036,39.077,18.135c30.368,13.888,39.04,17.566,42.285,17.566
		c1.262,0,1.703-0.557,2.28-1.287C394.777,193.315,394.852,191.847,394.137,190.622z M302.01,81.521
		c-0.762-1.219,19.809-17.16,25.819-21.748c5.996-4.58,22.626-16.39,26.882-19.888c2.779,0.292,8.999,0.911,11.646,0.911
		c1.426,0,3.758-0.109,6.269-0.26c-1.479,1.096-2.951,2.191-4.409,3.276c-8.789,6.539-17.879,13.298-26.146,18.829
		c-16.918,11.322-30.139,19.571-34.84,22.241C307.23,84.882,302.668,82.571,302.01,81.521z M310.984,156.76h-0.002l0,0H310.984z
		 M314.216,154.685c-0.059-4.939-0.26-18.102-0.788-31.304c-0.805-20.037-1.869-29.097-3.035-33.387
		c5.565-3.185,19.246-11.196,35.303-21.939c8.398-5.624,17.555-12.435,26.408-19.02c2.75-2.042,5.555-4.13,8.328-6.174
		c0.282,8.834,1.315,40.47,2.61,72.101c1.875,45.84,3.142,64.699,4.103,72.758C374.415,182.651,338.398,166.06,314.216,154.685z"/>
	<g>
		<g>
			<path fill="#C40F3D" d="M219.625,22.016c-4.63,0-7.496-5.064-7.496-9.756c0-3.916,3.871-6.256,7.613-6.256
				c1.605,0,3.133,0.406,4.412,1.175c2.695,1.617,3.652,5.161,3.652,7.705c0,3.041-2.275,6.409-7.361,7.077
				C220.173,21.997,219.896,22.016,219.625,22.016z M219.742,9.684c-1.893,0-3.934,0.984-3.934,2.576
				c0,2.868,1.633,6.075,3.814,6.075c0.109,0,0.227-0.008,0.342-0.023c2.527-0.332,4.159-1.678,4.159-3.429
				c0-1.988-0.783-3.901-1.863-4.55C221.552,9.909,220.682,9.684,219.742,9.684z"/>
		</g>
	</g>
</g>
<g>
	<g>
		<g>
			<path fill="#FFFFFF" stroke="#000000" stroke-width="5" stroke-miterlimit="10" d="M308.355,94.869"/>
		</g>
	</g>
	<g>
		<g>
			<g>
				<rect x="125.707" y="176.964" fill="#FFFFFF" width="8.666" height="52.011"/>
			</g>
		</g>
		<g>
			<g>
				<polygon fill="#FFFFFF" points="143.767,176.964 134.373,204.207 143.665,228.975 151.919,228.975 142.634,204.207 
					152.023,176.964 				"/>
			</g>
		</g>
		<g>
			<g>
				<path fill="#FFFFFF" d="M176.55,176.964v30.751l8.668-30.751h5.503c0,0,0.957,0.257,2.065,1.582
					c0.748,0.89,0.961,2.063,0.961,2.063v48.363h-8.391v-26.039l-8.807,26.039h-8.808v-48.363c0,0,0.25-1.069,1.333-2.309
					c0.825-0.938,2.11-1.339,2.11-1.339L176.55,176.964L176.55,176.964z"/>
			</g>
		</g>
		<g>
			<g>
				<path fill="#FFFFFF" d="M216.291,217.674c0,0,0.979-0.08,2.809-1.648c1.957-1.678,2.528-3.287,2.528-3.287v-20.227
					c0,0-0.737-2.135-2.14-3.501c-1.385-1.35-3.197-2.141-3.197-2.141h-4.001v-3.407h8.877v-6.499H208.63h-12.541v6.499h8.875v3.407
					h-4c0,0-1.814,0.791-3.201,2.141c-1.399,1.366-2.139,3.501-2.139,3.501v20.227c0,0,0.573,1.609,2.53,3.287
					c1.828,1.568,2.811,1.648,2.811,1.648h3.585v3.801h-8.67v7.5h12.75h12.741v-7.5h-8.667v-3.801H216.291z M208.63,210.605h-4.354
					v-16.446h4.354h4.351v16.446H208.63z"/>
			</g>
		</g>
		<g>
			<g>
				<rect x="223.332" y="176.964" fill="#FFFFFF" width="8.674" height="52.011"/>
			</g>
		</g>
		<g>
			<g>
				<polygon fill="#FFFFFF" points="241.398,176.964 232.006,204.207 241.293,228.975 249.55,228.975 240.264,204.207 
					249.65,176.964 				"/>
			</g>
		</g>
		<g>
			<g>
				<polygon fill="#FFFFFF" points="165.957,176.964 150.885,176.964 153.778,228.975 163.064,228.975 				"/>
			</g>
		</g>
		<g>
			<g>
				<rect x="150.885" y="236.814" fill="#FFFFFF" width="15.071" height="10.319"/>
			</g>
		</g>
		<g>
			<g>
				<polygon fill="#FFFFFF" points="250.576,228.87 261.727,228.87 259.586,190.4 252.717,190.4 				"/>
			</g>
		</g>
		<g>
			<g>
				<rect x="250.576" y="176.964" fill="#FFFFFF" width="11.148" height="7.632"/>
			</g>
		</g>
		<g>
			<g>
				<g>
					<path fill="#FFFFFF" d="M168.066,237.988h1.767v0.455h-1.209v0.847h1.126v0.458h-1.126v1.299h-0.558V237.988z"/>
				</g>
			</g>
			<g>
				<g>
					<path fill="#FFFFFF" d="M174.092,239.688h-1.155v0.901h1.291v0.457h-1.851v-3.06h1.779v0.457h-1.219v0.793h1.155V239.688
						L174.092,239.688z"/>
				</g>
			</g>
			<g>
				<g>
					<path fill="#FFFFFF" d="M176.707,240.438c0.181,0.104,0.455,0.196,0.74,0.196c0.36,0,0.559-0.168,0.559-0.42
						c0-0.231-0.154-0.366-0.545-0.507c-0.505-0.182-0.829-0.451-0.829-0.891c0-0.5,0.42-0.881,1.083-0.881
						c0.332,0,0.578,0.07,0.735,0.152l-0.137,0.45c-0.107-0.062-0.323-0.146-0.607-0.146c-0.354,0-0.509,0.19-0.509,0.369
						c0,0.234,0.175,0.346,0.583,0.504c0.532,0.2,0.792,0.469,0.792,0.909c0,0.487-0.372,0.915-1.163,0.915
						c-0.32,0-0.659-0.091-0.825-0.189L176.707,240.438z"/>
				</g>
			</g>
			<g>
				<g>
					<path fill="#FFFFFF" d="M181.665,238.455h-0.871v-0.467h2.312v0.467h-0.881v2.592h-0.56V238.455z"/>
				</g>
			</g>
			<g>
				<g>
					<path fill="#FFFFFF" d="M186.024,237.988v3.059h-0.556v-3.059H186.024z"/>
				</g>
			</g>
			<g>
				<g>
					<path fill="#FFFFFF" d="M189.366,241.047l-0.988-3.059h0.607l0.418,1.388c0.116,0.388,0.215,0.745,0.299,1.115h0.01
						c0.082-0.363,0.19-0.734,0.312-1.104l0.445-1.398h0.596l-1.057,3.061L189.366,241.047L189.366,241.047z"/>
				</g>
			</g>
			<g>
				<g>
					<path fill="#FFFFFF" d="M193.763,240.18l-0.265,0.867h-0.578l0.982-3.059h0.715l0.993,3.059h-0.598l-0.277-0.867H193.763z
						 M194.638,239.757l-0.239-0.754c-0.061-0.187-0.109-0.394-0.156-0.569h-0.009c-0.043,0.176-0.09,0.391-0.145,0.569
						l-0.237,0.754H194.638z"/>
				</g>
			</g>
			<g>
				<g>
					<path fill="#FFFFFF" d="M198.04,237.988h0.56v2.59h1.256v0.469h-1.816V237.988z"/>
				</g>
			</g>
			<g>
				<g>
					<path fill="#FFFFFF" d="M205.781,237.988v3.059h-0.559v-3.059H205.781z"/>
				</g>
			</g>
			<g>
				<g>
					<path fill="#FFFFFF" d="M208.426,241.047v-3.059h0.635l0.789,1.312c0.203,0.343,0.383,0.695,0.523,1.026h0.007
						c-0.034-0.407-0.049-0.805-0.049-1.271v-1.066h0.519v3.061h-0.578l-0.799-1.343c-0.193-0.337-0.397-0.715-0.549-1.062
						l-0.014,0.006c0.021,0.396,0.025,0.801,0.025,1.305v1.095L208.426,241.047L208.426,241.047z"/>
				</g>
			</g>
			<g>
				<g>
					<path fill="#FFFFFF" d="M214.082,238.455h-0.871v-0.467h2.309v0.467h-0.881v2.592h-0.557V238.455L214.082,238.455z"/>
				</g>
			</g>
			<g>
				<g>
					<path fill="#FFFFFF" d="M219.594,239.688h-1.154v0.901h1.291v0.457h-1.848v-3.06h1.779v0.457h-1.225v0.793h1.154
						L219.594,239.688L219.594,239.688z"/>
				</g>
			</g>
			<g>
				<g>
					<path fill="#FFFFFF" d="M222.225,238.027c0.209-0.035,0.521-0.062,0.844-0.062c0.443,0,0.742,0.069,0.945,0.242
						c0.168,0.143,0.264,0.355,0.264,0.613c0,0.398-0.268,0.662-0.553,0.768v0.016c0.217,0.082,0.35,0.297,0.424,0.59
						c0.099,0.383,0.18,0.733,0.24,0.854h-0.574c-0.045-0.09-0.119-0.341-0.207-0.721c-0.084-0.399-0.229-0.528-0.549-0.538h-0.281
						v1.259h-0.553V238.027L222.225,238.027z M222.777,239.381h0.334c0.375,0,0.613-0.197,0.613-0.504
						c0-0.336-0.238-0.492-0.604-0.492c-0.177,0-0.291,0.016-0.343,0.028V239.381z"/>
				</g>
			</g>
			<g>
				<g>
					<path fill="#FFFFFF" d="M226.812,241.047v-3.059h0.635l0.789,1.312c0.205,0.343,0.383,0.695,0.522,1.026h0.009
						c-0.035-0.407-0.053-0.805-0.053-1.271v-1.066h0.521v3.061h-0.575l-0.802-1.343c-0.195-0.337-0.398-0.715-0.549-1.062
						l-0.015,0.006c0.021,0.396,0.026,0.801,0.026,1.305v1.095L226.812,241.047L226.812,241.047z"/>
				</g>
			</g>
			<g>
				<g>
					<path fill="#FFFFFF" d="M232.498,240.18l-0.264,0.867h-0.575l0.979-3.059h0.711l0.996,3.059h-0.601l-0.278-0.867H232.498z
						 M233.375,239.757l-0.24-0.754c-0.06-0.187-0.109-0.394-0.154-0.569h-0.008c-0.048,0.176-0.093,0.391-0.146,0.569l-0.237,0.754
						H233.375z"/>
				</g>
			</g>
			<g>
				<g>
					<path fill="#FFFFFF" d="M238.875,240.957c-0.133,0.066-0.424,0.136-0.792,0.136c-0.974,0-1.562-0.606-1.562-1.542
						c0-1.007,0.696-1.613,1.636-1.613c0.366,0,0.63,0.074,0.745,0.138l-0.121,0.444c-0.146-0.062-0.35-0.119-0.602-0.119
						c-0.623,0-1.072,0.391-1.072,1.127c0,0.67,0.395,1.104,1.064,1.104c0.229,0,0.467-0.045,0.611-0.109L238.875,240.957z"/>
				</g>
			</g>
			<g>
				<g>
					<path fill="#FFFFFF" d="M241.911,237.988v3.059h-0.56v-3.059H241.911z"/>
				</g>
			</g>
			<g>
				<g>
					<path fill="#FFFFFF" d="M247.27,239.484c0,1.029-0.623,1.613-1.469,1.613c-0.861,0-1.406-0.66-1.406-1.559
						c0-0.941,0.588-1.604,1.455-1.604C246.741,237.938,247.27,238.613,247.27,239.484z M244.982,239.529
						c0,0.623,0.316,1.117,0.853,1.117c0.539,0,0.847-0.5,0.847-1.141c0-0.578-0.285-1.123-0.847-1.123
						C245.279,238.385,244.982,238.9,244.982,239.529z"/>
				</g>
			</g>
			<g>
				<g>
					<path fill="#FFFFFF" d="M249.754,241.047v-3.059h0.635l0.791,1.312c0.203,0.343,0.381,0.695,0.521,1.026h0.008
						c-0.034-0.407-0.05-0.805-0.05-1.271v-1.066h0.519v3.061h-0.574l-0.804-1.343c-0.192-0.337-0.397-0.715-0.548-1.062
						l-0.014,0.006c0.021,0.396,0.027,0.801,0.027,1.305v1.095L249.754,241.047L249.754,241.047z"/>
				</g>
			</g>
			<g>
				<g>
					<path fill="#FFFFFF" d="M255.438,240.18l-0.265,0.867h-0.577l0.981-3.059h0.713l0.996,3.059h-0.599l-0.278-0.867H255.438z
						 M256.312,239.757l-0.238-0.754c-0.059-0.187-0.108-0.394-0.154-0.569h-0.012c-0.045,0.176-0.088,0.391-0.145,0.569
						l-0.234,0.754H256.312z"/>
				</g>
			</g>
			<g>
				<g>
					<path fill="#FFFFFF" d="M259.714,237.988h0.56v2.59h1.262v0.469h-1.819L259.714,237.988L259.714,237.988z"/>
				</g>
			</g>
			<g>
				<g>
					<path fill="#FFFFFF" d="M168.066,243.477c0.244-0.037,0.558-0.062,0.89-0.062c0.573,0,0.968,0.118,1.247,0.354
						c0.299,0.241,0.479,0.604,0.479,1.125c0,0.547-0.186,0.955-0.479,1.217c-0.301,0.277-0.787,0.418-1.384,0.418
						c-0.328,0-0.572-0.018-0.753-0.041V243.477L168.066,243.477z M168.624,246.07c0.076,0.012,0.195,0.012,0.308,0.012
						c0.729,0.006,1.163-0.396,1.163-1.168c0.002-0.678-0.388-1.064-1.087-1.064c-0.178,0-0.308,0.017-0.383,0.03L168.624,246.07
						L168.624,246.07z"/>
				</g>
			</g>
			<g>
				<g>
					<path fill="#FFFFFF" d="M174.929,245.139h-1.154v0.896h1.29v0.462h-1.849v-3.06h1.78v0.457h-1.221v0.789h1.154V245.139z"/>
				</g>
			</g>
			<g>
				<g>
					<path fill="#FFFFFF" d="M185.77,246.404c-0.133,0.068-0.42,0.137-0.79,0.137c-0.972,0-1.561-0.605-1.561-1.539
						c0-1.008,0.698-1.615,1.634-1.615c0.367,0,0.63,0.076,0.744,0.135l-0.122,0.445c-0.146-0.062-0.346-0.117-0.599-0.117
						c-0.624,0-1.072,0.394-1.072,1.125c0,0.674,0.395,1.104,1.064,1.104c0.229,0,0.464-0.044,0.611-0.114L185.77,246.404z"/>
				</g>
			</g>
			<g>
				<g>
					<path fill="#FFFFFF" d="M188.855,243.438v3.061h-0.56v-3.061H188.855z"/>
				</g>
			</g>
			<g>
				<g>
					<path fill="#FFFFFF" d="M191.542,246.497v-3.06h0.634l0.789,1.312c0.206,0.341,0.384,0.692,0.524,1.024h0.008
						c-0.036-0.408-0.049-0.803-0.049-1.271v-1.064h0.518v3.061h-0.578l-0.798-1.346c-0.192-0.338-0.4-0.715-0.55-1.059
						l-0.013,0.004c0.022,0.396,0.027,0.801,0.027,1.303v1.098L191.542,246.497L191.542,246.497z"/>
				</g>
			</g>
			<g>
				<g>
					<path fill="#FFFFFF" d="M198.368,245.139h-1.149v0.896h1.288v0.462h-1.846v-3.06h1.779v0.457h-1.221v0.789h1.149V245.139
						L198.368,245.139z"/>
				</g>
			</g>
			<g>
				<g>
					<path fill="#FFFFFF" d="M207.574,243.438v1.78c0,0.601,0.25,0.88,0.628,0.88c0.401,0,0.644-0.279,0.644-0.88v-1.78h0.559v1.746
						c0,0.941-0.486,1.362-1.221,1.362c-0.709,0-1.168-0.396-1.168-1.356v-1.752H207.574z"/>
				</g>
			</g>
			<g>
				<g>
					<path fill="#FFFFFF" d="M212.092,246.497v-3.06h0.637l0.791,1.312c0.203,0.341,0.381,0.692,0.523,1.024h0.007
						c-0.034-0.408-0.048-0.803-0.048-1.271v-1.064h0.516v3.061h-0.578l-0.797-1.346c-0.195-0.338-0.401-0.715-0.55-1.059
						l-0.013,0.004c0.021,0.396,0.025,0.801,0.025,1.303v1.098L212.092,246.497L212.092,246.497z"/>
				</g>
			</g>
			<g>
				<g>
					<path fill="#FFFFFF" d="M217.768,243.438v3.061h-0.557v-3.061H217.768z"/>
				</g>
			</g>
			<g>
				<g>
					<path fill="#FFFFFF" d="M221.152,246.497l-0.987-3.06h0.608l0.42,1.389c0.115,0.385,0.219,0.744,0.3,1.115h0.007
						c0.082-0.364,0.191-0.733,0.312-1.104l0.444-1.397h0.599l-1.062,3.06L221.152,246.497L221.152,246.497z"/>
				</g>
			</g>
			<g>
				<g>
					<path fill="#FFFFFF" d="M226.947,245.139h-1.153v0.896h1.29v0.462h-1.85v-3.06h1.781v0.457h-1.224v0.789h1.151v0.455H226.947
						L226.947,245.139z"/>
				</g>
			</g>
			<g>
				<g>
					<path fill="#FFFFFF" d="M229.625,243.477c0.207-0.037,0.521-0.062,0.846-0.062c0.438,0,0.738,0.072,0.943,0.246
						c0.167,0.139,0.263,0.354,0.263,0.611c0,0.396-0.27,0.664-0.555,0.771v0.013c0.217,0.084,0.351,0.295,0.425,0.592
						c0.098,0.381,0.18,0.731,0.242,0.854h-0.577c-0.046-0.092-0.116-0.342-0.204-0.725c-0.085-0.397-0.23-0.527-0.549-0.535h-0.281
						v1.26h-0.553V243.477L229.625,243.477z M230.178,244.831h0.331c0.377,0,0.613-0.201,0.613-0.504
						c0-0.337-0.235-0.492-0.599-0.492c-0.176,0-0.289,0.015-0.348,0.028L230.178,244.831L230.178,244.831z"/>
				</g>
			</g>
			<g>
				<g>
					<path fill="#FFFFFF" d="M234.243,245.889c0.181,0.105,0.45,0.193,0.735,0.193c0.36,0,0.561-0.166,0.561-0.417
						c0-0.231-0.152-0.369-0.543-0.509c-0.504-0.182-0.826-0.45-0.826-0.891c0-0.5,0.417-0.881,1.081-0.881
						c0.33,0,0.576,0.073,0.735,0.152l-0.137,0.449c-0.109-0.061-0.322-0.146-0.609-0.146c-0.354,0-0.51,0.192-0.51,0.369
						c0,0.233,0.179,0.345,0.588,0.505c0.531,0.201,0.791,0.469,0.791,0.907c0,0.489-0.373,0.917-1.164,0.917
						c-0.322,0-0.658-0.09-0.827-0.189L234.243,245.889z"/>
				</g>
			</g>
			<g>
				<g>
					<path fill="#FFFFFF" d="M239.217,243.438v3.061h-0.556v-3.061H239.217z"/>
				</g>
			</g>
			<g>
				<g>
					<path fill="#FFFFFF" d="M242.491,243.902h-0.872v-0.465h2.311v0.465h-0.878v2.595h-0.561V243.902z"/>
				</g>
			</g>
			<g>
				<g>
					<path fill="#FFFFFF" d="M246.619,245.627l-0.262,0.87h-0.58l0.981-3.06h0.712l0.994,3.06h-0.596l-0.279-0.87H246.619z
						 M247.498,245.208l-0.241-0.757c-0.062-0.186-0.11-0.393-0.155-0.571h-0.009c-0.047,0.179-0.095,0.392-0.146,0.571
						l-0.238,0.757H247.498z"/>
				</g>
			</g>
			<g>
				<g>
					<path fill="#FFFFFF" d="M250.941,243.477c0.209-0.037,0.521-0.062,0.846-0.062c0.439,0,0.738,0.072,0.943,0.246
						c0.168,0.139,0.265,0.354,0.265,0.611c0,0.396-0.271,0.664-0.554,0.771v0.013c0.218,0.084,0.348,0.295,0.426,0.592
						c0.096,0.381,0.178,0.731,0.24,0.854h-0.573c-0.05-0.092-0.121-0.342-0.205-0.725c-0.088-0.397-0.233-0.527-0.552-0.535h-0.279
						v1.26h-0.557V243.477L250.941,243.477z M251.498,244.831h0.329c0.379,0,0.614-0.201,0.614-0.504
						c0-0.337-0.235-0.492-0.604-0.492c-0.174,0-0.286,0.015-0.34,0.028L251.498,244.831L251.498,244.831z"/>
				</g>
			</g>
			<g>
				<g>
					<path fill="#FFFFFF" d="M256.133,243.438v3.061h-0.559v-3.061H256.133z"/>
				</g>
			</g>
			<g>
				<g>
					<path fill="#FFFFFF" d="M261.536,244.936c0,1.025-0.623,1.611-1.466,1.611c-0.864,0-1.409-0.658-1.409-1.561
						c0-0.938,0.591-1.601,1.453-1.601C261.009,243.387,261.536,244.061,261.536,244.936z M259.252,244.98
						c0,0.619,0.312,1.117,0.85,1.117c0.541,0,0.842-0.502,0.842-1.146c0-0.573-0.282-1.119-0.842-1.119
						C259.547,243.835,259.252,244.352,259.252,244.98z"/>
				</g>
			</g>
		</g>
	</g>
	<g>
		<path fill="#FFFFFF" d="M115.232,128.695c-14.104,0-24.739-6.659-30.751-19.248c-4.863-10.175-5.586-21.793-5.586-27.812
			c0-8.066,4.537-20.347,13.357-28.854l-3.347-4.965c-11.6,8.76-19.1,22.662-19.1,38.32c0,26.506,21.488,47.995,47.993,47.995
			c9.026,0,17.467-2.496,24.68-6.828l-3.509-5.209C132.81,126.101,125.007,128.695,115.232,128.695z"/>
		<path fill="#FFFFFF" d="M115.435,49.673h-0.194c-5.473,0.019-10.238,1.727-14.259,4.409l39.441,58.52
			c8.674-8.363,11.951-20.266,11.951-27.531C152.374,81.448,151.336,49.673,115.435,49.673z"/>
		<path fill="#FFFFFF" d="M85.406,81.635c0,5.469,0.643,15.993,4.947,25.007c4.925,10.312,13.297,15.541,24.879,15.541
			c8.249,0,14.849-2.171,20.067-5.53L95.964,58.284C89.048,65.382,85.406,75.279,85.406,81.635z"/>
		<path fill="#FFFFFF" d="M165.793,86.135c0-26.506-21.488-47.994-47.995-47.994c-8.516,0-16.505,2.228-23.44,6.115l2.972,4.411
			c4.987-3.34,10.955-5.482,17.891-5.503h0.214c34.296,0,43.448,26.343,43.448,41.907c0,8.735-4.031,23.169-14.76,33.025
			l3.692,5.476C158.772,114.777,165.793,101.279,165.793,86.135z"/>
		<path fill="#FFFFFF" d="M146.228,132.866l5.397-3.64l-3.811-5.656c-1.691,1.358-3.472,2.608-5.337,3.729L146.228,132.866z"/>
		<path fill="#FFFFFF" d="M91.55,40.088l-5.398,3.64l2.753,4.087c1.73-1.307,3.554-2.491,5.453-3.559L91.55,40.088z"/>
	</g>
	<g>
		<g>
			<rect x="174.421" y="48.232" fill="#FFFFFF" width="6.511" height="62.926"/>
		</g>
	</g>
	<g>
		<path fill="#FFFFFF" d="M234.658,38.141c-10.256,0-19.751,3.225-27.551,8.705l0.164,4.432c6.145-3.206,17.492-8.036,28.816-7.188
			c10.702,0.803,38.477,9.035,38.477,37.101c0,16.11-6.822,26.511-12.545,32.398c-7.371,7.583-17.381,12.14-27.455,12.5
			c-0.741,0.025-1.473,0.039-2.183,0.039c-16.694,0.002-24.286-7.311-32.86-21.366l5.341-3.257
			c8.974,14.714,15.562,18.829,29.478,18.333c21.265-0.757,33.972-20.245,33.972-38.648c0-10.048-4.217-18.028-12.533-23.719
			c-6.825-4.668-15.125-6.77-20.156-7.147c-14.264-1.085-29.423,8.751-29.573,8.85l-4.636,3.041l-0.379-10.318
			c-8.865,8.708-14.37,20.826-14.37,34.237c0,26.506,21.487,47.995,47.994,47.995c26.506,0,47.993-21.488,47.993-47.995
			C282.652,59.627,261.164,38.141,234.658,38.141z"/>
		<path fill="#FFFFFF" d="M206.682,32.973l35.467-1.544l-0.271-6.248l-41.67,1.816l0.829,24.901
			c1.882-1.846,3.913-3.535,6.072-5.052L206.682,32.973z"/>
	</g>
	<path fill="#FFFFFF" d="M394.137,188.62c-2.135-7.415-5.5-93.404-7.265-150.053c0.534-3.099,0.715-5.564-1.353-6.859
		c-0.774-0.484-1.692-0.624-2.562-0.421c-2.185,0.17-12.95,0.997-16.604,0.997c-2.516,0-9.104-0.569-11.647-1.019
		c-0.499-0.087-1.55-0.378-2.021-0.149c-0.311,0.149-1.651,1.361-1.651,1.361c-0.199,0.164-20.429,15.997-27.159,21.139
		c-7.79,5.947-30.25,24.432-30.25,26.635c0,1.578,5.509,5.561,9.195,8.048c-0.705,11.819-8.832,31.014-23.365,45.223
		c-8.871,8.672-23.635,18.92-43.904,18.449c-45.024-1.033-105.879-0.055-154.774,0.731c-28.972,0.467-56.614,0.911-67.158,0.603
		c2.464-2.968,6.522-7.404,10.488-11.738c25.99-28.402,50.787-57.444,43.881-73.106c-2.776-6.3-10.112-9.492-21.805-9.492
		c-0.012,0-0.026,0-0.038,0c-15.535,0.007-22.477,11.874-22.764,12.38l5.657,3.223c0.051-0.092,5.313-9.089,17.113-9.096
		c0.013,0,0.025,0,0.034,0c6.111,0,13.808,0.977,15.85,5.607c5.767,13.091-26.986,48.883-42.728,66.089
		C6.637,151.018,4.628,153.441,4.962,156.2c0.127,1.052,0.699,1.985,1.571,2.565c1.144,0.764,3.438,1.146,17.048,1.146
		c10.609,0,28.107-0.232,57.302-0.702c48.841-0.784,109.626-1.76,154.52-0.733c1.828,0.039,3.609-0.006,5.354-0.111
		c1.568-0.012,56.667-0.342,69.501-0.354c3.586,1.688,21.367,10.035,39.077,18.135c30.368,13.887,39.04,17.565,42.285,17.565
		c1.262,0,1.703-0.558,2.28-1.288C394.777,191.314,394.852,189.844,394.137,188.62z M302.01,79.521
		c-0.762-1.219,19.809-17.16,25.819-21.748c5.996-4.58,22.626-16.39,26.882-19.888c2.779,0.292,8.999,0.911,11.646,0.911
		c1.426,0,3.758-0.109,6.269-0.26c-1.479,1.096-2.951,2.191-4.409,3.276c-8.789,6.539-17.879,13.298-26.146,18.829
		c-16.918,11.322-30.139,19.571-34.84,22.241C307.23,82.882,302.668,80.571,302.01,79.521z M310.984,154.758h-0.002l0,0H310.984z
		 M314.216,152.682c-0.059-4.938-0.26-18.101-0.788-31.303c-0.805-20.037-1.869-29.097-3.035-33.387
		c5.565-3.185,19.246-11.196,35.303-21.939c8.398-5.624,17.555-12.435,26.408-19.02c2.75-2.042,5.555-4.13,8.328-6.174
		c0.282,8.834,1.315,40.47,2.61,72.101c1.875,45.84,3.142,64.697,4.103,72.758C374.415,180.65,338.398,164.057,314.216,152.682z"/>
	<g>
		<g>
			<path fill="#FFFFFF" d="M219.625,20.014c-4.63,0-7.496-5.064-7.496-9.756c0-3.916,3.871-6.256,7.613-6.256
				c1.605,0,3.133,0.406,4.412,1.175c2.695,1.617,3.652,5.161,3.652,7.705c0,3.041-2.275,6.409-7.361,7.077
				C220.173,19.995,219.896,20.014,219.625,20.014z M219.742,7.682c-1.893,0-3.934,0.984-3.934,2.576
				c0,2.868,1.633,6.075,3.814,6.075c0.109,0,0.227-0.008,0.342-0.023c2.527-0.332,4.159-1.678,4.159-3.429
				c0-1.988-0.783-3.901-1.863-4.55C221.552,7.907,220.682,7.682,219.742,7.682z"/>
		</g>
	</g>
</g>
</svg>
