<?xml version="1.0" encoding="utf-8"?>
<!-- Generator: Adobe Illustrator 16.0.0, SVG Export Plug-In . SVG Version: 6.00 Build 0)  -->
<!DOCTYPE svg PUBLIC "-//W3C//DTD SVG 1.1//EN" "http://www.w3.org/Graphics/SVG/1.1/DTD/svg11.dtd">
<svg version="1.1" id="Layer_1" xmlns="http://www.w3.org/2000/svg" xmlns:xlink="http://www.w3.org/1999/xlink" x="0px" y="0px"
	 width="400px" height="253.176px" viewBox="0 0 400 253.176" enable-background="new 0 0 400 253.176" xml:space="preserve">
<g>
	<g>
		<g>
			<path fill="none" stroke="#444444" stroke-width="5" stroke-miterlimit="10" d="M308.355,96.871"/>
		</g>
	</g>
	<g>
		<g>
			<g>
				<polyline fill="none" stroke="#444444" stroke-miterlimit="10" points="126.708,178.966 134.373,178.966 134.373,230.979 
					125.707,230.979 125.707,178.966 				"/>
			</g>
		</g>
		<g>
			<g>
				<polyline fill="none" stroke="#444444" stroke-miterlimit="10" points="143.767,179.967 134.373,206.209 143.665,230.979 
					151.919,230.979 142.634,206.209 152.023,178.966 143.767,178.966 				"/>
			</g>
		</g>
		<g>
			<g>
				<path fill="none" stroke="#444444" stroke-miterlimit="10" d="M176.55,179.967v29.75l8.668-30.751h5.503
					c0,0,0.957,0.259,2.065,1.582c0.748,0.892,0.961,2.062,0.961,2.062v48.363h-8.392v-26.039l-8.807,26.039h-8.808v-48.363
					c0,0,0.25-1.067,1.333-2.308c0.824-0.938,2.109-1.339,2.109-1.339l5.366,0.003l0,0"/>
			</g>
		</g>
		<g>
			<g>
				<path fill="none" stroke="#444444" stroke-miterlimit="10" d="M196.089,179.967v5.498h8.875v3.407h-4
					c0,0-1.813,0.791-3.201,2.142c-1.399,1.365-2.139,3.502-2.139,3.502v20.227c0,0,0.572,1.609,2.529,3.287
					c1.828,1.568,2.812,1.646,2.812,1.646h3.585v3.803h-8.67v7.5h12.75h12.741v-7.5h-8.667v-3.803h3.587
					c0,0,0.979-0.078,2.809-1.646c1.957-1.678,2.528-3.287,2.528-3.287v-20.227c0,0-0.737-2.137-2.141-3.502
					c-1.385-1.351-3.196-2.142-3.196-2.142h-4.001v-3.407h8.877v-6.499H208.63h-12.541 M212.981,197.162v15.443h-4.351h-4.354
					v-16.444h4.354h4.351"/>
			</g>
		</g>
		<g>
			<g>
				<polyline fill="none" stroke="#444444" stroke-miterlimit="10" points="224.333,178.966 232.006,178.966 232.006,230.979 
					223.332,230.979 223.332,178.966 				"/>
			</g>
		</g>
		<g>
			<g>
				<polyline fill="none" stroke="#444444" stroke-miterlimit="10" points="241.398,179.967 232.006,206.209 241.293,230.979 
					249.55,230.979 240.264,206.209 249.65,178.966 241.398,178.966 				"/>
			</g>
		</g>
		<g>
			<g>
				<polyline fill="none" stroke="#444444" stroke-miterlimit="10" points="164.957,178.966 150.885,178.966 153.778,230.979 
					163.064,230.979 165.957,178.966 				"/>
			</g>
		</g>
		<g>
			<g>
				<polyline fill="none" stroke="#444444" stroke-miterlimit="10" points="152.886,238.814 165.956,238.814 165.956,249.135 
					150.885,249.135 150.885,238.814 				"/>
			</g>
		</g>
		<g>
			<g>
				<polyline fill="none" stroke="#444444" stroke-miterlimit="10" points="261.727,229.871 259.586,192.4 252.717,192.4 
					250.576,230.872 261.727,230.872 				"/>
			</g>
		</g>
		<g>
			<g>
				<polyline fill="none" stroke="#444444" stroke-miterlimit="10" points="261.724,179.967 261.724,186.6 250.576,186.6 
					250.576,178.966 261.724,178.966 				"/>
			</g>
		</g>
		<g>
			<g>
				<g>
					<path fill="none" stroke="#444444" stroke-miterlimit="10" d="M168.066,239.99h1.768v0.453h-1.209v0.849h1.126v0.458h-1.126
						v1.299h-0.559V239.99z"/>
				</g>
			</g>
			<g>
				<g>
					<path fill="none" stroke="#444444" stroke-miterlimit="10" d="M174.092,241.688h-1.155v0.901h1.291v0.457h-1.851v-3.06h1.778
						v0.457h-1.219v0.793h1.155V241.688L174.092,241.688z"/>
				</g>
			</g>
			<g>
				<g>
					<path fill="none" stroke="#444444" stroke-miterlimit="10" d="M176.707,242.438c0.181,0.104,0.455,0.197,0.739,0.197
						c0.36,0,0.56-0.169,0.56-0.421c0-0.231-0.154-0.366-0.545-0.507c-0.505-0.182-0.829-0.451-0.829-0.891
						c0-0.5,0.42-0.881,1.083-0.881c0.332,0,0.578,0.069,0.735,0.151l-0.138,0.45c-0.106-0.062-0.322-0.146-0.606-0.146
						c-0.354,0-0.51,0.19-0.51,0.369c0,0.234,0.176,0.346,0.583,0.504c0.532,0.2,0.792,0.469,0.792,0.909
						c0,0.487-0.371,0.915-1.162,0.915c-0.32,0-0.659-0.091-0.825-0.189L176.707,242.438z"/>
				</g>
			</g>
			<g>
				<g>
					<path fill="none" stroke="#444444" stroke-miterlimit="10" d="M181.665,240.457h-0.871v-0.467h2.312v0.467h-0.881v2.592h-0.56
						V240.457z"/>
				</g>
			</g>
			<g>
				<g>
					<path fill="none" stroke="#444444" stroke-miterlimit="10" d="M186.024,239.99v3.059h-0.556v-3.059H186.024z"/>
				</g>
			</g>
			<g>
				<g>
					<path fill="none" stroke="#444444" stroke-miterlimit="10" d="M189.366,243.049l-0.988-3.059h0.606l0.418,1.388
						c0.116,0.39,0.216,0.745,0.3,1.115h0.01c0.082-0.363,0.189-0.734,0.312-1.104l0.445-1.397h0.596l-1.057,3.06L189.366,243.049
						L189.366,243.049z"/>
				</g>
			</g>
			<g>
				<g>
					<path fill="none" stroke="#444444" stroke-miterlimit="10" d="M193.763,242.184l-0.265,0.865h-0.578l0.981-3.059h0.716
						l0.992,3.059h-0.598l-0.277-0.865H193.763z M194.638,241.759l-0.239-0.754c-0.061-0.188-0.108-0.396-0.155-0.567h-0.01
						c-0.043,0.176-0.09,0.39-0.145,0.567l-0.237,0.754H194.638z"/>
				</g>
			</g>
			<g>
				<g>
					<path fill="none" stroke="#444444" stroke-miterlimit="10" d="M198.04,239.99h0.561v2.59h1.255v0.469h-1.815V239.99
						L198.04,239.99z"/>
				</g>
			</g>
			<g>
				<g>
					<path fill="none" stroke="#444444" stroke-miterlimit="10" d="M205.781,239.99v3.059h-0.559v-3.059H205.781z"/>
				</g>
			</g>
			<g>
				<g>
					<path fill="none" stroke="#444444" stroke-miterlimit="10" d="M208.426,243.049v-3.059h0.635l0.789,1.312
						c0.203,0.345,0.383,0.695,0.523,1.026h0.007c-0.034-0.407-0.049-0.807-0.049-1.271v-1.065h0.519v3.06h-0.578l-0.799-1.343
						c-0.193-0.337-0.396-0.715-0.549-1.062l-0.014,0.006c0.021,0.396,0.024,0.802,0.024,1.306v1.095L208.426,243.049
						L208.426,243.049z"/>
				</g>
			</g>
			<g>
				<g>
					<path fill="none" stroke="#444444" stroke-miterlimit="10" d="M214.082,240.457h-0.871v-0.467h2.309v0.467h-0.881v2.592h-0.557
						V240.457L214.082,240.457z"/>
				</g>
			</g>
			<g>
				<g>
					<path fill="none" stroke="#444444" stroke-miterlimit="10" d="M219.594,241.688h-1.154v0.901h1.291v0.457h-1.848v-3.06h1.779
						v0.457h-1.226v0.793h1.154L219.594,241.688L219.594,241.688z"/>
				</g>
			</g>
			<g>
				<g>
					<path fill="none" stroke="#444444" stroke-miterlimit="10" d="M222.225,240.027c0.209-0.033,0.521-0.062,0.844-0.062
						c0.443,0,0.742,0.069,0.945,0.242c0.168,0.142,0.264,0.356,0.264,0.614c0,0.398-0.268,0.662-0.553,0.767v0.015
						c0.217,0.082,0.351,0.297,0.424,0.59c0.1,0.385,0.181,0.734,0.24,0.854h-0.574c-0.045-0.09-0.119-0.341-0.207-0.721
						c-0.084-0.399-0.229-0.528-0.549-0.538h-0.281v1.259h-0.553V240.027L222.225,240.027z M222.777,241.383h0.334
						c0.375,0,0.613-0.195,0.613-0.504c0-0.336-0.238-0.49-0.604-0.49c-0.178,0-0.291,0.016-0.344,0.026V241.383z"/>
				</g>
			</g>
			<g>
				<g>
					<path fill="none" stroke="#444444" stroke-miterlimit="10" d="M226.812,243.049v-3.059h0.635l0.789,1.312
						c0.205,0.345,0.384,0.695,0.522,1.026h0.009c-0.035-0.407-0.053-0.807-0.053-1.271v-1.065h0.521v3.06h-0.574l-0.803-1.343
						c-0.194-0.337-0.397-0.715-0.549-1.062l-0.015,0.006c0.021,0.396,0.025,0.802,0.025,1.306v1.095L226.812,243.049
						L226.812,243.049z"/>
				</g>
			</g>
			<g>
				<g>
					<path fill="none" stroke="#444444" stroke-miterlimit="10" d="M232.498,242.184l-0.265,0.865h-0.574l0.979-3.059h0.711
						l0.996,3.059h-0.601l-0.278-0.865H232.498z M233.375,241.759l-0.24-0.754c-0.06-0.188-0.109-0.396-0.154-0.567h-0.008
						c-0.048,0.176-0.093,0.39-0.146,0.567l-0.237,0.754H233.375z"/>
				</g>
			</g>
			<g>
				<g>
					<path fill="none" stroke="#444444" stroke-miterlimit="10" d="M238.875,242.959c-0.133,0.064-0.424,0.137-0.792,0.137
						c-0.975,0-1.562-0.605-1.562-1.541c0-1.009,0.696-1.613,1.637-1.613c0.365,0,0.63,0.074,0.744,0.137l-0.121,0.445
						c-0.146-0.063-0.35-0.119-0.602-0.119c-0.623,0-1.072,0.39-1.072,1.127c0,0.67,0.396,1.103,1.064,1.103
						c0.229,0,0.467-0.045,0.61-0.11L238.875,242.959z"/>
				</g>
			</g>
			<g>
				<g>
					<path fill="none" stroke="#444444" stroke-miterlimit="10" d="M241.911,239.99v3.059h-0.561v-3.059H241.911z"/>
				</g>
			</g>
			<g>
				<g>
					<path fill="none" stroke="#444444" stroke-miterlimit="10" d="M247.27,241.484c0,1.029-0.623,1.613-1.469,1.613
						c-0.861,0-1.406-0.66-1.406-1.558c0-0.942,0.588-1.604,1.455-1.604C246.741,239.938,247.27,240.615,247.27,241.484z
						 M244.982,241.531c0,0.621,0.316,1.115,0.854,1.115c0.539,0,0.847-0.5,0.847-1.14c0-0.579-0.285-1.122-0.847-1.122
						C245.279,240.389,244.982,240.9,244.982,241.531z"/>
				</g>
			</g>
			<g>
				<g>
					<path fill="none" stroke="#444444" stroke-miterlimit="10" d="M249.754,243.049v-3.059h0.635l0.791,1.312
						c0.203,0.345,0.381,0.695,0.521,1.026h0.008c-0.034-0.407-0.05-0.807-0.05-1.271v-1.065h0.519v3.06h-0.574l-0.804-1.343
						c-0.192-0.337-0.397-0.715-0.548-1.062l-0.015,0.006c0.021,0.396,0.027,0.802,0.027,1.306v1.095L249.754,243.049
						L249.754,243.049z"/>
				</g>
			</g>
			<g>
				<g>
					<path fill="none" stroke="#444444" stroke-miterlimit="10" d="M255.438,242.184l-0.265,0.865h-0.577l0.981-3.059h0.713
						l0.996,3.059h-0.6l-0.277-0.865H255.438z M256.312,241.759l-0.237-0.754c-0.06-0.188-0.108-0.396-0.154-0.567h-0.012
						c-0.046,0.176-0.089,0.39-0.146,0.567l-0.234,0.754H256.312z"/>
				</g>
			</g>
			<g>
				<g>
					<path fill="none" stroke="#444444" stroke-miterlimit="10" d="M259.714,239.99h0.56v2.59h1.263v0.469h-1.819L259.714,239.99
						L259.714,239.99z"/>
				</g>
			</g>
			<g>
				<g>
					<path fill="none" stroke="#444444" stroke-miterlimit="10" d="M168.066,245.479c0.244-0.037,0.559-0.062,0.891-0.062
						c0.572,0,0.968,0.118,1.247,0.354c0.299,0.242,0.479,0.604,0.479,1.125c0,0.547-0.186,0.955-0.479,1.217
						c-0.302,0.277-0.787,0.418-1.385,0.418c-0.327,0-0.571-0.018-0.753-0.041V245.479L168.066,245.479z M168.624,248.072
						c0.076,0.012,0.194,0.012,0.308,0.012c0.729,0.006,1.163-0.396,1.163-1.168c0.002-0.68-0.388-1.062-1.087-1.062
						c-0.178,0-0.308,0.016-0.383,0.028L168.624,248.072L168.624,248.072z"/>
				</g>
			</g>
			<g>
				<g>
					<path fill="none" stroke="#444444" stroke-miterlimit="10" d="M174.929,247.143h-1.154v0.896h1.29v0.462h-1.849v-3.061h1.78
						v0.457h-1.222v0.789h1.154V247.143z"/>
				</g>
			</g>
			<g>
				<g>
					<path fill="none" stroke="#444444" stroke-miterlimit="10" d="M185.77,248.406c-0.133,0.066-0.42,0.137-0.79,0.137
						c-0.972,0-1.561-0.604-1.561-1.539c0-1.008,0.698-1.613,1.634-1.613c0.367,0,0.63,0.074,0.744,0.135l-0.122,0.445
						c-0.146-0.062-0.346-0.117-0.599-0.117c-0.624,0-1.072,0.393-1.072,1.125c0,0.674,0.395,1.104,1.063,1.104
						c0.229,0,0.465-0.044,0.611-0.114L185.77,248.406z"/>
				</g>
			</g>
			<g>
				<g>
					<path fill="none" stroke="#444444" stroke-miterlimit="10" d="M188.855,245.438v3.062h-0.56v-3.062H188.855z"/>
				</g>
			</g>
			<g>
				<g>
					<path fill="none" stroke="#444444" stroke-miterlimit="10" d="M191.542,248.499v-3.062h0.634l0.789,1.312
						c0.206,0.341,0.384,0.691,0.523,1.023h0.009c-0.036-0.407-0.049-0.803-0.049-1.271v-1.062h0.518v3.06h-0.578l-0.798-1.345
						c-0.192-0.338-0.4-0.715-0.55-1.06l-0.014,0.005c0.022,0.396,0.027,0.801,0.027,1.303v1.097H191.542L191.542,248.499z"/>
				</g>
			</g>
			<g>
				<g>
					<path fill="none" stroke="#444444" stroke-miterlimit="10" d="M198.368,247.143h-1.149v0.896h1.288v0.462h-1.846v-3.061h1.778
						v0.457h-1.221v0.789h1.149V247.143L198.368,247.143z"/>
				</g>
			</g>
			<g>
				<g>
					<path fill="none" stroke="#444444" stroke-miterlimit="10" d="M207.574,245.438v1.781c0,0.6,0.25,0.879,0.628,0.879
						c0.4,0,0.644-0.279,0.644-0.879v-1.781h0.559v1.746c0,0.941-0.485,1.362-1.221,1.362c-0.709,0-1.168-0.396-1.168-1.356v-1.752
						H207.574z"/>
				</g>
			</g>
			<g>
				<g>
					<path fill="none" stroke="#444444" stroke-miterlimit="10" d="M212.092,248.499v-3.062h0.637l0.791,1.312
						c0.203,0.341,0.381,0.691,0.523,1.023h0.007c-0.034-0.407-0.048-0.803-0.048-1.271v-1.062h0.516v3.06h-0.578l-0.797-1.345
						c-0.195-0.338-0.4-0.715-0.55-1.06l-0.013,0.005c0.021,0.396,0.024,0.801,0.024,1.303v1.097H212.092L212.092,248.499z"/>
				</g>
			</g>
			<g>
				<g>
					<path fill="none" stroke="#444444" stroke-miterlimit="10" d="M217.768,245.438v3.062h-0.557v-3.062H217.768z"/>
				</g>
			</g>
			<g>
				<g>
					<path fill="none" stroke="#444444" stroke-miterlimit="10" d="M221.152,248.499l-0.986-3.062h0.607l0.42,1.391
						c0.115,0.385,0.22,0.744,0.301,1.113h0.007c0.082-0.362,0.19-0.731,0.312-1.104l0.444-1.396h0.599l-1.062,3.06L221.152,248.499
						L221.152,248.499z"/>
				</g>
			</g>
			<g>
				<g>
					<path fill="none" stroke="#444444" stroke-miterlimit="10" d="M226.947,247.143h-1.152v0.896h1.29v0.462h-1.851v-3.061h1.781
						v0.457h-1.224v0.789h1.15v0.455h0.004L226.947,247.143L226.947,247.143z"/>
				</g>
			</g>
			<g>
				<g>
					<path fill="none" stroke="#444444" stroke-miterlimit="10" d="M229.625,245.479c0.207-0.037,0.521-0.062,0.846-0.062
						c0.438,0,0.738,0.072,0.943,0.246c0.167,0.139,0.263,0.354,0.263,0.611c0,0.396-0.271,0.664-0.555,0.771v0.013
						c0.217,0.084,0.351,0.295,0.425,0.592c0.098,0.381,0.18,0.731,0.242,0.854h-0.577c-0.046-0.092-0.116-0.342-0.204-0.726
						c-0.085-0.396-0.23-0.526-0.549-0.534h-0.281v1.26h-0.553V245.479L229.625,245.479z M230.178,246.833h0.331
						c0.377,0,0.613-0.201,0.613-0.504c0-0.337-0.235-0.492-0.6-0.492c-0.176,0-0.289,0.017-0.348,0.028L230.178,246.833
						L230.178,246.833z"/>
				</g>
			</g>
			<g>
				<g>
					<path fill="none" stroke="#444444" stroke-miterlimit="10" d="M234.243,247.893c0.181,0.104,0.449,0.191,0.734,0.191
						c0.36,0,0.562-0.166,0.562-0.417c0-0.229-0.152-0.369-0.543-0.509c-0.504-0.184-0.826-0.45-0.826-0.893
						c0-0.5,0.417-0.879,1.081-0.879c0.33,0,0.576,0.072,0.734,0.151l-0.137,0.45c-0.108-0.062-0.322-0.146-0.608-0.146
						c-0.354,0-0.511,0.192-0.511,0.369c0,0.234,0.18,0.344,0.588,0.505c0.531,0.201,0.791,0.468,0.791,0.907
						c0,0.49-0.373,0.917-1.164,0.917c-0.321,0-0.657-0.09-0.826-0.19L234.243,247.893z"/>
				</g>
			</g>
			<g>
				<g>
					<path fill="none" stroke="#444444" stroke-miterlimit="10" d="M239.217,245.438v3.062h-0.556v-3.062H239.217z"/>
				</g>
			</g>
			<g>
				<g>
					<path fill="none" stroke="#444444" stroke-miterlimit="10" d="M242.491,245.902h-0.872v-0.465h2.311v0.465h-0.878v2.597h-0.561
						V245.902z"/>
				</g>
			</g>
			<g>
				<g>
					<path fill="none" stroke="#444444" stroke-miterlimit="10" d="M246.619,247.629l-0.263,0.87h-0.58l0.981-3.062h0.712
						l0.994,3.062h-0.596l-0.279-0.87H246.619z M247.498,247.21l-0.241-0.757c-0.062-0.188-0.11-0.395-0.155-0.571h-0.009
						c-0.047,0.181-0.095,0.394-0.146,0.571l-0.237,0.757H247.498z"/>
				</g>
			</g>
			<g>
				<g>
					<path fill="none" stroke="#444444" stroke-miterlimit="10" d="M250.941,245.479c0.209-0.037,0.521-0.062,0.847-0.062
						c0.438,0,0.737,0.072,0.942,0.246c0.168,0.139,0.266,0.354,0.266,0.611c0,0.396-0.271,0.664-0.555,0.771v0.013
						c0.219,0.084,0.349,0.295,0.427,0.592c0.096,0.381,0.178,0.731,0.239,0.854h-0.572c-0.051-0.092-0.121-0.342-0.205-0.726
						c-0.088-0.396-0.233-0.526-0.553-0.534h-0.278v1.26h-0.558V245.479L250.941,245.479z M251.498,246.833h0.329
						c0.379,0,0.613-0.201,0.613-0.504c0-0.337-0.234-0.492-0.604-0.492c-0.174,0-0.286,0.017-0.34,0.028L251.498,246.833
						L251.498,246.833z"/>
				</g>
			</g>
			<g>
				<g>
					<path fill="none" stroke="#444444" stroke-miterlimit="10" d="M256.133,245.438v3.062h-0.559v-3.062H256.133z"/>
				</g>
			</g>
			<g>
				<g>
					<path fill="none" stroke="#444444" stroke-miterlimit="10" d="M261.536,246.938c0,1.024-0.623,1.61-1.467,1.61
						c-0.863,0-1.408-0.657-1.408-1.562c0-0.938,0.591-1.6,1.452-1.6C261.009,245.391,261.536,246.062,261.536,246.938z
						 M259.252,246.98c0,0.619,0.312,1.117,0.85,1.117c0.541,0,0.842-0.502,0.842-1.145c0-0.573-0.281-1.119-0.842-1.119
						C259.547,245.837,259.252,246.354,259.252,246.98z"/>
				</g>
			</g>
		</g>
	</g>
	<g>
		<path fill="none" stroke="#444444" stroke-miterlimit="10" d="M101.982,57.083l38.441,57.52
			c8.674-8.363,11.951-20.266,11.951-27.531c0-3.621-1.038-35.398-36.939-35.398h-0.193c-5.474,0.019-10.238,1.727-14.26,4.409"/>
		<path fill="none" stroke="#444444" stroke-miterlimit="10" d="M95.834,59.588c-6.916,7.096-10.429,17.691-10.429,24.047
			c0,5.469,0.644,15.993,4.947,25.007c4.925,10.312,13.297,15.541,24.879,15.541c8.249,0,14.85-2.171,20.067-5.53L96.685,61.355"/>
		<path fill="none" stroke="#444444" stroke-miterlimit="10" d="M86.334,45.921l5.216-3.833l5.78,8.579
			c4.986-3.34,10.955-5.482,17.891-5.503h0.214c34.296,0,43.448,26.343,43.448,41.907c0,8.735-4.031,23.169-14.76,33.025
			l3.691,5.476l-0.001,0l3.812,5.655l-5.397,3.642l-3.751-5.567l0.001,0.002l-3.509-5.209c-6.159,4.01-13.962,6.604-23.737,6.604
			c-14.104,0-24.738-6.661-30.751-19.25c-4.862-10.175-5.586-21.793-5.586-27.812c0-8.066,4.537-20.347,13.357-28.854l-5.308-7.876"
			/>
	</g>
	<g>
		<g>
			<polyline fill="none" stroke="#444444" stroke-miterlimit="10" points="175.422,50.232 180.932,50.232 180.932,113.158 
				174.421,113.158 174.421,50.232 			"/>
		</g>
	</g>
	<g>
		<path fill="none" stroke="#444444" stroke-miterlimit="10" d="M201.21,28.999l40.668-1.816l0.271,6.248l-35.467,1.544
			l0.589,18.305c6.146-3.206,17.492-8.036,28.816-7.188c10.702,0.803,38.477,9.035,38.477,37.101
			c0,16.11-6.821,26.511-12.545,32.398c-7.371,7.583-17.381,12.142-27.455,12.5c-0.741,0.025-1.473,0.039-2.183,0.039
			c-16.694,0.002-24.286-7.312-32.86-21.366l5.341-3.257c8.975,14.714,15.562,18.829,29.479,18.333
			c21.265-0.757,33.972-20.245,33.972-38.648c0-10.048-4.217-18.028-12.533-23.719c-6.824-4.668-15.125-6.77-20.155-7.147
			c-14.265-1.085-29.423,8.751-29.573,8.85l-4.636,3.041l-1.205-35.218"/>
	</g>
	<path fill="none" stroke="#444444" stroke-miterlimit="10" d="M24.501,73.921l4.537,2.652c0.051-0.092,5.312-9.089,17.112-9.096
		c0.014,0,0.025,0,0.034,0c6.111,0,13.809,0.977,15.851,5.607c5.767,13.091-26.986,48.883-42.729,66.089
		c-12.67,13.849-14.679,16.271-14.345,19.029c0.127,1.052,0.699,1.983,1.571,2.563c1.144,0.766,3.438,1.147,17.048,1.147
		c10.608,0,28.106-0.233,57.302-0.702c48.841-0.783,109.626-1.76,154.52-0.734c1.828,0.039,3.609-0.006,5.354-0.109
		c1.568-0.014,56.667-0.344,69.501-0.354c3.586,1.688,21.367,10.035,39.077,18.135c30.367,13.888,39.04,17.565,42.284,17.565
		c1.263,0,1.703-0.557,2.28-1.287c0.877-1.112,0.952-2.579,0.237-3.805c-2.135-7.415-5.5-93.406-7.266-150.055
		c0.534-3.099,0.716-5.564-1.353-6.859c-0.774-0.484-1.692-0.624-2.562-0.421c-2.185,0.17-12.949,0.997-16.604,0.997
		c-2.516,0-9.104-0.569-11.647-1.019c-0.499-0.087-1.55-0.378-2.021-0.149c-0.312,0.149-1.651,1.361-1.651,1.361
		c-0.199,0.164-20.429,15.997-27.159,21.139c-7.79,5.947-30.249,24.432-30.249,26.635c0,1.578,5.509,5.561,9.194,8.048
		c-0.705,11.819-8.832,31.014-23.364,45.223c-8.871,8.672-23.636,18.92-43.904,18.449c-45.024-1.033-105.879-0.055-154.774,0.731
		c-28.972,0.467-56.613,0.911-67.157,0.603c2.464-2.968,6.521-7.404,10.487-11.738c25.99-28.403,50.787-57.445,43.881-73.107
		c-2.775-6.3-10.111-9.492-21.805-9.492c-0.012,0-0.026,0-0.038,0C30.61,60.977,23.668,72.842,23.381,73.35 M302.01,80.521
		c-0.763-1.219,19.809-16.16,25.818-20.748c5.996-4.58,22.626-16.39,26.883-19.888c2.778,0.292,8.999,0.911,11.646,0.911
		c1.426,0,3.758-0.109,6.27-0.26c-1.479,1.096-2.951,2.191-4.409,3.276c-8.789,6.539-17.879,13.298-26.146,18.829
		c-16.918,11.322-30.139,19.571-34.84,22.241c-0.001,0-4.562-2.311-5.221-3.361 M310.984,156.76h-0.002l0,0H310.984z
		 M311.394,88.994c5.564-3.185,18.245-10.196,34.302-20.938c8.398-5.624,17.556-12.435,26.408-19.02
		c2.75-2.042,5.555-4.13,8.328-6.174c0.282,8.834,1.314,40.47,2.609,72.101c1.875,45.84,3.143,64.699,4.104,72.759
		c-12.73-5.07-48.747-21.66-72.929-33.035c-0.06-4.939-0.261-18.103-0.788-31.305c-0.806-20.037-1.869-29.097-3.035-33.387"/>
	<g>
		<g>
			<path fill="none" stroke="#444444" stroke-miterlimit="10" d="M212.129,11.259c0-3.916,3.871-5.255,7.613-5.255
				c1.604,0,3.133,0.406,4.411,1.175c2.695,1.617,3.652,5.161,3.652,7.705c0,3.041-2.275,6.409-7.361,7.077
				c-0.271,0.036-0.549,0.055-0.819,0.055c-4.63,0-7.496-5.064-7.496-9.756 M215.808,13.26c0,2.868,1.633,5.075,3.814,5.075
				c0.108,0,0.227-0.008,0.342-0.023c2.527-0.332,4.159-1.678,4.159-3.429c0-1.988-0.783-3.901-1.863-4.55
				c-0.708-0.424-1.578-0.649-2.518-0.649c-1.894,0-3.935,0.984-3.935,2.576"/>
		</g>
	</g>
</g>
</svg>
