<?xml version="1.0" encoding="utf-8"?>
<!-- Generator: Adobe Illustrator 16.0.0, SVG Export Plug-In . SVG Version: 6.00 Build 0)  -->
<!DOCTYPE svg PUBLIC "-//W3C//DTD SVG 1.1//EN" "http://www.w3.org/Graphics/SVG/1.1/DTD/svg11.dtd">
<svg version="1.1" id="Layer_1" xmlns="http://www.w3.org/2000/svg" xmlns:xlink="http://www.w3.org/1999/xlink" x="0px" y="0px"
	 width="92px" height="100px" viewBox="0 0 92 100" enable-background="new 0 0 92 100" xml:space="preserve">
<path id="pdf-file-2-icon" fill="#FFCF01" d="M52.396,12.695v19.271H71.69v55.339H14.307V12.695H52.396z M58.013,3.707H5.317v92.586
	h75.362V26.348L58.013,3.707z M64.026,52.682H53.091v15.336h3.777v-6.121h6.203v-3.051h-6.203v-2.906h7.158V52.682L64.026,52.682z
	 M43.639,52.682h-6.65v15.336h6.65c2.234,0,4-0.75,5.249-2.229c2.311-2.737,2.441-8.465-0.263-11.202
	C47.394,53.34,45.67,52.682,43.639,52.682z M40.766,55.939h2.064c1.964,0,3.331,0.721,3.801,2.676
	c0.27,1.111,0.326,2.824-0.085,3.947c-0.532,1.457-1.587,2.195-3.135,2.195h-2.646V55.939L40.766,55.939z M29.358,52.682h-6.94
	v15.336h3.776v-5.312h3.164c2.58,0,4.437-1.159,5.093-3.18c0.394-1.209,0.394-2.48,0-3.678
	C33.789,53.836,31.932,52.682,29.358,52.682z M26.194,55.732h2.272c0.978,0,1.943,0.113,2.397,0.943
	c0.281,0.514,0.281,1.521,0,2.034c-0.454,0.829-1.42,0.942-2.396,0.942h-2.271v-3.92H26.194z"/>
</svg>
