<?xml version="1.0" encoding="utf-8"?>
<!-- Generator: Adobe Illustrator 16.0.0, SVG Export Plug-In . SVG Version: 6.00 Build 0)  -->
<!DOCTYPE svg PUBLIC "-//W3C//DTD SVG 1.1//EN" "http://www.w3.org/Graphics/SVG/1.1/DTD/svg11.dtd">
<svg version="1.1" id="Layer_1" xmlns="http://www.w3.org/2000/svg" xmlns:xlink="http://www.w3.org/1999/xlink" x="0px" y="0px"
	 width="400px" height="300px" viewBox="0 0 400 300" enable-background="new 0 0 400 300" xml:space="preserve">
<g opacity="0.3">
	<g>
		<path d="M263.958,275.166c-3.972-0.629-7.508-0.823-7.508-2.952c0-0.825,0.487-1.696,1.26-2.278
			c0.683-0.529,2.474-0.728,3.683-0.728c1.26,0,2.52,0.632,3.295,1.455c0.482,0.578,1.063,1.502,1.162,2.468h6.44
			c-0.147-2.374-1.162-4.695-3.005-6.004c-1.79-1.307-4.115-2.904-7.311-2.904c-3.05,0-6.057,0.094-8.139,1.646
			c-2.082,1.503-3.58,4.021-3.58,6.2c0,1.26-0.1,2.763,0.387,3.68c0.531,0.924,2.08,2.811,3.293,3.537
			c1.693,0.968,5.666,1.354,7.844,1.936c1.791,0.438,3.972,0.537,4.455,2.325c0.289,1.065-0.049,2.033-1.014,2.665
			c-0.923,0.626-2.328,1.064-3.877,1.064c-1.601,0-3.148-0.484-3.922-1.453c-0.679-0.918-1.066-1.791-1.602-3.195h-6.44
			c0.146,2.952,1.794,5.859,3.828,7.506c1.983,1.602,4.649,2.371,8.039,2.371s6.343-0.58,8.522-2.129
			c2.129-1.548,3.295-4.455,3.295-6.829c0-2.032-0.582-3.631-1.504-4.892C269.673,276.184,266.285,275.507,263.958,275.166z"/>
		<rect x="179.981" y="264.607" width="6.54" height="27.125"/>
		<rect x="179.981" y="256.23" width="6.588" height="6.539"/>
		<path d="M170.44,268.193c-2.42-1.893-5.52-3.197-8.909-3.295c-0.099,0-0.197,0-0.34,0c-7.508,0-13.608,6.104-13.608,13.562
			c0,7.506,6.1,13.656,13.608,13.656c0.144,0,0.242,0,0.34,0c3.389-0.049,6.488-1.404,8.862-3.729l0.047,3.344h6.199V256.23h-6.199
			V268.193z M161.576,286.55h-0.045c-4.456,0-8.088-3.631-8.088-8.089c0-4.409,3.633-8.089,8.088-8.089h0.045
			c4.409,0,8.09,3.632,8.09,8.089C169.667,282.919,165.985,286.55,161.576,286.55z"/>
		<path d="M211.025,268.096c-2.42-1.888-5.521-3.195-8.914-3.291c-0.094,0-0.239,0-0.338,0c-7.505,0-13.654,6.148-13.654,13.604
			c0,7.51,6.149,13.659,13.654,13.659c0.099,0,0.244,0,0.338,0c3.393-0.096,6.445-1.452,8.865-3.78v3.344h6.198v-35.45h-6.198
			L211.025,268.096z M202.111,286.498c-4.452,0-8.132-3.68-8.132-8.135c0-4.407,3.68-8.039,8.132-8.039
			c4.459,0,8.14,3.632,8.14,8.039C210.251,282.818,206.57,286.498,202.111,286.498z"/>
		<path d="M138.864,264.607v2.569c-1.259-1.356-1.837-1.793-3.292-2.327c-1.307-0.48-3.099-0.918-4.844-0.969
			c-0.094,0-0.194,0-0.291,0c-2.084,0-3.922,0.342-5.571,1.018c-1.596,0.679-3.097,1.746-4.454,3.195
			c-1.208,1.26-2.18,2.809-2.906,4.506c-0.628,1.696-0.968,3.438-0.968,5.328c0,4.116,1.355,7.555,4.07,10.219
			c2.663,2.709,6.053,4.115,10.121,4.115c0,0,0,0,0.05,0c1.645,0,3.436-0.486,4.89-1.015c1.452-0.535,2.519-0.97,3.195-1.94v2.469
			l6.295-0.043l-0.047-27.17L138.864,264.607z M130.778,286.109c-0.05,0-0.05,0-0.05,0c-4.456,0-8.042-3.582-8.042-8.037
			c0-4.406,3.586-8.038,8.042-8.038c0,0,0,0,0.05,0c4.406,0,8.039,3.632,8.039,8.038
			C138.817,282.527,135.184,286.109,130.778,286.109z"/>
		<path d="M241.585,264.514l0.049,2.563c-1.259-1.306-1.889-1.743-3.294-2.323c-1.355-0.482-3.098-0.872-4.844-0.915
			c-0.094,0-0.191,0-0.288,0c-2.085,0-3.926,0.336-5.572,0.966c-1.645,0.676-3.146,1.79-4.452,3.196
			c-1.261,1.258-2.229,2.81-2.906,4.554c-0.631,1.643-1.019,3.436-1.019,5.321c0,4.069,1.405,7.508,4.116,10.224
			c2.616,2.661,6.057,4.065,10.121,4.065c1.695,0,3.486-0.433,4.893-1.017c1.454-0.532,2.568-0.972,3.245-1.938v2.471l6.296-0.051
			l-0.098-27.117H241.585L241.585,264.514z M233.496,286.064c-4.455-0.049-8.086-3.633-8.086-8.088c0-4.408,3.631-7.994,8.086-8.041
			c4.458,0,8.089,3.633,8.089,8.041C241.585,282.432,237.954,286.064,233.496,286.064z"/>
	</g>
	<path d="M179.351,213.518h-55.256c16.513,10.221,35.836,16.998,57.824,21.549L179.351,213.518L179.351,213.518z M221.489,213.564
		l-3.296,20.244c22.082-4.07,41.551-10.461,58.455-20.244H221.489L221.489,213.564z M215.143,213.464l-30.366,0.054
		c4.263,8.861,9.684,16.318,15.883,23.44C206.764,229.693,210.833,222.188,215.143,213.464L215.143,213.464z M296.843,200.005
		l-193.283-0.098c-6.441-5.132-10.801-7.798-15.982-14.625h225.488C308.027,190.805,302.27,195.791,296.843,200.005L296.843,200.005
		z M325.66,168.527l-249.804,0.095c-3.339-4.649-7.166-11.188-9.54-16.368h268.885C332.682,158.062,329.29,163.438,325.66,168.527
		L325.66,168.527z M146.904,134.526l-87.222,0.047c-7.99-18.45-13.028-37.484-15.448-61.117
		C89.176,81.448,123.853,99.9,146.904,134.526L146.904,134.526z M236.257,134.674h-71.725
		c-1.598-46.155,11.186-92.988,35.887-121.173C225.509,40.96,238.486,87.598,236.257,134.674L236.257,134.674z M342.561,134.573
		l-88.916,0.051c24.556-34.532,59.812-54.047,105.479-60.975C356.264,96.751,350.938,116.363,342.561,134.573z"/>
</g>
<g>
	<g>
		<path fill="#FFFFFF" d="M260.955,272.163c-3.973-0.629-7.508-0.823-7.508-2.952c0-0.826,0.486-1.697,1.26-2.277
			c0.682-0.531,2.473-0.729,3.682-0.729c1.26,0,2.521,0.632,3.297,1.455c0.481,0.578,1.062,1.502,1.16,2.468h6.441
			c-0.146-2.374-1.162-4.694-3.005-6.004c-1.79-1.306-4.115-2.904-7.31-2.904c-3.051,0-6.058,0.095-8.14,1.646
			c-2.082,1.503-3.58,4.021-3.58,6.199c0,1.261-0.101,2.764,0.388,3.681c0.53,0.924,2.079,2.812,3.293,3.536
			c1.692,0.969,5.664,1.354,7.842,1.937c1.791,0.437,3.973,0.537,4.457,2.325c0.289,1.066-0.051,2.033-1.016,2.665
			c-0.922,0.626-2.326,1.065-3.876,1.065c-1.601,0-3.147-0.485-3.922-1.455c-0.679-0.918-1.065-1.791-1.601-3.194h-6.441
			c0.146,2.952,1.794,5.858,3.828,7.506c1.984,1.601,4.648,2.371,8.039,2.371c3.39,0,6.343-0.58,8.523-2.129
			c2.129-1.548,3.293-4.455,3.293-6.829c0-2.033-0.582-3.631-1.502-4.893C266.67,273.182,263.282,272.504,260.955,272.163z"/>
		<rect x="176.979" y="261.604" fill="#FFFFFF" width="6.54" height="27.125"/>
		<rect x="176.979" y="253.229" fill="#FFFFFF" width="6.588" height="6.539"/>
		<path fill="#FFFFFF" d="M167.438,265.189c-2.42-1.892-5.52-3.196-8.909-3.293c-0.099,0-0.197,0-0.34,0
			c-7.508,0-13.608,6.104-13.608,13.562c0,7.506,6.1,13.656,13.608,13.656c0.144,0,0.242,0,0.34,0
			c3.389-0.05,6.488-1.404,8.862-3.729l0.047,3.344h6.199v-35.502h-6.199V265.189z M158.575,283.547h-0.045
			c-4.456,0-8.088-3.631-8.088-8.089c0-4.409,3.633-8.089,8.088-8.089h0.045c4.409,0,8.09,3.632,8.09,8.089
			C166.665,279.916,162.983,283.547,158.575,283.547z"/>
		<path fill="#FFFFFF" d="M208.023,265.092c-2.422-1.887-5.522-3.195-8.914-3.291c-0.094,0-0.24,0-0.338,0
			c-7.505,0-13.654,6.149-13.654,13.605c0,7.51,6.149,13.658,13.654,13.658c0.098,0,0.245,0,0.338,0
			c3.391-0.096,6.443-1.451,8.865-3.779v3.344h6.197V253.18h-6.197L208.023,265.092z M199.11,283.495
			c-4.453,0-8.133-3.681-8.133-8.136c0-4.406,3.68-8.039,8.133-8.039c4.458,0,8.138,3.633,8.138,8.039
			C207.248,279.814,203.568,283.495,199.11,283.495z"/>
		<path fill="#FFFFFF" d="M135.862,261.604v2.57c-1.259-1.355-1.837-1.793-3.292-2.328c-1.307-0.479-3.099-0.916-4.844-0.968
			c-0.094,0-0.194,0-0.291,0c-2.084,0-3.922,0.341-5.571,1.019c-1.596,0.678-3.097,1.744-4.454,3.194
			c-1.208,1.261-2.18,2.81-2.906,4.505c-0.628,1.697-0.968,3.438-0.968,5.329c0,4.116,1.355,7.554,4.07,10.218
			c2.663,2.711,6.053,4.116,10.121,4.116c0,0,0,0,0.05,0c1.645,0,3.436-0.485,4.89-1.015c1.452-0.535,2.519-0.971,3.195-1.941v2.471
			l6.295-0.045l-0.047-27.168L135.862,261.604z M127.777,283.105c-0.05,0-0.05,0-0.05,0c-4.456,0-8.042-3.582-8.042-8.037
			c0-4.405,3.586-8.037,8.042-8.037c0,0,0,0,0.05,0c4.406,0,8.039,3.632,8.039,8.037
			C135.815,279.523,132.183,283.105,127.777,283.105z"/>
		<path fill="#FFFFFF" d="M238.582,261.511l0.049,2.563c-1.259-1.307-1.889-1.743-3.294-2.323c-1.356-0.483-3.099-0.872-4.844-0.915
			c-0.095,0-0.192,0-0.288,0c-2.085,0-3.926,0.336-5.572,0.965c-1.645,0.678-3.146,1.791-4.453,3.197
			c-1.26,1.258-2.228,2.809-2.906,4.553c-0.629,1.643-1.018,3.436-1.018,5.322c0,4.07,1.405,7.508,4.116,10.223
			c2.616,2.662,6.056,4.066,10.121,4.066c1.696,0,3.487-0.434,4.893-1.016c1.454-0.533,2.568-0.973,3.245-1.938v2.472l6.295-0.052
			l-0.097-27.118L238.582,261.511L238.582,261.511z M230.493,283.062c-4.455-0.051-8.086-3.635-8.086-8.09
			c0-4.406,3.631-7.992,8.086-8.041c4.458,0,8.089,3.635,8.089,8.041C238.582,279.43,234.951,283.062,230.493,283.062z"/>
	</g>
	<path fill="#FFFFFF" d="M176.35,210.514h-55.256c16.513,10.221,35.836,17,57.824,21.551L176.35,210.514L176.35,210.514z
		 M218.486,210.562l-3.295,20.244c22.08-4.07,41.55-10.461,58.453-20.244H218.486L218.486,210.562z M212.139,210.461l-30.363,0.053
		c4.263,8.862,9.684,16.319,15.883,23.441C203.761,226.691,207.83,219.186,212.139,210.461L212.139,210.461z M293.84,197.002
		l-193.282-0.098c-6.441-5.133-10.801-7.797-15.982-14.625h225.486C305.025,187.802,299.266,192.788,293.84,197.002L293.84,197.002z
		 M322.657,165.523l-249.802,0.096c-3.339-4.648-7.166-11.188-9.54-16.367h268.883C329.678,155.061,326.287,160.436,322.657,165.523
		L322.657,165.523z M143.902,131.525l-87.222,0.047c-7.99-18.45-13.028-37.484-15.448-61.117
		C86.174,78.447,120.852,96.898,143.902,131.525L143.902,131.525z M233.254,131.672h-71.723
		c-1.598-46.155,11.186-92.988,35.887-121.173C222.506,37.958,235.484,84.597,233.254,131.672L233.254,131.672z M339.559,131.572
		l-88.916,0.051c24.555-34.532,59.812-54.047,105.478-60.975C353.261,93.75,347.936,113.362,339.559,131.572z"/>
</g>
</svg>
