<?xml version="1.0" encoding="utf-8"?>
<!-- Generator: Adobe Illustrator 16.0.0, SVG Export Plug-In . SVG Version: 6.00 Build 0)  -->
<!DOCTYPE svg PUBLIC "-//W3C//DTD SVG 1.1//EN" "http://www.w3.org/Graphics/SVG/1.1/DTD/svg11.dtd">
<svg version="1.1" id="Layer_1" xmlns="http://www.w3.org/2000/svg" xmlns:xlink="http://www.w3.org/1999/xlink" x="0px" y="0px"
	 width="400px" height="300px" viewBox="0 0 400 300" enable-background="new 0 0 400 300" xml:space="preserve">
<g opacity="0.3">
	<path d="M141.81,140.43c0.011-3.099,0.016-6.191,0.019-9.271l0.005-2.805l150.719-85.478L141.79,43.229V24.155
		c8.218-0.489,8.297-0.299,8.297-2.137c0-1.231-1.957-4.978-12.91-4.978c-10.856,0-12.482,3.747-12.482,4.978
		c0,1.838,0.974,1.643,8.595,2.393l-0.075,18.573H92.523v13.273h40.566l-0.052,13.138c-0.016,3.852-0.034,7.876-0.023,12.039
		l0.075,36.441l-63.267,35.939h63.267v65.41c0.016,3.945,0.029,7.73,0.078,11.317c0.052,5.728,0.177,10.981,0.311,15.648
		c0,0,1.518,48.272,3.865,48.272c2.494,0,4.107-48.282,4.107-48.282c0.132-4.654,0.236-9.558,0.293-15.27
		c0.057-3.688-0.018-7.924,0-11.975l-0.008-65.122h189.384V140.43H141.81z M141.896,69.749l-0.034-13.491h99.967l-99.97,56.7
		l0.049-31.512C141.922,77.402,141.908,73.493,141.896,69.749z M120.546,140.43l12.543-7.15c0,1.942-0.005,5.202,0,7.15H120.546z"/>
</g>
<g>
	<path fill="#FFFFFF" d="M138.808,137.428c0.011-3.099,0.016-6.191,0.019-9.271l0.005-2.805l150.717-85.478l-150.76,0.353V21.154
		c8.218-0.489,8.297-0.299,8.297-2.137c0-1.231-1.957-4.978-12.91-4.978c-10.856,0-12.482,3.747-12.482,4.978
		c0,1.838,0.974,1.643,8.595,2.393l-0.075,18.573H89.522v13.273h40.566l-0.052,13.138c-0.016,3.852-0.034,7.876-0.023,12.039
		l0.075,36.441l-63.267,35.938h63.267v65.41c0.016,3.945,0.029,7.73,0.078,11.317c0.052,5.728,0.177,10.981,0.311,15.648
		c0,0,1.518,48.272,3.865,48.272c2.494,0,4.107-48.282,4.107-48.282c0.132-4.654,0.236-9.558,0.293-15.27
		c0.057-3.688-0.018-7.924,0-11.975l-0.008-65.122h189.383v-13.383H138.808z M138.894,66.747l-0.034-13.491h99.966l-99.969,56.7
		l0.049-31.512C138.92,74.4,138.907,70.491,138.894,66.747z M117.544,137.428l12.543-7.15c0,1.942-0.005,5.202,0,7.15H117.544z"/>
</g>
</svg>
