<?xml version="1.0" encoding="utf-8"?>
<!-- Generator: Adobe Illustrator 16.0.0, SVG Export Plug-In . SVG Version: 6.00 Build 0)  -->
<!DOCTYPE svg PUBLIC "-//W3C//DTD SVG 1.1//EN" "http://www.w3.org/Graphics/SVG/1.1/DTD/svg11.dtd">
<svg version="1.1" id="Layer_1" xmlns="http://www.w3.org/2000/svg" xmlns:xlink="http://www.w3.org/1999/xlink" x="0px" y="0px"
	 width="400px" height="300px" viewBox="0 0 400 300" enable-background="new 0 0 400 300" xml:space="preserve">
<g opacity="0.3">
	<path fill-rule="evenodd" clip-rule="evenodd" d="M110.209,130.338c2.613,1.021,4.606,1.701,6.517,2.562
		c9.105,4.104,14.973,10.729,15.622,21.038c0.724,11.507-4.043,20.485-14.651,24.784c-6.983,2.83-14.832,4.285-22.394,4.758
		c-12.227,0.766-24.537,0.27-36.81,0.149c-1.392-0.013-2.774-1.032-4.162-1.587c1.289-0.833,2.707-1.523,3.835-2.536
		c1.502-1.347,2.911-2.852,4.083-4.485c0.435-0.604,0.096-1.771,0.096-2.679c0.005-26.217-0.027-52.434,0.046-78.649
		c0.012-4.38-0.363-8.013-6.137-7.801c-0.685,0.025-1.423-1.371-2.135-2.108c0.749-0.544,1.505-1.571,2.244-1.558
		c16.488,0.295,33.081-0.316,49.429,1.392c14.917,1.558,22.595,12.102,22.109,26.248c-0.275,7.986-3.715,13.91-10.956,17.466
		C114.915,128.327,112.815,129.18,110.209,130.338z M76.692,135.157c-0.157,1.616-0.368,2.796-0.371,3.976
		c-0.021,10.155,0.147,20.315-0.076,30.464c-0.086,3.937,1.851,5.806,5.191,6.078c8.183,0.666,16.388,0.69,24.177-2.505
		c7.609-3.124,11.783-8.816,11.929-17.125c0.146-8.299-3.777-14.209-11.27-17.602C96.837,134.17,86.848,134.961,76.692,135.157z
		 M76.744,127.2c8.391-0.59,16.134-0.55,23.656-1.817c8.724-1.47,13.457-7.725,13.724-16.216c0.281-8.936-3.848-15.52-12.619-17.501
		c-6.686-1.51-13.758-1.5-20.669-1.638c-1.339-0.026-3.872,2.349-3.911,3.673C76.603,104.437,76.744,115.189,76.744,127.2z"/>
	<path fill-rule="evenodd" clip-rule="evenodd" d="M234.38,136.891c0,12.827-0.025,25.247,0.018,37.666
		c0.011,3.215,1.505,5.021,4.997,5.142c0.937,0.033,1.827,1.361,2.74,2.096c-1.021,0.624-2.031,1.77-3.066,1.791
		c-7.575,0.157-15.156,0.164-22.73,0.009c-1.007-0.021-1.99-1.212-2.984-1.86c0.928-0.721,1.79-1.938,2.795-2.069
		c3.274-0.424,4.328-2.305,4.327-5.29c-0.021-27.738-0.03-55.476-0.025-83.213c0-3.321-1.506-4.988-4.902-5.233
		c-0.782-0.056-1.475-1.368-2.208-2.102c0.742-0.553,1.493-1.598,2.228-1.587c15.735,0.235,31.519-0.067,47.182,1.16
		c9.407,0.738,17.516,5.825,20.88,15.357c4.755,13.478,0.854,25.924-13.342,31.76c-3.067,1.262-6.302,2.119-9.843,3.29
		c0.774,0.839,1.439,1.719,2.256,2.42c11.75,10.101,20.861,22.255,28.401,35.729c1.616,2.887,4.444,5.083,6.624,7.673
		c0.6,0.712,1.361,1.843,1.161,2.517c-0.202,0.678-1.497,1.424-2.336,1.452c-4.392,0.142-8.822,0.37-13.165-0.111
		c-1.438-0.158-3.158-2.098-3.893-3.633c-7.237-15.114-17.313-27.958-29.613-39.322C245.188,136.195,240.452,135.937,234.38,136.891
		z M234.377,128.467c9.977,0.396,19.181,0.51,27.548-4.379c6.799-3.973,10.27-11.308,9.125-18.828
		c-1.191-7.838-5.335-12.717-13.664-14.259c-5.881-1.089-12.018-1.167-18.02-0.986c-1.703,0.051-4.717,2.548-4.77,4.005
		C234.197,105.319,234.377,116.637,234.377,128.467z"/>
	<path fill-rule="evenodd" clip-rule="evenodd" d="M391.166,130.907c-0.399,19.648-5.544,35.292-20.686,46.112
		c-30.345,21.688-72.815,2.833-77.299-34.129c-1.704-14.049-0.45-27.497,6.843-39.925c10.14-17.278,30.004-26.041,50.676-22.462
		c19.733,3.417,35.178,18.464,39.005,38.264C390.591,123.348,390.834,128.053,391.166,130.907z M307.148,130.176
		c0.006,14.287,2.806,24.736,7.46,32.607c12.281,20.777,44.044,20.527,55.262-1.747c9.159-18.19,9.121-36.903,0.422-55.143
		c-5.275-11.062-14.303-17.682-27.252-18.095c-13.634-0.434-23.126,5.81-29.544,17.369
		C308.741,113.732,307.389,123.126,307.148,130.176z"/>
	<path fill-rule="evenodd" clip-rule="evenodd" d="M207.895,98.722c-1.889-1.281-3.469-1.773-3.634-2.562
		c-1.091-5.16-4.959-6.263-9.228-6.331c-10.756-0.168-21.517-0.146-32.273,0.045c-1.084,0.02-3.05,1.701-3.068,2.64
		c-0.215,11.177-0.139,22.359-0.139,34.193c6.006,0,11.555-0.001,17.104,0.001c4.545,0.001,9.092,0.044,13.638-0.007
		c3.598-0.041,6.444-1.033,7.55-5.115c0.293-1.084,2.278-1.71,4.377-3.164c0,8.83,0,16.175,0,23.545
		c-2.516,0.924-4.144,0.835-4.66-2.236c-0.564-3.365-2.96-4.712-6.248-4.709c-9.395,0.007-18.791,0.073-28.183-0.055
		c-2.835-0.039-3.661,1.107-3.64,3.766c0.086,10.909,0.111,21.821-0.009,32.73c-0.038,3.424,1.482,4.52,4.671,4.485
		c10.152-0.104,20.305-0.029,30.456-0.124c6.176-0.058,11.154-2.331,14.256-8.028c0.594-1.09,1.877-1.805,2.841-2.692
		c0.468,0.24,0.936,0.479,1.403,0.719c-1.216,5.504-2.32,11.037-3.785,16.474c-0.194,0.719-2.229,1.335-3.415,1.337
		c-21.367,0.078-42.732,0.085-64.098-0.03c-1.13-0.008-2.255-1.236-3.383-1.896c0.934-0.723,1.797-1.929,2.814-2.076
		c2.838-0.414,3.83-2.117,4.052-4.628c0.12-1.355,0.24-2.715,0.241-4.073c0.014-25.306,0.014-50.612-0.004-75.917
		c0-1.509,0.285-3.277-0.382-4.463c-0.961-1.711-2.644-3.03-4.079-4.455c-0.819-0.812-1.758-1.503-2.644-2.25
		c1.029-0.568,2.001-1.364,3.103-1.642c1.141-0.286,2.409-0.073,3.621-0.073c19.396-0.001,38.792,0.083,58.188-0.08
		c3.592-0.03,4.891,1.009,4.615,4.616C207.681,90.25,207.895,93.872,207.895,98.722z"/>
	<path fill-rule="evenodd" clip-rule="evenodd" d="M23.222,133.255c0.002-13.639-0.067-27.277,0.044-40.915
		c0.033-3.947-0.913-6.497-5.499-6.403c-0.836,0.018-1.696-1.156-2.545-1.78c0.931-0.672,1.851-1.912,2.793-1.929
		c8.332-0.149,16.668-0.145,25,0.01c0.946,0.018,1.87,1.247,2.804,1.914c-0.99,0.63-1.98,1.795-2.972,1.798
		c-4.027,0.011-5.235,2.132-5.23,5.764c0.037,27.428,0.043,54.856-0.014,82.286c-0.008,3.729,1.346,5.655,5.291,5.702
		c0.979,0.013,1.944,1.261,2.915,1.94c-0.954,0.67-1.898,1.907-2.865,1.926c-8.331,0.16-16.667,0.156-25,0.031
		c-0.91-0.015-1.804-1.101-2.705-1.689c0.871-0.771,1.759-2.221,2.61-2.198c4.709,0.119,5.437-2.588,5.409-6.45
		C23.161,159.927,23.221,146.59,23.222,133.255z"/>
	<path fill-rule="evenodd" clip-rule="evenodd" d="M210.711,209.602c-1.471,3.949-2.827,7.947-4.473,11.821
		c-0.573,1.35-1.859,2.396-2.819,3.579c-0.816-1.144-1.905-2.179-2.398-3.446c-1.528-3.925-2.829-7.938-4.553-12.883
		c-0.416,5.234-0.636,9.501-1.175,13.728c-0.126,0.995-1.322,1.854-2.025,2.775c-0.422-0.967-1.243-1.948-1.202-2.895
		c0.255-5.897,0.618-11.792,1.162-17.669c0.1-1.078,1.193-2.063,1.827-3.092c1.205,0.845,3.026,1.429,3.506,2.575
		c1.863,4.452,3.301,9.081,5.229,14.598c1.892-5.204,3.324-9.687,5.199-13.977c0.585-1.341,2.362-2.163,3.595-3.222
		c0.729,1.281,1.957,2.511,2.098,3.854c0.594,5.716,0.939,11.461,1.173,17.206c0.034,0.842-1.024,1.729-1.578,2.597
		c-0.681-0.787-1.866-1.519-1.955-2.367c-0.461-4.355-0.642-8.74-0.918-13.116C211.172,209.646,210.942,209.624,210.711,209.602z"/>
	<path fill-rule="evenodd" clip-rule="evenodd" d="M72.177,213.293c-0.002-2.12,0.234-4.272-0.05-6.354
		c-0.634-4.635,1.622-5.626,5.744-5.588c10.665,0.098,15.771,5.658,13.58,15.219c-1.544,6.737-12.089,11.745-17.979,8.391
		c-0.76-0.434-1.174-1.978-1.236-3.037C72.069,219.054,72.179,216.171,72.177,213.293z M76.017,222
		c1.653,0.112,2.827,0.328,3.979,0.248c5.334-0.371,8.087-3.952,7.802-10.034c-0.229-4.884-3.545-8.058-8.564-7.709
		c-1.125,0.078-3.013,1.586-3.073,2.527C75.85,211.938,76.017,216.872,76.017,222z"/>
	<path fill-rule="evenodd" clip-rule="evenodd" d="M282.246,213.733c-0.048-7.676,3.963-12.324,10.719-12.419
		c6.742-0.093,10.678,4.203,10.744,11.731c0.069,7.792-3.835,12.363-10.646,12.466C286.468,225.611,282.294,221.065,282.246,213.733
		z M285.367,213.643c1.167,2.484,1.862,5.026,3.37,6.92c2.169,2.723,6.369,2.385,8.81-0.241c3.217-3.46,3.087-10.947-0.248-14.199
		c-2.62-2.555-6.565-2.602-8.758,0.376C287.104,208.449,286.495,211.009,285.367,213.643z"/>
	<path fill-rule="evenodd" clip-rule="evenodd" d="M145.534,213.421c0.006-0.905-0.208-1.878,0.044-2.708
		c1.008-3.342-3.179-9.166,4.605-9.315c9.382-0.18,14.5,3.054,14.919,10.091c0.721,12.087-8.116,15.006-17.781,13.581
		c-0.73-0.106-1.619-1.945-1.711-3.04C145.368,219.179,145.528,216.293,145.534,213.421z M149.085,213.684
		c0,1.962-0.307,3.994,0.12,5.857c0.242,1.059,1.585,2.487,2.601,2.642c4.651,0.705,8.588-2.473,9.353-7.154
		c0.86-5.27-1.569-9.259-6.334-10.407c-4.461-1.074-5.685-0.111-5.733,4.535C149.076,210.664,149.089,212.175,149.085,213.684z"/>
	<path fill-rule="evenodd" clip-rule="evenodd" d="M115.539,213.22c-0.002-0.908-0.128-1.834,0.021-2.716
		c0.498-2.919,0.136-6.829,1.881-8.494c2.577-2.455,11.497-0.254,14.385,2.441c6.171,5.765,3.592,17.466-4.428,20.097
		c-9.329,3.062-11.881,1.306-11.858-8.157C115.543,215.332,115.541,214.275,115.539,213.22z M119.093,221.786
		c4.417,1.072,8.446,0.677,10.135-2.846c1.398-2.914,1.89-7.2,0.756-10.083c-0.847-2.148-4.839-3.264-7.63-4.302
		c-0.685-0.255-3.048,1.539-3.111,2.491C118.92,211.96,119.093,216.904,119.093,221.786z"/>
	<path fill-rule="evenodd" clip-rule="evenodd" d="M50.279,210.904c0-2.271-0.168-4.56,0.084-6.802
		c0.099-0.89,1.133-1.673,1.742-2.505c0.629,0.852,1.752,1.678,1.801,2.562c0.209,3.772,0.072,7.562,0.118,11.349
		c0.04,3.347,0.394,6.751,4.798,6.766c4.561,0.017,5.127-3.43,5.177-6.984c0.049-3.634-0.119-7.277,0.13-10.894
		c0.066-0.965,1.306-1.85,2.008-2.772c0.545,0.924,1.526,1.832,1.56,2.775c0.153,4.232,0.278,8.49-0.039,12.706
		c-0.443,5.896-3.854,8.694-9.639,8.421c-5.094-0.24-7.633-3.232-7.749-9.172c-0.036-1.815-0.005-3.632-0.005-5.449
		C50.269,210.904,50.274,210.904,50.279,210.904z"/>
	<path fill-rule="evenodd" clip-rule="evenodd" d="M92.96,224.334c2.387-6.991,4.709-14.006,7.242-20.943
		c0.309-0.847,1.753-1.783,2.654-1.767c0.889,0.018,2.239,1.016,2.556,1.886c2.527,6.938,4.858,13.945,7.24,20.91
		c-3.297,1.857-4.22-0.119-4.76-2.288c-0.689-2.772-1.729-4.345-5.142-4.264c-3.271,0.078-4.46,1.335-5.235,4.242
		c-0.358,1.342-1.989,2.346-3.042,3.501C93.969,225.187,93.465,224.76,92.96,224.334z M102.714,206.233
		c-1.143,3.615-1.891,5.985-2.708,8.569c1.926,0,3.381,0,5.364,0C104.521,212.064,103.781,209.675,102.714,206.233z"/>
	<path fill-rule="evenodd" clip-rule="evenodd" d="M234.981,224.937c1.7-2.944,2.955-5.675,4.719-8.021
		c1.962-2.61,1.797-4.781,0.008-7.341c-1.605-2.298-2.844-4.852-4.577-7.872c6.572-0.681,5.828,5.445,9.006,7.469
		c3.458-1.332,2.406-8.222,8.973-7.462c-1.157,2.122-1.783,3.999-2.995,5.354c-3.775,4.224-3.526,8.17,0.034,12.362
		c1.228,1.444,1.926,3.338,3.21,5.646c-6.548,0.663-5.855-5.663-9.262-7.759C240.49,218.61,241.77,226.04,234.981,224.937z"/>
	<path fill-rule="evenodd" clip-rule="evenodd" d="M354.363,214.275c-0.092,6.961-5.967,12.642-12.922,12.499
		c-6.769-0.14-12.446-5.85-12.478-12.55c-0.033-6.922,5.86-12.811,12.751-12.738C348.734,201.559,354.454,207.343,354.363,214.275z
		 M341.646,204.168c-5.786,0.043-10.06,4.292-10.028,9.97c0.031,5.688,4.39,10.06,10.025,10.055
		c5.753-0.005,9.945-4.243,9.962-10.07C351.62,208.289,347.454,204.127,341.646,204.168z"/>
	<path fill-rule="evenodd" clip-rule="evenodd" d="M223.682,215.203c0,2.119,0,4.339,0,7.146c3.304,0,6.387,0,10.271,0
		c-0.933,1.446-1.242,2.243-1.819,2.71c-0.395,0.318-1.162,0.185-1.764,0.234c-10.67,0.86-10.67,0.859-10.655-9.885
		c0.002-2.425,0-4.848,0.002-7.271c0.012-7.061,0.241-7.314,7.488-6.876c1.969,0.119,3.915,0.603,5.872,0.92
		c-0.055,0.645-0.108,1.289-0.162,1.935c-2.995,0.261-5.989,0.521-9.211,0.802c0,2.066,0,3.959,0,6.114
		c2.879,0.202,5.677,0.396,9.163,0.64C230.593,216.355,226.444,213.04,223.682,215.203z"/>
	<path fill-rule="evenodd" clip-rule="evenodd" d="M38.82,223.745c-1.159,0.542-2.276,1.409-3.487,1.571
		c-4.846,0.648-9.431,0.222-12.546-4.294c-2.617-3.795-2.642-10.687-0.061-14.674c3.062-4.73,7.755-5.432,12.78-4.896
		c1.065,0.114,2.016,1.291,3.02,1.979c-1.092,0.363-2.207,1.099-3.271,1.029c-7.024-0.456-10.879,3.029-10.509,9.704
		c0.297,5.345,3.423,8.229,8.812,8.148c1.599-0.022,3.197-0.003,4.796-0.003C38.51,222.788,38.665,223.267,38.82,223.745z"/>
	<path fill-rule="evenodd" clip-rule="evenodd" d="M263.133,213.521c0.028-8.539,6.733-13.893,15.245-12.032
		c0.903,0.197,1.604,1.316,2.4,2.009c-0.963,0.364-1.944,1.087-2.887,1.036c-6.787-0.36-10.549,2.297-10.837,7.845
		c-0.368,7.076,2.82,10.143,10.119,9.917c1.154-0.035,2.329,0.562,3.493,0.866c-1.086,0.754-2.095,1.998-3.272,2.186
		C268.609,226.741,263.104,222.095,263.133,213.521z"/>
	<path fill-rule="evenodd" clip-rule="evenodd" d="M182.407,202.431c-3.619,4.057-13.292-1.4-9.907,8.706
		c2.622,0.134,5.252,0.267,8.646,0.439c-2.205,4.634-6.058,1.711-8.863,3.446c0,1.934,0,4.239,0,7.239
		c2.375,0,4.734-0.129,7.063,0.072c0.785,0.067,1.496,0.978,2.241,1.501c-0.65,0.47-1.282,1.312-1.954,1.346
		c-3.012,0.149-6.048,0.222-9.047-0.027c-0.802-0.066-2.129-1.35-2.15-2.103c-0.179-6.335-0.148-12.679-0.065-19.018
		c0.009-0.774,0.621-2.152,1.086-2.211C173.472,201.308,177.535,200.875,182.407,202.431z"/>
	<path fill-rule="evenodd" clip-rule="evenodd" d="M258.592,225.566c-0.816-0.868-2.308-1.715-2.339-2.61
		c-0.208-6.331-0.19-12.676-0.03-19.009c0.021-0.804,1.287-1.574,1.977-2.361c0.539,0.738,1.532,1.467,1.544,2.213
		c0.119,7.054,0.071,14.108,0.071,21.164C259.406,225.164,258.999,225.365,258.592,225.566z"/>
	<path fill-rule="evenodd" clip-rule="evenodd" d="M45.762,213.433c0,3.028,0.137,6.067-0.083,9.079
		c-0.066,0.907-1.127,1.74-1.732,2.607c-0.619-0.82-1.752-1.629-1.772-2.465c-0.152-6.205-0.155-12.418,0.002-18.621
		c0.021-0.818,1.212-1.608,1.862-2.411c0.563,0.758,1.566,1.488,1.612,2.276c0.186,3.169,0.077,6.354,0.077,9.534
		C45.74,213.433,45.75,213.433,45.762,213.433z"/>
	<path fill-rule="evenodd" clip-rule="evenodd" d="M346.692,221.487c-2.139-2.361-3.769-4.16-6.133-6.773
		c-0.573,2.162-0.601,2.801-0.896,3.268c-0.609,0.965-1.361,1.839-2.056,2.75c-0.48-0.974-1.228-1.909-1.379-2.933
		c-0.238-1.621-0.258-3.324-0.039-4.948c0.263-1.938,0.551-5.279,1.397-5.469c2.486-0.558,5.285-0.014,7.897,0.457
		c0.712,0.13,1.69,1.523,1.696,2.344C347.205,213.685,346.91,217.189,346.692,221.487z"/>
</g>
<g>
	<path fill-rule="evenodd" clip-rule="evenodd" fill="#FFFFFF" d="M107.208,127.337c2.613,1.021,4.606,1.701,6.517,2.562
		c9.105,4.104,14.973,10.729,15.622,21.037c0.724,11.507-4.043,20.485-14.651,24.784c-6.983,2.83-14.832,4.285-22.394,4.758
		c-12.227,0.766-24.537,0.27-36.81,0.149c-1.392-0.013-2.774-1.032-4.162-1.587c1.289-0.833,2.707-1.523,3.835-2.536
		c1.502-1.347,2.911-2.852,4.083-4.485c0.435-0.604,0.096-1.771,0.096-2.679c0.005-26.216-0.027-52.433,0.046-78.648
		c0.012-4.38-0.363-8.013-6.137-7.801c-0.685,0.025-1.423-1.371-2.135-2.108c0.749-0.544,1.505-1.571,2.244-1.558
		c16.488,0.295,33.081-0.316,49.429,1.392c14.917,1.558,22.595,12.102,22.109,26.248c-0.275,7.986-3.715,13.91-10.956,17.466
		C111.913,125.326,109.813,126.179,107.208,127.337z M73.691,132.155c-0.157,1.616-0.368,2.796-0.371,3.976
		c-0.021,10.155,0.147,20.313-0.076,30.463c-0.086,3.937,1.851,5.806,5.191,6.078c8.183,0.666,16.388,0.69,24.177-2.505
		c7.609-3.124,11.783-8.816,11.929-17.125c0.146-8.297-3.777-14.208-11.27-17.601C93.836,131.169,83.847,131.959,73.691,132.155z
		 M73.743,124.198c8.391-0.59,16.134-0.55,23.656-1.817c8.724-1.47,13.457-7.725,13.724-16.216
		c0.281-8.936-3.848-15.52-12.619-17.501c-6.686-1.51-13.758-1.5-20.669-1.638c-1.339-0.026-3.872,2.349-3.911,3.673
		C73.601,101.435,73.743,112.188,73.743,124.198z"/>
	<path fill-rule="evenodd" clip-rule="evenodd" fill="#FFFFFF" d="M231.377,133.889c0,12.827-0.025,25.246,0.018,37.665
		c0.011,3.215,1.505,5.021,4.997,5.142c0.937,0.033,1.827,1.361,2.74,2.096c-1.021,0.624-2.031,1.77-3.066,1.791
		c-7.575,0.157-15.156,0.164-22.73,0.009c-1.007-0.021-1.99-1.212-2.984-1.86c0.928-0.721,1.79-1.938,2.795-2.069
		c3.274-0.424,4.328-2.305,4.327-5.29c-0.021-27.736-0.03-55.474-0.025-83.212c0-3.321-1.506-4.988-4.902-5.233
		c-0.782-0.056-1.475-1.368-2.208-2.102c0.742-0.553,1.493-1.598,2.228-1.587c15.735,0.235,31.519-0.067,47.182,1.16
		c9.407,0.738,17.516,5.825,20.88,15.357c4.755,13.478,0.854,25.924-13.342,31.76c-3.067,1.262-6.302,2.119-9.843,3.29
		c0.774,0.839,1.439,1.719,2.256,2.42c11.75,10.101,20.861,22.253,28.401,35.727c1.616,2.887,4.444,5.083,6.624,7.673
		c0.6,0.712,1.361,1.843,1.161,2.517c-0.202,0.678-1.497,1.424-2.336,1.452c-4.392,0.142-8.822,0.37-13.165-0.111
		c-1.438-0.158-3.158-2.098-3.893-3.633c-7.237-15.114-17.313-27.957-29.613-39.321
		C242.185,133.193,237.449,132.935,231.377,133.889z M231.374,125.465c9.977,0.396,19.181,0.51,27.548-4.379
		c6.799-3.973,10.27-11.308,9.125-18.828c-1.191-7.838-5.335-12.717-13.664-14.259c-5.881-1.089-12.018-1.167-18.02-0.986
		c-1.703,0.051-4.717,2.548-4.77,4.005C231.194,102.318,231.374,113.636,231.374,125.465z"/>
	<path fill-rule="evenodd" clip-rule="evenodd" fill="#FFFFFF" d="M388.163,127.906c-0.399,19.648-5.544,35.291-20.686,46.111
		c-30.345,21.688-72.815,2.833-77.299-34.127c-1.704-14.049-0.45-27.497,6.843-39.925c10.14-17.278,30.004-26.041,50.676-22.462
		c19.733,3.417,35.178,18.464,39.005,38.264C387.588,120.347,387.831,125.052,388.163,127.906z M304.146,127.175
		c0.006,14.287,2.806,24.734,7.46,32.605c12.281,20.777,44.044,20.527,55.262-1.747c9.159-18.189,9.121-36.901,0.422-55.141
		c-5.275-11.062-14.303-17.682-27.252-18.095c-13.634-0.434-23.126,5.81-29.544,17.369
		C305.738,110.731,304.386,120.125,304.146,127.175z"/>
	<path fill-rule="evenodd" clip-rule="evenodd" fill="#FFFFFF" d="M204.892,95.721c-1.889-1.281-3.469-1.773-3.634-2.562
		c-1.09-5.16-4.958-6.263-9.226-6.331c-10.756-0.168-21.517-0.146-32.273,0.045c-1.084,0.02-3.05,1.701-3.068,2.64
		c-0.215,11.177-0.139,22.359-0.139,34.193c6.006,0,11.555-0.001,17.104,0.001c4.545,0.001,9.092,0.044,13.638-0.007
		c3.598-0.041,6.444-1.033,7.55-5.115c0.293-1.084,2.278-1.71,4.376-3.164c0,8.83,0,16.175,0,23.545
		c-2.516,0.924-4.144,0.835-4.659-2.236c-0.564-3.365-2.96-4.712-6.248-4.709c-9.395,0.007-18.791,0.073-28.183-0.055
		c-2.835-0.039-3.661,1.107-3.64,3.766c0.086,10.909,0.111,21.82-0.009,32.729c-0.038,3.424,1.482,4.52,4.671,4.485
		c10.152-0.104,20.305-0.029,30.456-0.124c6.176-0.058,11.152-2.331,14.255-8.028c0.594-1.09,1.877-1.805,2.841-2.692
		c0.468,0.24,0.936,0.479,1.403,0.719c-1.216,5.504-2.32,11.037-3.785,16.474c-0.194,0.719-2.229,1.335-3.415,1.337
		c-21.365,0.078-42.731,0.085-64.097-0.03c-1.13-0.008-2.255-1.236-3.383-1.896c0.934-0.723,1.797-1.929,2.814-2.076
		c2.838-0.414,3.83-2.117,4.052-4.628c0.12-1.355,0.24-2.715,0.241-4.073c0.014-25.305,0.014-50.61-0.004-75.915
		c0-1.509,0.285-3.277-0.382-4.463c-0.961-1.711-2.644-3.03-4.079-4.455c-0.819-0.812-1.758-1.503-2.644-2.25
		c1.029-0.568,2.001-1.364,3.103-1.642c1.141-0.286,2.409-0.073,3.621-0.073c19.396-0.001,38.792,0.083,58.187-0.08
		c3.592-0.03,4.891,1.009,4.615,4.616C204.678,87.249,204.892,90.87,204.892,95.721z"/>
	<path fill-rule="evenodd" clip-rule="evenodd" fill="#FFFFFF" d="M20.221,130.253c0.002-13.639-0.067-27.277,0.044-40.915
		c0.033-3.947-0.913-6.497-5.499-6.403c-0.836,0.018-1.696-1.156-2.545-1.78c0.931-0.672,1.851-1.912,2.793-1.929
		c8.332-0.149,16.668-0.145,25,0.01c0.946,0.018,1.87,1.247,2.804,1.914c-0.99,0.63-1.98,1.795-2.972,1.798
		c-4.027,0.011-5.235,2.132-5.23,5.764c0.037,27.428,0.043,54.856-0.014,82.284c-0.008,3.729,1.346,5.655,5.291,5.702
		c0.979,0.013,1.944,1.261,2.915,1.94c-0.954,0.67-1.898,1.907-2.865,1.926c-8.331,0.16-16.667,0.156-25,0.031
		c-0.91-0.015-1.804-1.101-2.705-1.689c0.871-0.771,1.759-2.221,2.61-2.198c4.709,0.119,5.437-2.588,5.409-6.45
		C20.159,156.924,20.22,143.588,20.221,130.253z"/>
	<path fill-rule="evenodd" clip-rule="evenodd" fill="#FFFFFF" d="M207.708,206.599c-1.471,3.949-2.827,7.947-4.473,11.821
		c-0.573,1.35-1.859,2.396-2.819,3.579c-0.816-1.144-1.905-2.179-2.398-3.446c-1.528-3.925-2.828-7.938-4.553-12.883
		c-0.416,5.234-0.636,9.501-1.175,13.728c-0.126,0.995-1.322,1.854-2.025,2.775c-0.422-0.967-1.243-1.948-1.202-2.895
		c0.255-5.897,0.618-11.792,1.162-17.669c0.1-1.078,1.193-2.063,1.827-3.092c1.205,0.845,3.026,1.429,3.506,2.575
		c1.863,4.452,3.3,9.081,5.228,14.598c1.892-5.204,3.324-9.687,5.199-13.977c0.585-1.341,2.362-2.163,3.595-3.222
		c0.729,1.281,1.957,2.511,2.098,3.854c0.594,5.716,0.939,11.461,1.173,17.206c0.034,0.842-1.024,1.729-1.578,2.597
		c-0.681-0.787-1.866-1.519-1.955-2.367c-0.461-4.355-0.642-8.74-0.918-13.116C208.169,206.644,207.939,206.621,207.708,206.599z"/>
	<path fill-rule="evenodd" clip-rule="evenodd" fill="#FFFFFF" d="M69.176,210.29c-0.002-2.12,0.234-4.272-0.05-6.354
		c-0.634-4.635,1.622-5.626,5.744-5.588c10.665,0.098,15.771,5.658,13.58,15.219c-1.544,6.737-12.089,11.745-17.979,8.391
		c-0.76-0.434-1.174-1.978-1.236-3.037C69.068,216.051,69.177,213.168,69.176,210.29z M73.015,218.997
		c1.653,0.112,2.827,0.328,3.979,0.248c5.334-0.371,8.087-3.952,7.802-10.034c-0.229-4.884-3.545-8.058-8.564-7.709
		c-1.125,0.078-3.013,1.586-3.073,2.527C72.849,208.935,73.015,213.869,73.015,218.997z"/>
	<path fill-rule="evenodd" clip-rule="evenodd" fill="#FFFFFF" d="M279.243,210.73c-0.048-7.676,3.963-12.324,10.719-12.419
		c6.742-0.093,10.678,4.203,10.744,11.731c0.069,7.792-3.835,12.363-10.646,12.466C283.465,222.608,279.291,218.062,279.243,210.73z
		 M282.364,210.64c1.167,2.484,1.862,5.026,3.37,6.92c2.169,2.723,6.369,2.385,8.81-0.241c3.217-3.46,3.087-10.947-0.248-14.199
		c-2.62-2.555-6.565-2.602-8.758,0.376C284.102,205.446,283.492,208.006,282.364,210.64z"/>
	<path fill-rule="evenodd" clip-rule="evenodd" fill="#FFFFFF" d="M142.533,210.418c0.006-0.905-0.208-1.878,0.044-2.708
		c1.008-3.342-3.179-9.166,4.605-9.315c9.382-0.18,14.5,3.054,14.919,10.091c0.721,12.087-8.116,15.006-17.781,13.581
		c-0.73-0.106-1.619-1.945-1.711-3.04C142.367,216.176,142.527,213.29,142.533,210.418z M146.084,210.681
		c0,1.962-0.307,3.994,0.12,5.857c0.242,1.059,1.585,2.487,2.601,2.642c4.651,0.705,8.588-2.473,9.353-7.154
		c0.86-5.27-1.569-9.259-6.334-10.407c-4.461-1.074-5.685-0.111-5.733,4.535C146.074,207.661,146.087,209.172,146.084,210.681z"/>
	<path fill-rule="evenodd" clip-rule="evenodd" fill="#FFFFFF" d="M112.537,210.217c-0.002-0.908-0.128-1.834,0.021-2.716
		c0.498-2.919,0.136-6.829,1.881-8.494c2.577-2.455,11.497-0.254,14.385,2.441c6.171,5.765,3.592,17.466-4.428,20.097
		c-9.329,3.062-11.881,1.306-11.858-8.157C112.542,212.329,112.54,211.272,112.537,210.217z M116.092,218.783
		c4.417,1.072,8.446,0.677,10.135-2.846c1.398-2.914,1.89-7.2,0.756-10.083c-0.847-2.148-4.839-3.264-7.63-4.302
		c-0.685-0.255-3.048,1.539-3.111,2.491C115.918,208.957,116.092,213.901,116.092,218.783z"/>
	<path fill-rule="evenodd" clip-rule="evenodd" fill="#FFFFFF" d="M47.277,207.901c0-2.271-0.168-4.56,0.084-6.802
		c0.099-0.89,1.133-1.673,1.742-2.505c0.629,0.852,1.752,1.678,1.801,2.562c0.209,3.772,0.072,7.562,0.118,11.349
		c0.04,3.347,0.394,6.751,4.798,6.766c4.561,0.017,5.127-3.43,5.177-6.984c0.049-3.634-0.119-7.277,0.13-10.894
		c0.066-0.965,1.306-1.85,2.008-2.772c0.545,0.924,1.526,1.832,1.56,2.775c0.153,4.232,0.278,8.49-0.039,12.706
		c-0.443,5.896-3.854,8.694-9.639,8.421c-5.094-0.24-7.633-3.232-7.749-9.172c-0.036-1.815-0.005-3.632-0.005-5.449
		C47.268,207.901,47.273,207.901,47.277,207.901z"/>
	<path fill-rule="evenodd" clip-rule="evenodd" fill="#FFFFFF" d="M89.959,221.331c2.387-6.991,4.709-14.006,7.242-20.943
		c0.309-0.847,1.753-1.783,2.654-1.767c0.889,0.018,2.239,1.016,2.556,1.886c2.527,6.938,4.858,13.945,7.24,20.91
		c-3.297,1.857-4.22-0.119-4.76-2.288c-0.689-2.772-1.729-4.345-5.142-4.264c-3.271,0.078-4.46,1.335-5.235,4.242
		c-0.358,1.342-1.989,2.346-3.042,3.501C90.967,222.184,90.463,221.757,89.959,221.331z M99.712,203.23
		c-1.143,3.615-1.891,5.985-2.708,8.569c1.926,0,3.381,0,5.364,0C101.52,209.062,100.78,206.672,99.712,203.23z"/>
	<path fill-rule="evenodd" clip-rule="evenodd" fill="#FFFFFF" d="M231.979,221.934c1.7-2.944,2.955-5.675,4.719-8.021
		c1.962-2.61,1.797-4.781,0.008-7.341c-1.605-2.298-2.844-4.852-4.577-7.872c6.572-0.681,5.828,5.445,9.006,7.469
		c3.458-1.332,2.406-8.222,8.973-7.462c-1.157,2.122-1.783,3.999-2.995,5.354c-3.775,4.224-3.526,8.17,0.034,12.362
		c1.228,1.444,1.926,3.338,3.21,5.646c-6.548,0.663-5.855-5.663-9.262-7.759C237.487,215.607,238.767,223.037,231.979,221.934z"/>
	<path fill-rule="evenodd" clip-rule="evenodd" fill="#FFFFFF" d="M351.36,211.272c-0.092,6.961-5.967,12.642-12.922,12.499
		c-6.769-0.14-12.446-5.85-12.478-12.55c-0.033-6.922,5.86-12.811,12.751-12.738C345.731,198.556,351.451,204.34,351.36,211.272z
		 M338.643,201.165c-5.786,0.043-10.06,4.292-10.028,9.97c0.031,5.688,4.39,10.06,10.025,10.055
		c5.753-0.005,9.945-4.243,9.962-10.07C348.617,205.286,344.451,201.124,338.643,201.165z"/>
	<path fill-rule="evenodd" clip-rule="evenodd" fill="#FFFFFF" d="M220.679,212.2c0,2.119,0,4.339,0,7.146c3.304,0,6.387,0,10.271,0
		c-0.933,1.446-1.242,2.243-1.819,2.71c-0.395,0.318-1.162,0.185-1.764,0.234c-10.67,0.86-10.67,0.859-10.655-9.885
		c0.002-2.425,0-4.848,0.002-7.271c0.012-7.061,0.241-7.314,7.488-6.876c1.969,0.119,3.915,0.603,5.872,0.92
		c-0.055,0.645-0.108,1.289-0.162,1.935c-2.995,0.261-5.989,0.521-9.211,0.802c0,2.066,0,3.959,0,6.114
		c2.879,0.202,5.677,0.396,9.163,0.64C227.59,213.353,223.441,210.037,220.679,212.2z"/>
	<path fill-rule="evenodd" clip-rule="evenodd" fill="#FFFFFF" d="M35.818,220.742c-1.159,0.542-2.276,1.409-3.487,1.571
		c-4.846,0.648-9.431,0.222-12.546-4.294c-2.617-3.795-2.642-10.687-0.061-14.674c3.062-4.73,7.755-5.432,12.78-4.896
		c1.065,0.114,2.016,1.291,3.02,1.979c-1.092,0.363-2.207,1.099-3.271,1.029c-7.024-0.456-10.879,3.029-10.509,9.704
		c0.297,5.345,3.423,8.229,8.812,8.148c1.599-0.022,3.197-0.003,4.796-0.003C35.508,219.785,35.664,220.264,35.818,220.742z"/>
	<path fill-rule="evenodd" clip-rule="evenodd" fill="#FFFFFF" d="M260.13,210.518c0.028-8.539,6.733-13.893,15.245-12.032
		c0.903,0.197,1.604,1.316,2.4,2.009c-0.963,0.364-1.944,1.087-2.887,1.036c-6.787-0.36-10.549,2.297-10.837,7.845
		c-0.368,7.076,2.82,10.143,10.119,9.917c1.154-0.035,2.329,0.562,3.493,0.866c-1.086,0.754-2.095,1.998-3.272,2.186
		C265.606,223.738,260.102,219.092,260.13,210.518z"/>
	<path fill-rule="evenodd" clip-rule="evenodd" fill="#FFFFFF" d="M179.405,199.428c-3.619,4.057-13.292-1.4-9.907,8.706
		c2.622,0.134,5.252,0.267,8.646,0.439c-2.205,4.634-6.058,1.711-8.863,3.446c0,1.934,0,4.239,0,7.239
		c2.375,0,4.734-0.129,7.063,0.072c0.785,0.067,1.496,0.978,2.241,1.501c-0.65,0.47-1.282,1.312-1.954,1.346
		c-3.012,0.149-6.048,0.222-9.047-0.027c-0.802-0.066-2.129-1.35-2.15-2.103c-0.179-6.335-0.148-12.679-0.065-19.018
		c0.009-0.774,0.621-2.152,1.086-2.211C170.471,198.305,174.534,197.872,179.405,199.428z"/>
	<path fill-rule="evenodd" clip-rule="evenodd" fill="#FFFFFF" d="M255.589,222.563c-0.816-0.868-2.308-1.715-2.339-2.61
		c-0.208-6.331-0.19-12.676-0.03-19.009c0.021-0.804,1.287-1.574,1.977-2.361c0.539,0.738,1.532,1.467,1.544,2.213
		c0.119,7.054,0.071,14.108,0.071,21.164C256.403,222.161,255.996,222.362,255.589,222.563z"/>
	<path fill-rule="evenodd" clip-rule="evenodd" fill="#FFFFFF" d="M42.761,210.43c0,3.028,0.137,6.067-0.083,9.079
		c-0.066,0.907-1.127,1.74-1.732,2.607c-0.619-0.82-1.752-1.629-1.772-2.465c-0.152-6.205-0.155-12.418,0.002-18.621
		c0.021-0.818,1.212-1.608,1.862-2.411c0.563,0.758,1.566,1.488,1.612,2.276c0.186,3.169,0.077,6.354,0.077,9.534
		C42.738,210.43,42.749,210.43,42.761,210.43z"/>
	<path fill-rule="evenodd" clip-rule="evenodd" fill="#FFFFFF" d="M343.689,218.484c-2.139-2.361-3.769-4.16-6.133-6.773
		c-0.573,2.162-0.601,2.801-0.896,3.268c-0.609,0.965-1.361,1.839-2.056,2.75c-0.48-0.974-1.228-1.909-1.379-2.933
		c-0.238-1.621-0.258-3.324-0.039-4.948c0.263-1.938,0.551-5.279,1.397-5.469c2.486-0.558,5.285-0.014,7.897,0.457
		c0.712,0.13,1.69,1.523,1.696,2.344C344.202,210.682,343.907,214.187,343.689,218.484z"/>
</g>
</svg>
